G04 --- HEADER BEGIN --- *
%TF.GenerationSoftware,LibrePCB,LibrePCB,0.1.4*%
%TF.CreationDate,2020-06-05T20:12:50*%
%TF.ProjectId,Apple 2c VGA - default,6ee0dbe1-6aad-4263-9a0f-7c091fb3c0df,v1.4*%
%TF.Part,Single*%
%FSLAX66Y66*%
%MOMM*%
G01*
G74*
G04 --- HEADER END --- *
G04 --- APERTURE LIST BEGIN --- *
%ADD10R,1.4X1.6*%
%ADD11O,2.2X1.7*%
%ADD12R,2.2X1.7*%
%ADD13C,2.7*%
%ADD14R,0.95X1.45*%
%ADD15C,1.7*%
%ADD16R,1.7X1.7*%
%ADD17R,1.45X0.95*%
%ADD18R,1.7X1.5*%
G04 --- APERTURE LIST END --- *
G04 --- BOARD BEGIN --- *
D10*
X35555000Y43040000D03*
X35555000Y40640000D03*
X33655000Y40640000D03*
X33655000Y43040000D03*
D11*
X55245000Y35560000D03*
X40005000Y43180000D03*
D12*
X40005000Y48260000D03*
D11*
X40005000Y27940000D03*
X40005000Y30480000D03*
X55245000Y22860000D03*
X55245000Y30480000D03*
X40005000Y40640000D03*
X55245000Y38100000D03*
X40005000Y20320000D03*
X55245000Y20320000D03*
X40005000Y38100000D03*
X40005000Y25400000D03*
X40005000Y22860000D03*
X55245000Y40640000D03*
X40005000Y33020000D03*
X55245000Y43180000D03*
X55245000Y15240000D03*
X55245000Y33020000D03*
X40005000Y45720000D03*
X40005000Y17780000D03*
X55245000Y48260000D03*
X55245000Y27940000D03*
X55245000Y25400000D03*
X55245000Y45720000D03*
X40005000Y35560000D03*
X40005000Y15240000D03*
X55245000Y17780000D03*
D13*
X17780000Y45720000D03*
X35560000Y45720000D03*
X35560000Y5080000D03*
X17780000Y5080000D03*
D14*
X53362500Y27940000D03*
X51412500Y27940000D03*
X29232500Y35560000D03*
X27282500Y35560000D03*
D11*
X20637500Y11430000D03*
X33337500Y19050000D03*
X20637500Y34290000D03*
X33337500Y31750000D03*
X33337500Y24130000D03*
X20637500Y31750000D03*
X20637500Y24130000D03*
X33337500Y34290000D03*
X33337500Y29210000D03*
X20637500Y29210000D03*
X33337500Y26670000D03*
X33337500Y13970000D03*
X20637500Y16510000D03*
X33337500Y11430000D03*
X20637500Y21590000D03*
X20637500Y19050000D03*
X20637500Y26670000D03*
X20637500Y13970000D03*
X33337500Y21590000D03*
X33337500Y16510000D03*
D14*
X53362500Y25400000D03*
X51412500Y25400000D03*
X53362500Y30480000D03*
X51412500Y30480000D03*
D15*
X64452500Y30145000D03*
X64452500Y27855000D03*
X64452500Y20985000D03*
X61912500Y26710000D03*
X64452500Y23275000D03*
D16*
X59372500Y30145000D03*
D15*
X59372500Y23275000D03*
X59372500Y25565000D03*
X59372500Y20985000D03*
X61912500Y22130000D03*
X61912500Y24420000D03*
X61912500Y29000000D03*
X61912500Y31290000D03*
X59372500Y27855000D03*
X64452500Y25565000D03*
D14*
X53362500Y35560000D03*
X51412500Y35560000D03*
X53362500Y17780000D03*
X51412500Y17780000D03*
D12*
X13017500Y34737500D03*
D11*
X13017500Y18297500D03*
X10477500Y16927500D03*
X13017500Y23777500D03*
X10477500Y22407500D03*
X13017500Y26517500D03*
X13017500Y15557500D03*
X10477500Y33367500D03*
X10477500Y27887500D03*
X13017500Y31997500D03*
X10477500Y19667500D03*
X10477500Y25147500D03*
X13017500Y21037500D03*
X13017500Y29257500D03*
X10477500Y30627500D03*
D17*
X51555177Y9245547D03*
X51555177Y11195547D03*
D13*
X41910000Y8890000D03*
X54610000Y3810000D03*
X41910000Y3810000D03*
X54610000Y8890000D03*
D14*
X53362500Y22860000D03*
X51412500Y22860000D03*
X53362500Y15240000D03*
X51412500Y15240000D03*
D18*
X31750000Y40960000D03*
X31750000Y42860000D03*
D14*
X53362500Y38100000D03*
X51412500Y38100000D03*
X53362500Y33020000D03*
X51412500Y33020000D03*
G04 --- BOARD END --- *
%TF.MD5,e9e0d513d9097243b1519de70b40c9e3*%
M02*
