M48
;DRILL FILE
;Generated by LibrePCB 0.1.4
;Creation Date: 2020-06-05T20:12:49
FMAT,2
METRIC,TZ
T1C0.2
T2C0.8
T3C1.0
T4C1.5
T5C1.6
T6C3.0
T7C3.2
T8C3.56
T9C3.59
%
G90
G05
M71
T1
X33.02Y39.0525
T2
X10.4775Y30.6275
X13.0175Y29.2575
X13.0175Y21.0375
X10.4775Y25.1475
X10.4775Y19.6675
X13.0175Y31.9975
X10.4775Y27.8875
X10.4775Y33.3675
X13.0175Y15.5575
X13.0175Y26.5175
X10.4775Y22.4075
X13.0175Y23.7775
X10.4775Y16.9275
X13.0175Y18.2975
X13.0175Y34.7375
X64.4525Y25.565
X59.3725Y27.855
X61.9125Y31.29
X61.9125Y29.0
X61.9125Y24.42
X61.9125Y22.13
X59.3725Y20.985
X59.3725Y25.565
X59.3725Y23.275
X59.3725Y30.145
X64.4525Y23.275
X61.9125Y26.71
X64.4525Y20.985
X64.4525Y27.855
X64.4525Y30.145
X33.3375Y16.51
X33.3375Y21.59
X20.6375Y13.97
X20.6375Y26.67
X20.6375Y19.05
X20.6375Y21.59
X33.3375Y11.43
X20.6375Y16.51
X33.3375Y13.97
X33.3375Y26.67
X20.6375Y29.21
X33.3375Y29.21
X33.3375Y34.29
X20.6375Y24.13
X20.6375Y31.75
X33.3375Y24.13
X33.3375Y31.75
X20.6375Y34.29
X33.3375Y19.05
X20.6375Y11.43
X17.78Y5.08
X35.56Y5.08
X35.56Y45.72
X17.78Y45.72
X55.245Y17.78
X40.005Y15.24
X40.005Y35.56
X55.245Y45.72
X55.245Y25.4
X55.245Y27.94
X55.245Y48.26
X40.005Y17.78
X40.005Y45.72
X55.245Y33.02
X55.245Y15.24
X55.245Y43.18
X40.005Y33.02
X55.245Y40.64
X40.005Y22.86
X40.005Y25.4
X40.005Y38.1
X55.245Y20.32
X40.005Y20.32
X55.245Y38.1
X40.005Y40.64
X55.245Y30.48
X55.245Y22.86
X40.005Y30.48
X40.005Y27.94
X40.005Y48.26
X40.005Y43.18
X55.245Y35.56
T3
X54.61Y8.89
X41.91Y3.81
X54.61Y3.81
X41.91Y8.89
T4
X48.21Y10.68
T5
X48.21Y2.18
T6
X2.54Y2.54
X71.0Y2.54
X71.0Y48.26
X2.54Y48.26
T7
X11.8975Y41.7075
X11.8975Y8.3875
T8
X61.9125Y38.06
T9
X61.9125Y13.07
T0
M30
