G04 --- HEADER BEGIN --- *
%TF.GenerationSoftware,LibrePCB,LibrePCB,0.1.4*%
%TF.CreationDate,2020-06-05T20:12:50*%
%TF.ProjectId,Apple 2c VGA - default,6ee0dbe1-6aad-4263-9a0f-7c091fb3c0df,v1.4*%
%TF.Part,Single*%
%FSLAX66Y66*%
%MOMM*%
G01*
G74*
G04 --- HEADER END --- *
G04 --- APERTURE LIST BEGIN --- *
%ADD10C,0.2*%
%ADD11R,3.2X1.7*%
%ADD12O,2.2X1.7*%
%ADD13R,2.2X1.7*%
%ADD14C,1.7*%
%ADD15C,2.7*%
%ADD16R,1.7X1.7*%
G04 --- APERTURE LIST END --- *
G04 --- BOARD BEGIN --- *
D10*
X38109800Y13703200D02*
X56609800Y13703200D01*
X56609800Y49303200D01*
X38109800Y49303200D01*
X38109800Y13703200D01*
X37230000Y3375000D02*
X37230000Y47375000D01*
X16230000Y47375000D01*
X16230000Y3375000D01*
X37230000Y3375000D01*
X34607500Y10160000D02*
X19367500Y10160000D01*
X19367500Y35560000D01*
X34607500Y35560000D01*
X34607500Y10160000D01*
X73342500Y10160000D02*
X73342500Y40970000D01*
X57372500Y40970000D01*
X57372500Y10160000D01*
X73342500Y10160000D01*
X15557500Y5497500D02*
X15557500Y44597500D01*
X277500Y44597500D01*
X277500Y5497500D01*
X15557500Y5497500D01*
X54210000Y12430000D02*
X42210000Y12430000D01*
X42210000Y430000D01*
X54210000Y430000D01*
X54210000Y12430000D01*
X47088200Y18883400D02*
X47898200Y18883400D01*
X47992644Y18931178D01*
X48040422Y18978956D01*
X48088200Y19073400D01*
X48088200Y19264511D01*
X48040422Y19360067D01*
X47992644Y19406733D01*
X47898200Y19454511D01*
X47088200Y19454511D01*
X47421533Y20331178D02*
X48088200Y20331178D01*
X47040422Y20092289D02*
X47754867Y19854511D01*
X47754867Y20473400D01*
X16350000Y2857500D02*
X16350000Y2047500D01*
X16397778Y1953056D01*
X16445556Y1905278D01*
X16540000Y1857500D01*
X16731111Y1857500D01*
X16826667Y1905278D01*
X16873333Y1953056D01*
X16921111Y2047500D01*
X16921111Y2857500D01*
X17368889Y2761944D02*
X17416667Y2809722D01*
X17511111Y2857500D01*
X17750000Y2857500D01*
X17844444Y2809722D01*
X17892222Y2761944D01*
X17940000Y2667500D01*
X17940000Y2571944D01*
X17892222Y2428611D01*
X17321111Y1857500D01*
X17940000Y1857500D01*
X19548889Y9842500D02*
X19548889Y9032500D01*
X19596667Y8938056D01*
X19644445Y8890278D01*
X19738889Y8842500D01*
X19930000Y8842500D01*
X20025556Y8890278D01*
X20072222Y8938056D01*
X20120000Y9032500D01*
X20120000Y9842500D01*
X21091111Y8842500D02*
X20520000Y8842500D01*
X20805556Y8842500D02*
X20805556Y9842500D01*
X20710000Y9699167D01*
X20615556Y9604722D01*
X20520000Y9556944D01*
X57783611Y9842500D02*
X57783611Y9128056D01*
X57735833Y8985833D01*
X57640278Y8890278D01*
X57498056Y8842500D01*
X57402500Y8842500D01*
X58231389Y9746944D02*
X58279167Y9794722D01*
X58373611Y9842500D01*
X58612500Y9842500D01*
X58706944Y9794722D01*
X58754722Y9746944D01*
X58802500Y9652500D01*
X58802500Y9556944D01*
X58754722Y9413611D01*
X58183611Y8842500D01*
X58802500Y8842500D01*
X4799052Y4998194D02*
X4799052Y4283750D01*
X4751274Y4141527D01*
X4655719Y4045972D01*
X4513497Y3998194D01*
X4417941Y3998194D01*
X5770163Y3998194D02*
X5199052Y3998194D01*
X5484608Y3998194D02*
X5484608Y4998194D01*
X5389052Y4854861D01*
X5294608Y4760416D01*
X5199052Y4712638D01*
X54791389Y5715278D02*
X54934722Y5667500D01*
X55172500Y5667500D01*
X55268056Y5715278D01*
X55314722Y5763056D01*
X55362500Y5857500D01*
X55362500Y5953056D01*
X55314722Y6048611D01*
X55268056Y6096389D01*
X55172500Y6144167D01*
X54981389Y6190833D01*
X54886945Y6238611D01*
X54839167Y6286389D01*
X54791389Y6381944D01*
X54791389Y6477500D01*
X54839167Y6571944D01*
X54886945Y6619722D01*
X54981389Y6667500D01*
X55220278Y6667500D01*
X55362500Y6619722D01*
X56333611Y5667500D02*
X55762500Y5667500D01*
X56048056Y5667500D02*
X56048056Y6667500D01*
X55952500Y6524167D01*
X55858056Y6429722D01*
X55762500Y6381944D01*
%LPC*%
D11*
X50950600Y26617600D03*
X44797000Y24077600D03*
D12*
X55245000Y35560000D03*
X40005000Y43180000D03*
D13*
X40005000Y48260000D03*
D12*
X40005000Y27940000D03*
D11*
X50950600Y44397600D03*
X44797000Y31697600D03*
X50950600Y31697600D03*
X44797000Y44397600D03*
D12*
X40005000Y30480000D03*
X55245000Y22860000D03*
X55245000Y30480000D03*
D11*
X44797000Y21537600D03*
D14*
X50950600Y36777600D03*
D12*
X40005000Y40640000D03*
D14*
X42257000Y18997600D03*
D11*
X44797000Y16457600D03*
D12*
X55245000Y38100000D03*
D11*
X50950600Y41857600D03*
X44797000Y26617600D03*
D12*
X40005000Y20320000D03*
X55245000Y20320000D03*
D11*
X50950600Y21537600D03*
D12*
X40005000Y38100000D03*
D11*
X50950600Y34237600D03*
D12*
X40005000Y25400000D03*
X40005000Y22860000D03*
D11*
X50950600Y18997600D03*
D12*
X55245000Y40640000D03*
X40005000Y33020000D03*
D11*
X44797000Y41857600D03*
D12*
X55245000Y43180000D03*
X55245000Y15240000D03*
D11*
X44797000Y46937600D03*
D14*
X42257000Y21537600D03*
D11*
X44797000Y29157600D03*
D12*
X55245000Y33020000D03*
X40005000Y45720000D03*
X40005000Y17780000D03*
D11*
X50950600Y29157600D03*
X44797000Y34237600D03*
X50950600Y24077600D03*
X44797000Y18997600D03*
D12*
X55245000Y48260000D03*
X55245000Y27940000D03*
D11*
X50950600Y16457600D03*
D12*
X55245000Y25400000D03*
X55245000Y45720000D03*
X40005000Y35560000D03*
D11*
X50950600Y46937600D03*
D12*
X40005000Y15240000D03*
X55245000Y17780000D03*
D15*
X17780000Y45720000D03*
X35560000Y45720000D03*
X35560000Y5080000D03*
X17780000Y5080000D03*
D12*
X20637500Y11430000D03*
X33337500Y19050000D03*
X20637500Y34290000D03*
X33337500Y31750000D03*
X33337500Y24130000D03*
X20637500Y31750000D03*
X20637500Y24130000D03*
X33337500Y34290000D03*
X33337500Y29210000D03*
X20637500Y29210000D03*
X33337500Y26670000D03*
X33337500Y13970000D03*
X20637500Y16510000D03*
X33337500Y11430000D03*
X20637500Y21590000D03*
X20637500Y19050000D03*
X20637500Y26670000D03*
X20637500Y13970000D03*
X33337500Y21590000D03*
X33337500Y16510000D03*
D14*
X64452500Y30145000D03*
X64452500Y27855000D03*
X64452500Y20985000D03*
X61912500Y26710000D03*
X64452500Y23275000D03*
D16*
X59372500Y30145000D03*
D14*
X59372500Y23275000D03*
X59372500Y25565000D03*
X59372500Y20985000D03*
X61912500Y22130000D03*
X61912500Y24420000D03*
X61912500Y29000000D03*
X61912500Y31290000D03*
X59372500Y27855000D03*
X64452500Y25565000D03*
D13*
X13017500Y34737500D03*
D12*
X13017500Y18297500D03*
X10477500Y16927500D03*
X13017500Y23777500D03*
X10477500Y22407500D03*
X13017500Y26517500D03*
X13017500Y15557500D03*
X10477500Y33367500D03*
X10477500Y27887500D03*
X13017500Y31997500D03*
X10477500Y19667500D03*
X10477500Y25147500D03*
X13017500Y21037500D03*
X13017500Y29257500D03*
X10477500Y30627500D03*
D15*
X41910000Y8890000D03*
X54610000Y3810000D03*
X41910000Y3810000D03*
X54610000Y8890000D03*
G04 --- BOARD END --- *
%TF.MD5,71ac436e11f38cc01ce15897c7660382*%
M02*
