G04 --- HEADER BEGIN --- *
%TF.GenerationSoftware,LibrePCB,LibrePCB,0.1.4*%
%TF.CreationDate,2020-06-05T20:12:50*%
%TF.ProjectId,Apple 2c VGA - default,6ee0dbe1-6aad-4263-9a0f-7c091fb3c0df,v1.4*%
%TF.Part,Single*%
%FSLAX66Y66*%
%MOMM*%
G01*
G74*
G04 --- HEADER END --- *
G04 --- APERTURE LIST BEGIN --- *
%ADD10R,3.0X1.5*%
%ADD11O,2.0X1.5*%
%ADD12R,2.0X1.5*%
%ADD13C,1.5*%
%ADD14C,2.5*%
%ADD15R,1.5X1.5*%
G04 --- APERTURE LIST END --- *
G04 --- BOARD BEGIN --- *
D10*
X50950600Y26617600D03*
X44797000Y24077600D03*
D11*
X55245000Y35560000D03*
X40005000Y43180000D03*
D12*
X40005000Y48260000D03*
D11*
X40005000Y27940000D03*
D10*
X50950600Y44397600D03*
X44797000Y31697600D03*
X50950600Y31697600D03*
X44797000Y44397600D03*
D11*
X40005000Y30480000D03*
X55245000Y22860000D03*
X55245000Y30480000D03*
D10*
X44797000Y21537600D03*
D13*
X50950600Y36777600D03*
D11*
X40005000Y40640000D03*
D13*
X42257000Y18997600D03*
D10*
X44797000Y16457600D03*
D11*
X55245000Y38100000D03*
D10*
X50950600Y41857600D03*
X44797000Y26617600D03*
D11*
X40005000Y20320000D03*
X55245000Y20320000D03*
D10*
X50950600Y21537600D03*
D11*
X40005000Y38100000D03*
D10*
X50950600Y34237600D03*
D11*
X40005000Y25400000D03*
X40005000Y22860000D03*
D10*
X50950600Y18997600D03*
D11*
X55245000Y40640000D03*
X40005000Y33020000D03*
D10*
X44797000Y41857600D03*
D11*
X55245000Y43180000D03*
X55245000Y15240000D03*
D10*
X44797000Y46937600D03*
D13*
X42257000Y21537600D03*
D10*
X44797000Y29157600D03*
D11*
X55245000Y33020000D03*
X40005000Y45720000D03*
X40005000Y17780000D03*
D10*
X50950600Y29157600D03*
X44797000Y34237600D03*
X50950600Y24077600D03*
X44797000Y18997600D03*
D11*
X55245000Y48260000D03*
X55245000Y27940000D03*
D10*
X50950600Y16457600D03*
D11*
X55245000Y25400000D03*
X55245000Y45720000D03*
X40005000Y35560000D03*
D10*
X50950600Y46937600D03*
D11*
X40005000Y15240000D03*
X55245000Y17780000D03*
D14*
X17780000Y45720000D03*
X35560000Y45720000D03*
X35560000Y5080000D03*
X17780000Y5080000D03*
D11*
X20637500Y11430000D03*
X33337500Y19050000D03*
X20637500Y34290000D03*
X33337500Y31750000D03*
X33337500Y24130000D03*
X20637500Y31750000D03*
X20637500Y24130000D03*
X33337500Y34290000D03*
X33337500Y29210000D03*
X20637500Y29210000D03*
X33337500Y26670000D03*
X33337500Y13970000D03*
X20637500Y16510000D03*
X33337500Y11430000D03*
X20637500Y21590000D03*
X20637500Y19050000D03*
X20637500Y26670000D03*
X20637500Y13970000D03*
X33337500Y21590000D03*
X33337500Y16510000D03*
D13*
X64452500Y30145000D03*
X64452500Y27855000D03*
X64452500Y20985000D03*
X61912500Y26710000D03*
X64452500Y23275000D03*
D15*
X59372500Y30145000D03*
D13*
X59372500Y23275000D03*
X59372500Y25565000D03*
X59372500Y20985000D03*
X61912500Y22130000D03*
X61912500Y24420000D03*
X61912500Y29000000D03*
X61912500Y31290000D03*
X59372500Y27855000D03*
X64452500Y25565000D03*
D12*
X13017500Y34737500D03*
D11*
X13017500Y18297500D03*
X10477500Y16927500D03*
X13017500Y23777500D03*
X10477500Y22407500D03*
X13017500Y26517500D03*
X13017500Y15557500D03*
X10477500Y33367500D03*
X10477500Y27887500D03*
X13017500Y31997500D03*
X10477500Y19667500D03*
X10477500Y25147500D03*
X13017500Y21037500D03*
X13017500Y29257500D03*
X10477500Y30627500D03*
D14*
X41910000Y8890000D03*
X54610000Y3810000D03*
X41910000Y3810000D03*
X54610000Y8890000D03*
G04 --- BOARD END --- *
%TF.MD5,45f97afa2a9baf571362a11e8d2de7f9*%
M02*
