G04 --- HEADER BEGIN --- *
%TF.GenerationSoftware,LibrePCB,LibrePCB,0.1.4*%
%TF.CreationDate,2020-05-24T15:31:10*%
%TF.ProjectId,Apple 2c VGA - default,6ee0dbe1-6aad-4263-9a0f-7c091fb3c0df,v1.3*%
%TF.Part,Single*%
%FSLAX66Y66*%
%MOMM*%
G01*
G74*
G04 --- HEADER END --- *
G04 --- APERTURE LIST BEGIN --- *
%ADD10C,0.001*%
G04 --- APERTURE LIST END --- *
G04 --- BOARD BEGIN --- *
D10*
X63500000Y31750000D02*
X63500000Y31750000D01*
X63490000Y31750000D01*
X63490000Y32385000D01*
X63500000Y32385000D01*
X63500000Y31750000D01*
X39370000Y49847500D02*
X39370000Y49847500D01*
X39370000Y49837500D01*
X40640000Y49837500D01*
X40640000Y49847500D01*
X39370000Y49847500D01*
X29845000Y43180000D02*
X29845000Y41910000D01*
X29835000Y41910000D01*
X29835000Y43180000D01*
X29845000Y43180000D01*
X28257500Y36830000D02*
X28257500Y36830000D01*
X28257500Y36840000D01*
X26987500Y36840000D01*
X26987500Y36830000D01*
X28257500Y36830000D01*
X31115000Y43815000D02*
X32385000Y43815000D01*
X32385000Y43825000D01*
X31115000Y43825000D01*
X31115000Y43815000D01*
X28257500Y34290000D02*
X28257500Y34290000D01*
X26987500Y34290000D01*
X26987500Y34300000D01*
X28257500Y34300000D01*
X28257500Y34290000D01*
X52269489Y12254809D02*
X52269489Y12254809D01*
X52269489Y12264809D01*
X50999489Y12264809D01*
X50999489Y12254809D01*
X52269489Y12254809D01*
X36036250Y47625000D02*
X36036250Y47625000D01*
X34766250Y47625000D01*
X34766250Y47635000D01*
X36036250Y47635000D01*
X36036250Y47625000D01*
X59055000Y19050000D02*
X59055000Y19050000D01*
X59055000Y19060000D01*
X59690000Y19060000D01*
X59690000Y19050000D01*
X59055000Y19050000D01*
X21431250Y36036250D02*
X21431250Y36036250D01*
X21431250Y35401250D01*
X21441250Y35401250D01*
X21441250Y36036250D01*
X21431250Y36036250D01*
X60325000Y32861250D02*
X60325000Y32861250D01*
X60325000Y32226250D01*
X60335000Y32226250D01*
X60335000Y32861250D01*
X60325000Y32861250D01*
X33337500Y45402500D02*
X33337500Y46672500D01*
X33327500Y46672500D01*
X33327500Y45402500D01*
X33337500Y45402500D01*
X24447500Y36036250D02*
X24447500Y36036250D01*
X24447500Y35401250D01*
X24457500Y35401250D01*
X24457500Y36036250D01*
X24447500Y36036250D01*
X57785000Y20478750D02*
X57785000Y20478750D01*
X57785000Y19843750D01*
X57795000Y19843750D01*
X57795000Y20478750D01*
X57785000Y20478750D01*
X37465000Y5715000D02*
X37465000Y5715000D01*
X37465000Y4445000D01*
X37475000Y4445000D01*
X37475000Y5715000D01*
X37465000Y5715000D01*
X0Y0D02*
X0Y0D01*
X73500000Y0D01*
X73500000Y50800000D01*
X0Y50800000D01*
X0Y0D01*
X33655000Y4445000D02*
X33655000Y4445000D01*
X33665000Y4445000D01*
X33665000Y5715000D01*
X33655000Y5715000D01*
X33655000Y4445000D01*
X22542500Y36830000D02*
X22542500Y36830000D01*
X22542500Y36840000D01*
X23177500Y36840000D01*
X23177500Y36830000D01*
X22542500Y36830000D01*
X62547500Y20320000D02*
X62547500Y20320000D01*
X61277500Y20320000D01*
X61277500Y20330000D01*
X62547500Y20330000D01*
X62547500Y20320000D01*
X62547500Y33178750D02*
X62547500Y33178750D01*
X62547500Y33188750D01*
X61277500Y33188750D01*
X61277500Y33178750D01*
X62547500Y33178750D01*
X41910000Y47783750D02*
X41910000Y47783750D01*
X41900000Y47783750D01*
X41900000Y48418750D01*
X41910000Y48418750D01*
X41910000Y47783750D01*
X34925000Y3175000D02*
X34925000Y3175000D01*
X36195000Y3175000D01*
X36195000Y3185000D01*
X34925000Y3185000D01*
X34925000Y3175000D01*
X34925000Y6985000D02*
X34925000Y6985000D01*
X36195000Y6985000D01*
X36195000Y6995000D01*
X34925000Y6995000D01*
X34925000Y6985000D01*
G04 --- BOARD END --- *
%TF.MD5,7ddf44d3d5361e0ee9e47acfa3855b43*%
M02*
