G04 --- HEADER BEGIN --- *
%TF.GenerationSoftware,LibrePCB,LibrePCB,0.1.4*%
%TF.CreationDate,2020-05-24T15:31:11*%
%TF.ProjectId,Apple 2c VGA - default,6ee0dbe1-6aad-4263-9a0f-7c091fb3c0df,v1.3*%
%TF.Part,Single*%
%FSLAX66Y66*%
%MOMM*%
G01*
G74*
G04 --- HEADER END --- *
G04 --- APERTURE LIST BEGIN --- *
%ADD10C,0.2*%
%ADD11C,2.7*%
%ADD12O,2.2X1.7*%
%ADD13C,1.7*%
%ADD14R,1.7X1.7*%
%ADD15R,2.2X1.7*%
%ADD16R,3.2X1.7*%
G04 --- APERTURE LIST END --- *
G04 --- BOARD BEGIN --- *
D10*
X37230000Y3375000D02*
X37230000Y47375000D01*
X16230000Y47375000D01*
X16230000Y3375000D01*
X37230000Y3375000D01*
X35560000Y10160000D02*
X20320000Y10160000D01*
X20320000Y38100000D01*
X35560000Y38100000D01*
X35560000Y10160000D01*
X73342500Y10160000D02*
X73342500Y40970000D01*
X57372500Y40970000D01*
X57372500Y10160000D01*
X73342500Y10160000D01*
X15557500Y5497500D02*
X15557500Y44597500D01*
X277500Y44597500D01*
X277500Y5497500D01*
X15557500Y5497500D01*
X54210000Y12430000D02*
X42210000Y12430000D01*
X42210000Y430000D01*
X54210000Y430000D01*
X54210000Y12430000D01*
X38109800Y13703200D02*
X56609800Y13703200D01*
X56609800Y49303200D01*
X38109800Y49303200D01*
X38109800Y13703200D01*
X16350000Y2857500D02*
X16350000Y2047500D01*
X16397778Y1953056D01*
X16445556Y1905278D01*
X16540000Y1857500D01*
X16731111Y1857500D01*
X16826667Y1905278D01*
X16873333Y1953056D01*
X16921111Y2047500D01*
X16921111Y2857500D01*
X17368889Y2761944D02*
X17416667Y2809722D01*
X17511111Y2857500D01*
X17750000Y2857500D01*
X17844444Y2809722D01*
X17892222Y2761944D01*
X17940000Y2667500D01*
X17940000Y2571944D01*
X17892222Y2428611D01*
X17321111Y1857500D01*
X17940000Y1857500D01*
X20501389Y9842500D02*
X20501389Y9032500D01*
X20549167Y8938056D01*
X20596945Y8890278D01*
X20691389Y8842500D01*
X20882500Y8842500D01*
X20978056Y8890278D01*
X21024722Y8938056D01*
X21072500Y9032500D01*
X21072500Y9842500D01*
X22043611Y8842500D02*
X21472500Y8842500D01*
X21758056Y8842500D02*
X21758056Y9842500D01*
X21662500Y9699167D01*
X21568056Y9604722D01*
X21472500Y9556944D01*
X57783611Y9842500D02*
X57783611Y9128056D01*
X57735833Y8985833D01*
X57640278Y8890278D01*
X57498056Y8842500D01*
X57402500Y8842500D01*
X58231389Y9746944D02*
X58279167Y9794722D01*
X58373611Y9842500D01*
X58612500Y9842500D01*
X58706944Y9794722D01*
X58754722Y9746944D01*
X58802500Y9652500D01*
X58802500Y9556944D01*
X58754722Y9413611D01*
X58183611Y8842500D01*
X58802500Y8842500D01*
X4799052Y4998194D02*
X4799052Y4283750D01*
X4751274Y4141527D01*
X4655719Y4045972D01*
X4513497Y3998194D01*
X4417941Y3998194D01*
X5770163Y3998194D02*
X5199052Y3998194D01*
X5484608Y3998194D02*
X5484608Y4998194D01*
X5389052Y4854861D01*
X5294608Y4760416D01*
X5199052Y4712638D01*
X54791389Y5715278D02*
X54934722Y5667500D01*
X55172500Y5667500D01*
X55268056Y5715278D01*
X55314722Y5763056D01*
X55362500Y5857500D01*
X55362500Y5953056D01*
X55314722Y6048611D01*
X55268056Y6096389D01*
X55172500Y6144167D01*
X54981389Y6190833D01*
X54886945Y6238611D01*
X54839167Y6286389D01*
X54791389Y6381944D01*
X54791389Y6477500D01*
X54839167Y6571944D01*
X54886945Y6619722D01*
X54981389Y6667500D01*
X55220278Y6667500D01*
X55362500Y6619722D01*
X56333611Y5667500D02*
X55762500Y5667500D01*
X56048056Y5667500D02*
X56048056Y6667500D01*
X55952500Y6524167D01*
X55858056Y6429722D01*
X55762500Y6381944D01*
X38212476Y13240466D02*
X38212476Y12430466D01*
X38260254Y12336022D01*
X38308032Y12288244D01*
X38402476Y12240466D01*
X38593587Y12240466D01*
X38689143Y12288244D01*
X38735809Y12336022D01*
X38783587Y12430466D01*
X38783587Y13240466D01*
X39183587Y13240466D02*
X39802476Y13240466D01*
X39469143Y12859355D01*
X39612476Y12859355D01*
X39706920Y12811577D01*
X39754698Y12763799D01*
X39802476Y12669355D01*
X39802476Y12430466D01*
X39754698Y12336022D01*
X39706920Y12288244D01*
X39612476Y12240466D01*
X39326920Y12240466D01*
X39231365Y12288244D01*
X39183587Y12336022D01*
%LPC*%
D11*
X17780000Y45720000D03*
X35560000Y45720000D03*
X35560000Y5080000D03*
X17780000Y5080000D03*
D12*
X22860000Y12700000D03*
X33020000Y20320000D03*
X22860000Y35560000D03*
X33020000Y33020000D03*
X33020000Y25400000D03*
X22860000Y33020000D03*
X22860000Y25400000D03*
X33020000Y35560000D03*
X33020000Y30480000D03*
X22860000Y30480000D03*
X33020000Y27940000D03*
X33020000Y15240000D03*
X22860000Y17780000D03*
X33020000Y12700000D03*
X22860000Y22860000D03*
X22860000Y20320000D03*
X22860000Y27940000D03*
X22860000Y15240000D03*
X33020000Y22860000D03*
X33020000Y17780000D03*
D13*
X64452500Y30145000D03*
X64452500Y27855000D03*
X64452500Y20985000D03*
X61912500Y26710000D03*
X64452500Y23275000D03*
D14*
X59372500Y30145000D03*
D13*
X59372500Y23275000D03*
X59372500Y25565000D03*
X59372500Y20985000D03*
X61912500Y22130000D03*
X61912500Y24420000D03*
X61912500Y29000000D03*
X61912500Y31290000D03*
X59372500Y27855000D03*
X64452500Y25565000D03*
D15*
X13017500Y34737500D03*
D12*
X13017500Y18297500D03*
X10477500Y16927500D03*
X13017500Y23777500D03*
X10477500Y22407500D03*
X13017500Y26517500D03*
X13017500Y15557500D03*
X10477500Y33367500D03*
X10477500Y27887500D03*
X13017500Y31997500D03*
X10477500Y19667500D03*
X10477500Y25147500D03*
X13017500Y21037500D03*
X13017500Y29257500D03*
X10477500Y30627500D03*
D11*
X41910000Y8890000D03*
X54610000Y3810000D03*
X41910000Y3810000D03*
X54610000Y8890000D03*
D16*
X50950600Y26617600D03*
X44797000Y24077600D03*
D12*
X55245000Y35560000D03*
X40005000Y43180000D03*
D15*
X40005000Y48260000D03*
D12*
X40005000Y27940000D03*
D16*
X50950600Y44397600D03*
X44797000Y31697600D03*
X50950600Y31697600D03*
X44797000Y44397600D03*
D12*
X40005000Y30480000D03*
X55245000Y22860000D03*
X55245000Y30480000D03*
D16*
X44797000Y21537600D03*
D13*
X50950600Y36777600D03*
D12*
X40005000Y40640000D03*
D13*
X42257000Y18997600D03*
D16*
X44797000Y16457600D03*
D12*
X55245000Y38100000D03*
D16*
X50950600Y41857600D03*
X44797000Y26617600D03*
D12*
X40005000Y20320000D03*
X55245000Y20320000D03*
D16*
X50950600Y21537600D03*
D12*
X40005000Y38100000D03*
D16*
X50950600Y34237600D03*
D12*
X40005000Y25400000D03*
X40005000Y22860000D03*
D16*
X50950600Y18997600D03*
D12*
X55245000Y40640000D03*
X40005000Y33020000D03*
D16*
X44797000Y41857600D03*
D12*
X55245000Y43180000D03*
X55245000Y15240000D03*
D16*
X44797000Y46937600D03*
D13*
X42257000Y21537600D03*
D16*
X44797000Y29157600D03*
D12*
X55245000Y33020000D03*
X40005000Y45720000D03*
X40005000Y17780000D03*
D16*
X50950600Y29157600D03*
X44797000Y34237600D03*
X50950600Y24077600D03*
X44797000Y18997600D03*
D12*
X55245000Y48260000D03*
X55245000Y27940000D03*
D16*
X50950600Y16457600D03*
D12*
X55245000Y25400000D03*
X55245000Y45720000D03*
X40005000Y35560000D03*
D16*
X50950600Y46937600D03*
D12*
X40005000Y15240000D03*
X55245000Y17780000D03*
G04 --- BOARD END --- *
%TF.MD5,c7af81e42e4c46183f7da45091faca08*%
M02*
