G04 --- HEADER BEGIN --- *
%TF.GenerationSoftware,LibrePCB,LibrePCB,0.1.3*%
%TF.CreationDate,2020-04-12T13:34:48*%
%TF.ProjectId,Apple 2c VGA - default,6ee0dbe1-6aad-4263-9a0f-7c091fb3c0df,v1*%
%TF.Part,Single*%
%FSLAX66Y66*%
%MOMM*%
G01*
G74*
G04 --- HEADER END --- *
G04 --- APERTURE LIST BEGIN --- *
%ADD10C,2.7*%
%ADD11R,0.95X1.45*%
%ADD12R,1.45X0.95*%
%ADD13O,2.2X1.7*%
%ADD14C,1.8*%
%ADD15R,2.2X1.7*%
G04 --- APERTURE LIST END --- *
G04 --- BOARD BEGIN --- *
D10*
X17780000Y45720000D03*
X35560000Y45720000D03*
X35560000Y5080000D03*
X17780000Y5080000D03*
D11*
X54315000Y27940000D03*
X52365000Y27940000D03*
D12*
X33020000Y39665000D03*
X33020000Y41615000D03*
D13*
X22860000Y12700000D03*
X33020000Y20320000D03*
X22860000Y35560000D03*
X33020000Y33020000D03*
X33020000Y25400000D03*
X22860000Y33020000D03*
X22860000Y25400000D03*
X33020000Y35560000D03*
X33020000Y30480000D03*
X22860000Y30480000D03*
X33020000Y27940000D03*
X33020000Y15240000D03*
X22860000Y17780000D03*
X33020000Y12700000D03*
X22860000Y22860000D03*
X22860000Y20320000D03*
X22860000Y27940000D03*
X22860000Y15240000D03*
X33020000Y22860000D03*
X33020000Y17780000D03*
D11*
X54315000Y25400000D03*
X52365000Y25400000D03*
X54315000Y30480000D03*
X52365000Y30480000D03*
X54315000Y35560000D03*
X52365000Y35560000D03*
X54315000Y17780000D03*
X52365000Y17780000D03*
D14*
X12700000Y16062500D03*
X12700000Y32502500D03*
X10160000Y33872500D03*
X12700000Y27022500D03*
X10160000Y28392500D03*
X12700000Y24282500D03*
X12700000Y35242500D03*
X10160000Y17432500D03*
X10160000Y22912500D03*
X12700000Y18802500D03*
X10160000Y31132500D03*
X10160000Y25652500D03*
X12700000Y29762500D03*
X12700000Y21542500D03*
X10160000Y20172500D03*
D12*
X45085000Y11770000D03*
X45085000Y9820000D03*
D10*
X41910000Y8890000D03*
X54610000Y3810000D03*
X41910000Y3810000D03*
X54610000Y8890000D03*
D11*
X54315000Y22860000D03*
X52365000Y22860000D03*
D14*
X66065346Y30144670D03*
X66065346Y27854670D03*
X66065346Y20984670D03*
X63525346Y26709670D03*
X66065346Y23274670D03*
X60985346Y30144670D03*
X60985346Y23274670D03*
X60985346Y25564670D03*
X60985346Y20984670D03*
X63525346Y22129670D03*
X63525346Y24419670D03*
X63525346Y28999670D03*
X63525346Y31289670D03*
X60985346Y27854670D03*
X66065346Y25564670D03*
D13*
X55880000Y35560000D03*
X40640000Y43180000D03*
D15*
X40640000Y48260000D03*
D13*
X40640000Y27940000D03*
X40640000Y30480000D03*
X55880000Y22860000D03*
X55880000Y30480000D03*
X40640000Y40640000D03*
X55880000Y38100000D03*
X40640000Y20320000D03*
X55880000Y20320000D03*
X40640000Y38100000D03*
X40640000Y25400000D03*
X40640000Y22860000D03*
X55880000Y40640000D03*
X40640000Y33020000D03*
X55880000Y43180000D03*
X55880000Y15240000D03*
X55880000Y33020000D03*
X40640000Y45720000D03*
X40640000Y17780000D03*
X55880000Y48260000D03*
X55880000Y27940000D03*
X55880000Y25400000D03*
X55880000Y45720000D03*
X40640000Y35560000D03*
X40640000Y15240000D03*
X55880000Y17780000D03*
D11*
X54315000Y15240000D03*
X52365000Y15240000D03*
X54315000Y38100000D03*
X52365000Y38100000D03*
X54315000Y33020000D03*
X52365000Y33020000D03*
G04 --- BOARD END --- *
%TF.MD5,a201a39f4e957c2e4c86f2dd4c6195fe*%
M02*
