G04 --- HEADER BEGIN --- *
%TF.GenerationSoftware,LibrePCB,LibrePCB,0.1.3*%
%TF.CreationDate,2020-04-12T13:34:48*%
%TF.ProjectId,Apple 2c VGA - default,6ee0dbe1-6aad-4263-9a0f-7c091fb3c0df,v1*%
%TF.Part,Single*%
%FSLAX66Y66*%
%MOMM*%
G01*
G74*
G04 --- HEADER END --- *
G04 --- APERTURE LIST BEGIN --- *
%ADD10C,0.2*%
%ADD11C,2.7*%
%ADD12O,2.2X1.7*%
%ADD13C,1.8*%
%ADD14R,3.2X1.7*%
%ADD15R,2.2X1.7*%
%ADD16C,1.7*%
G04 --- APERTURE LIST END --- *
G04 --- BOARD BEGIN --- *
D10*
X37230000Y3375000D02*
X37230000Y47375000D01*
X16230000Y47375000D01*
X16230000Y3375000D01*
X37230000Y3375000D01*
X35560000Y10160000D02*
X20320000Y10160000D01*
X20320000Y38100000D01*
X35560000Y38100000D01*
X35560000Y10160000D01*
X54210000Y12430000D02*
X42210000Y12430000D01*
X42210000Y430000D01*
X54210000Y430000D01*
X54210000Y12430000D01*
X74955346Y38099670D02*
X74955346Y40639670D01*
X80035346Y40639670D01*
X80035346Y38099670D01*
X74955346Y38099670D01*
X74955346Y10159670D02*
X74955346Y12699670D01*
X80035346Y12699670D01*
X80035346Y10159670D01*
X74955346Y10159670D01*
X74955346Y33019670D02*
X74955346Y17779670D01*
X80035346Y17779670D01*
X80035346Y33019670D01*
X74955346Y33019670D01*
X38744800Y13703200D02*
X57244800Y13703200D01*
X57244800Y49303200D01*
X38744800Y49303200D01*
X38744800Y13703200D01*
%LPC*%
D11*
X17780000Y45720000D03*
X35560000Y45720000D03*
X35560000Y5080000D03*
X17780000Y5080000D03*
D12*
X22860000Y12700000D03*
X33020000Y20320000D03*
X22860000Y35560000D03*
X33020000Y33020000D03*
X33020000Y25400000D03*
X22860000Y33020000D03*
X22860000Y25400000D03*
X33020000Y35560000D03*
X33020000Y30480000D03*
X22860000Y30480000D03*
X33020000Y27940000D03*
X33020000Y15240000D03*
X22860000Y17780000D03*
X33020000Y12700000D03*
X22860000Y22860000D03*
X22860000Y20320000D03*
X22860000Y27940000D03*
X22860000Y15240000D03*
X33020000Y22860000D03*
X33020000Y17780000D03*
D13*
X12700000Y16062500D03*
X12700000Y32502500D03*
X10160000Y33872500D03*
X12700000Y27022500D03*
X10160000Y28392500D03*
X12700000Y24282500D03*
X12700000Y35242500D03*
X10160000Y17432500D03*
X10160000Y22912500D03*
X12700000Y18802500D03*
X10160000Y31132500D03*
X10160000Y25652500D03*
X12700000Y29762500D03*
X12700000Y21542500D03*
X10160000Y20172500D03*
D11*
X41910000Y8890000D03*
X54610000Y3810000D03*
X41910000Y3810000D03*
X54610000Y8890000D03*
D13*
X66065346Y30144670D03*
X66065346Y27854670D03*
X66065346Y20984670D03*
X63525346Y26709670D03*
X66065346Y23274670D03*
X60985346Y30144670D03*
X60985346Y23274670D03*
X60985346Y25564670D03*
X60985346Y20984670D03*
X63525346Y22129670D03*
X63525346Y24419670D03*
X63525346Y28999670D03*
X63525346Y31289670D03*
X60985346Y27854670D03*
X66065346Y25564670D03*
D14*
X51585600Y26617600D03*
X45432000Y24077600D03*
D12*
X55880000Y35560000D03*
X40640000Y43180000D03*
D15*
X40640000Y48260000D03*
D12*
X40640000Y27940000D03*
D14*
X51585600Y44397600D03*
X45432000Y31697600D03*
X51585600Y31697600D03*
X45432000Y44397600D03*
D12*
X40640000Y30480000D03*
X55880000Y22860000D03*
X55880000Y30480000D03*
D14*
X45432000Y21537600D03*
D16*
X51585600Y36777600D03*
D12*
X40640000Y40640000D03*
D16*
X42892000Y18997600D03*
D14*
X45432000Y16457600D03*
D12*
X55880000Y38100000D03*
D14*
X51585600Y41857600D03*
X45432000Y26617600D03*
D12*
X40640000Y20320000D03*
X55880000Y20320000D03*
D14*
X51585600Y21537600D03*
D12*
X40640000Y38100000D03*
D14*
X51585600Y34237600D03*
D12*
X40640000Y25400000D03*
X40640000Y22860000D03*
D14*
X51585600Y18997600D03*
D12*
X55880000Y40640000D03*
X40640000Y33020000D03*
D14*
X45432000Y41857600D03*
D12*
X55880000Y43180000D03*
X55880000Y15240000D03*
D14*
X45432000Y46937600D03*
D16*
X42892000Y21537600D03*
D14*
X45432000Y29157600D03*
D12*
X55880000Y33020000D03*
X40640000Y45720000D03*
X40640000Y17780000D03*
D14*
X51585600Y29157600D03*
X45432000Y34237600D03*
X51585600Y24077600D03*
X45432000Y18997600D03*
D12*
X55880000Y48260000D03*
X55880000Y27940000D03*
D14*
X51585600Y16457600D03*
D12*
X55880000Y25400000D03*
X55880000Y45720000D03*
X40640000Y35560000D03*
D14*
X51585600Y46937600D03*
D12*
X40640000Y15240000D03*
X55880000Y17780000D03*
G04 --- BOARD END --- *
%TF.MD5,5263f071ac801623d9403ad88e939922*%
M02*
