G04 --- HEADER BEGIN --- *
%TF.GenerationSoftware,LibrePCB,LibrePCB,0.1.3*%
%TF.CreationDate,2020-02-22T16:59:52*%
%TF.ProjectId,Apple 2c VGA - default,6ee0dbe1-6aad-4263-9a0f-7c091fb3c0df,v1*%
%TF.Part,Single*%
%FSLAX66Y66*%
%MOMM*%
G01*
G74*
G04 --- HEADER END --- *
G04 --- APERTURE LIST BEGIN --- *
%ADD10C,1.3*%
%ADD11C,2.5*%
%ADD12R,0.75X1.25*%
%ADD13R,1.25X0.75*%
%ADD14O,2.0X1.5*%
%ADD15R,2.0X1.5*%
%ADD16C,0.5*%
%ADD17C,0.0*%
G04 --- APERTURE LIST END --- *
G04 --- BOARD BEGIN --- *
D10*
X12700000Y34420000D03*
X12700000Y17980000D03*
X10160000Y16610000D03*
X12700000Y23460000D03*
X10160000Y22090000D03*
X12700000Y26200000D03*
X12700000Y15240000D03*
X10160000Y33050000D03*
X10160000Y27570000D03*
X12700000Y31680000D03*
X10160000Y19350000D03*
X10160000Y24830000D03*
X12700000Y20720000D03*
X12700000Y28940000D03*
X10160000Y30310000D03*
D11*
X17780000Y45720000D03*
X35560000Y45720000D03*
X35560000Y5080000D03*
X17780000Y5080000D03*
D12*
X54315000Y27940000D03*
X52365000Y27940000D03*
D13*
X33020000Y39665000D03*
X33020000Y41615000D03*
D14*
X22860000Y12700000D03*
X33020000Y20320000D03*
X22860000Y35560000D03*
X33020000Y33020000D03*
X33020000Y25400000D03*
X22860000Y33020000D03*
X22860000Y25400000D03*
X33020000Y35560000D03*
X33020000Y30480000D03*
X22860000Y30480000D03*
X33020000Y27940000D03*
X33020000Y15240000D03*
X22860000Y17780000D03*
X33020000Y12700000D03*
X22860000Y22860000D03*
X22860000Y20320000D03*
X22860000Y27940000D03*
X22860000Y15240000D03*
X33020000Y22860000D03*
X33020000Y17780000D03*
D12*
X54315000Y25400000D03*
X52365000Y25400000D03*
X54315000Y30480000D03*
X52365000Y30480000D03*
X54315000Y35560000D03*
X52365000Y35560000D03*
X54315000Y17780000D03*
X52365000Y17780000D03*
D13*
X52070000Y8595000D03*
X52070000Y6645000D03*
D11*
X41910000Y8890000D03*
X54610000Y3810000D03*
X41910000Y3810000D03*
X54610000Y8890000D03*
D12*
X54315000Y22860000D03*
X52365000Y22860000D03*
D14*
X55880000Y35560000D03*
X40640000Y43180000D03*
D15*
X40640000Y48260000D03*
D14*
X40640000Y27940000D03*
X40640000Y30480000D03*
X55880000Y22860000D03*
X55880000Y30480000D03*
X40640000Y40640000D03*
X55880000Y38100000D03*
X40640000Y20320000D03*
X55880000Y20320000D03*
X40640000Y38100000D03*
X40640000Y25400000D03*
X40640000Y22860000D03*
X55880000Y40640000D03*
X40640000Y33020000D03*
X55880000Y43180000D03*
X55880000Y15240000D03*
X55880000Y33020000D03*
X40640000Y45720000D03*
X40640000Y17780000D03*
X55880000Y48260000D03*
X55880000Y27940000D03*
X55880000Y25400000D03*
X55880000Y45720000D03*
X40640000Y35560000D03*
X40640000Y15240000D03*
X55880000Y17780000D03*
D10*
X66040000Y30145000D03*
X66040000Y27855000D03*
X66040000Y20985000D03*
X63500000Y26710000D03*
X66040000Y23275000D03*
X60960000Y30145000D03*
X60960000Y23275000D03*
X60960000Y25565000D03*
X60960000Y20985000D03*
X63500000Y22130000D03*
X63500000Y24420000D03*
X63500000Y29000000D03*
X63500000Y31290000D03*
X60960000Y27855000D03*
X66040000Y25565000D03*
D12*
X54315000Y15240000D03*
X52365000Y15240000D03*
X54315000Y38100000D03*
X52365000Y38100000D03*
X54315000Y33020000D03*
X52365000Y33020000D03*
D16*
X22860000Y20320000D02*
X21590000Y20320000D01*
X20620000Y19350000D02*
X10460000Y19350000D01*
X10160000Y19350000D02*
X10460000Y19350000D01*
X20620000Y19350000D02*
X21590000Y20320000D01*
X60960000Y25565000D02*
X59855000Y25565000D01*
X53340000Y21590000D02*
X52365000Y22860000D01*
X52365000Y17780000D02*
X52365000Y20025000D01*
X52365000Y20025000D02*
X52365000Y22860000D01*
X52365000Y15240000D02*
X52365000Y17485000D01*
X52365000Y17780000D02*
X52365000Y17485000D01*
X57150000Y21590000D02*
X53340000Y21590000D01*
X58420000Y22860000D02*
X57150000Y21590000D01*
X58420000Y24130000D02*
X58420000Y22860000D01*
X59855000Y25565000D02*
X58420000Y24130000D01*
X33020000Y39665000D02*
X33020000Y39370000D01*
X33020000Y35560000D02*
X33020000Y39370000D01*
X40640000Y20320000D02*
X38100000Y20320000D01*
X34290000Y17780000D02*
X35560000Y17780000D01*
X35560000Y17780000D02*
X38100000Y20320000D01*
X33020000Y17780000D02*
X34290000Y17780000D01*
X41910000Y8890000D02*
X43180000Y7620000D01*
X63500000Y33020000D02*
X62230000Y33020000D01*
X64770000Y20320000D02*
X63500000Y19050000D01*
X58420000Y12700000D02*
X57150000Y11430000D01*
X58420000Y39370000D02*
X58420000Y38100000D01*
X60960000Y19050000D02*
X58420000Y16510000D01*
X58420000Y35560000D02*
X58420000Y38100000D01*
X60960000Y33020000D02*
X58420000Y35560000D01*
X55880000Y40640000D02*
X57150000Y40640000D01*
X64770000Y31750000D02*
X64770000Y20320000D01*
X63500000Y19050000D02*
X60960000Y19050000D01*
X57150000Y11430000D02*
X54610000Y8890000D01*
X64770000Y31750000D02*
X63500000Y33020000D01*
X62230000Y33020000D02*
X60960000Y33020000D01*
X52070000Y8595000D02*
X52070000Y8890000D01*
X57150000Y40640000D02*
X58420000Y39370000D01*
X54610000Y8890000D02*
X52070000Y8890000D01*
X52070000Y8595000D02*
X52070000Y8890000D01*
X49530000Y7620000D02*
X50800000Y8890000D01*
X58420000Y16510000D02*
X58420000Y12700000D01*
X43180000Y7620000D02*
X49530000Y7620000D01*
X50800000Y8890000D02*
X52070000Y8890000D01*
X55880000Y38100000D02*
X54315000Y38100000D01*
X40640000Y43180000D02*
X49530000Y43180000D01*
X67310000Y24130000D02*
X71120000Y27940000D01*
X54610000Y46990000D02*
X53340000Y46990000D01*
X71120000Y40640000D02*
X67310000Y44450000D01*
X64770000Y46990000D02*
X54610000Y46990000D01*
X71120000Y27940000D02*
X71120000Y40640000D01*
X53340000Y46990000D02*
X49530000Y43180000D01*
X67310000Y44450000D02*
X64770000Y46990000D01*
X66455000Y23275000D02*
X67310000Y24130000D01*
X17780000Y8890000D02*
X13970000Y12700000D01*
X12700000Y34420000D02*
X11430000Y35560000D01*
X17780000Y5080000D02*
X17780000Y8890000D01*
X8890000Y35560000D02*
X11430000Y35560000D01*
X7620000Y15240000D02*
X7620000Y34290000D01*
X7620000Y34290000D02*
X8890000Y35560000D01*
X10160000Y12700000D02*
X7620000Y15240000D01*
X13970000Y12700000D02*
X10160000Y12700000D01*
X55880000Y27940000D02*
X54315000Y27940000D01*
X22860000Y17780000D02*
X24130000Y17780000D01*
X25400000Y19050000D02*
X24130000Y17780000D01*
X25400000Y25400000D02*
X25400000Y19050000D01*
X13970000Y31750000D02*
X19050000Y26670000D01*
X12700000Y31680000D02*
X12700000Y31750000D01*
X19050000Y26670000D02*
X20320000Y26670000D01*
X24130000Y26670000D02*
X20320000Y26670000D01*
X13970000Y31750000D02*
X12700000Y31750000D01*
X24130000Y26670000D02*
X25400000Y25400000D01*
X13900000Y31680000D02*
X13970000Y31750000D01*
X55880000Y35560000D02*
X54315000Y35560000D01*
X55880000Y25400000D02*
X54315000Y25400000D01*
X34290000Y20320000D02*
X38100000Y24130000D01*
X38100000Y24130000D02*
X38100000Y26670000D01*
X33020000Y20320000D02*
X34290000Y20320000D01*
X40640000Y27940000D02*
X39370000Y27940000D01*
X38100000Y26670000D02*
X39370000Y27940000D01*
X55880000Y33020000D02*
X54315000Y33020000D01*
X39370000Y46990000D02*
X38100000Y45720000D01*
X25400000Y12700000D02*
X27940000Y15240000D01*
X27940000Y15240000D02*
X27940000Y29210000D01*
X38100000Y45720000D02*
X38100000Y44450000D01*
X36830000Y43180000D02*
X31750000Y43180000D01*
X31750000Y43180000D02*
X25400000Y36830000D01*
X25400000Y31750000D02*
X25400000Y36830000D01*
X55880000Y48260000D02*
X52070000Y48260000D01*
X50800000Y46990000D02*
X39370000Y46990000D01*
X38100000Y44450000D02*
X36830000Y43180000D01*
X22860000Y12700000D02*
X25400000Y12700000D01*
X27940000Y29210000D02*
X25400000Y31750000D01*
X52070000Y48260000D02*
X50800000Y46990000D01*
X17780000Y45720000D02*
X17780000Y44450000D01*
X17780000Y44450000D02*
X25400000Y36830000D01*
X68580000Y40640000D02*
X64770000Y44450000D01*
X67310000Y26670000D02*
X68580000Y27940000D01*
X68580000Y27940000D02*
X68580000Y40640000D01*
X53340000Y44450000D02*
X46990000Y38100000D01*
X58420000Y44450000D02*
X53340000Y44450000D01*
X66205000Y25565000D02*
X67310000Y26670000D01*
X64770000Y44450000D02*
X59690000Y44450000D01*
X59690000Y44450000D02*
X58420000Y44450000D01*
X40640000Y38100000D02*
X46990000Y38100000D01*
X60960000Y30145000D02*
X60025000Y30145000D01*
X57150000Y34290000D02*
X53340000Y34290000D01*
X58420000Y33020000D02*
X57150000Y34290000D01*
X59690000Y30480000D02*
X59690000Y31750000D01*
X52365000Y38100000D02*
X52365000Y35855000D01*
X52365000Y35560000D02*
X52365000Y35855000D01*
X52365000Y33020000D02*
X52365000Y33315000D01*
X53340000Y34290000D02*
X52365000Y33020000D01*
X60025000Y30145000D02*
X59690000Y30480000D01*
X59690000Y31750000D02*
X58420000Y33020000D01*
X52365000Y35855000D02*
X52365000Y33315000D01*
X20820000Y22090000D02*
X10660000Y22090000D01*
X20820000Y22090000D02*
X21590000Y22860000D01*
X22860000Y22860000D02*
X21590000Y22860000D01*
X10160000Y22090000D02*
X10660000Y22090000D01*
X55880000Y15240000D02*
X54610000Y15240000D01*
X54315000Y15240000D02*
X54610000Y15240000D01*
X55880000Y30480000D02*
X54315000Y30480000D01*
X57150000Y26670000D02*
X53340000Y26670000D01*
X52365000Y25400000D02*
X52365000Y25695000D01*
X52365000Y27940000D02*
X52365000Y28235000D01*
X58505000Y27855000D02*
X58335000Y27855000D01*
X52365000Y27940000D02*
X52365000Y25695000D01*
X58335000Y27855000D02*
X57150000Y26670000D01*
X58505000Y27855000D02*
X60875000Y27855000D01*
X53340000Y26670000D02*
X52365000Y25400000D01*
X52365000Y30480000D02*
X52365000Y28235000D01*
X60960000Y27855000D02*
X60875000Y27855000D01*
X35560000Y24130000D02*
X35560000Y29210000D01*
X40640000Y33020000D02*
X39370000Y33020000D01*
X33020000Y22860000D02*
X34290000Y22860000D01*
X35560000Y29210000D02*
X39370000Y33020000D01*
X34290000Y22860000D02*
X35560000Y24130000D01*
X22860000Y15240000D02*
X16510000Y15240000D01*
X13970000Y17780000D02*
X12700000Y17780000D01*
X13970000Y17780000D02*
X16510000Y15240000D01*
X12700000Y17980000D02*
X12700000Y17780000D01*
X33020000Y15240000D02*
X35560000Y15240000D01*
X40640000Y17780000D02*
X38100000Y17780000D01*
X35560000Y15240000D02*
X38100000Y17780000D01*
X31750000Y34290000D02*
X30480000Y33020000D01*
X30480000Y13970000D02*
X30480000Y22860000D01*
X31750000Y12700000D02*
X30480000Y13970000D01*
X41910000Y3810000D02*
X43180000Y5080000D01*
X45720000Y34290000D02*
X45720000Y34290000D01*
X41910000Y3810000D02*
X33020000Y12700000D01*
X30480000Y27940000D02*
X30480000Y33020000D01*
X45720000Y34290000D02*
X43180000Y34290000D01*
X53340000Y5080000D02*
X43180000Y5080000D01*
X43180000Y34290000D02*
X36830000Y34290000D01*
X55880000Y43180000D02*
X54610000Y43180000D01*
X54610000Y43180000D02*
X45720000Y34290000D01*
X33020000Y12700000D02*
X31750000Y12700000D01*
X54610000Y3810000D02*
X53340000Y5080000D01*
X34290000Y34290000D02*
X31750000Y34290000D01*
X36830000Y34290000D02*
X34290000Y34290000D01*
X30480000Y22860000D02*
X30480000Y27940000D01*
X55880000Y22860000D02*
X54315000Y22860000D01*
X55880000Y17780000D02*
X54610000Y17780000D01*
X54315000Y17780000D02*
X54610000Y17780000D01*
D17*
G36*
X74589327Y319500D02*
X74630000Y400000D01*
X74630000Y50400000D01*
X74610500Y50459327D01*
X74530000Y50500000D01*
X400000Y50500000D01*
X340673Y50480500D01*
X300000Y50400000D01*
X300000Y400000D01*
X319500Y340673D01*
X400000Y300000D01*
X11576435Y300000D01*
X11576435Y6170255D01*
X11313167Y6189084D01*
X11306111Y6190098D01*
X11048191Y6246205D01*
X11041365Y6248210D01*
X10794060Y6340450D01*
X10787576Y6343411D01*
X10555918Y6469906D01*
X10549921Y6473760D01*
X10338623Y6631935D01*
X10333240Y6636599D01*
X10146599Y6823240D01*
X10141935Y6828623D01*
X9983760Y7039921D01*
X9979906Y7045918D01*
X9853411Y7277576D01*
X9850450Y7284060D01*
X9758210Y7531365D01*
X9756205Y7538191D01*
X9700098Y7796111D01*
X9699084Y7803167D01*
X9680255Y8066435D01*
X9680255Y8073565D01*
X9699084Y8336832D01*
X9700098Y8343888D01*
X9756205Y8601808D01*
X9758210Y8608634D01*
X9850450Y8855939D01*
X9853411Y8862423D01*
X9979906Y9094081D01*
X9983760Y9100078D01*
X10141935Y9311376D01*
X10146599Y9316759D01*
X10333240Y9503400D01*
X10338623Y9508064D01*
X10549921Y9666239D01*
X10555918Y9670093D01*
X10787576Y9796588D01*
X10794060Y9799549D01*
X11041365Y9891789D01*
X11048191Y9893794D01*
X11306111Y9949901D01*
X11313167Y9950915D01*
X11576434Y9969744D01*
X11583564Y9969744D01*
X11846832Y9950915D01*
X11853888Y9949901D01*
X12111808Y9893794D01*
X12118634Y9891789D01*
X12365939Y9799549D01*
X12372423Y9796588D01*
X12604081Y9670093D01*
X12610078Y9666239D01*
X12821376Y9508064D01*
X12826759Y9503400D01*
X13013400Y9316759D01*
X13018064Y9311376D01*
X13176239Y9100078D01*
X13180093Y9094081D01*
X13306588Y8862423D01*
X13309549Y8855939D01*
X13401789Y8608634D01*
X13403794Y8601808D01*
X13459901Y8343888D01*
X13460915Y8336832D01*
X13479745Y8073565D01*
X13479745Y8066435D01*
X13460915Y7803167D01*
X13459901Y7796111D01*
X13403794Y7538191D01*
X13401789Y7531365D01*
X13309549Y7284060D01*
X13306588Y7277576D01*
X13180093Y7045918D01*
X13176239Y7039921D01*
X13018064Y6828623D01*
X13013400Y6823240D01*
X12826759Y6636599D01*
X12821376Y6631935D01*
X12610078Y6473760D01*
X12604081Y6469906D01*
X12372423Y6343411D01*
X12365939Y6340450D01*
X12118634Y6248210D01*
X12111808Y6246205D01*
X11853888Y6190098D01*
X11846832Y6189084D01*
X11583565Y6170255D01*
X11576435Y6170255D01*
X11576435Y300000D01*
X17776086Y300000D01*
X17776086Y3530308D01*
X17541435Y3548775D01*
X17533711Y3549999D01*
X17304846Y3604944D01*
X17297391Y3607367D01*
X17079943Y3697436D01*
X17072966Y3700991D01*
X16872283Y3823969D01*
X16865941Y3828577D01*
X16686979Y3981426D01*
X16681426Y3986979D01*
X16528577Y4165941D01*
X16523969Y4172283D01*
X16400991Y4372966D01*
X16397436Y4379943D01*
X16307367Y4597391D01*
X16304944Y4604846D01*
X16249999Y4833711D01*
X16248775Y4841435D01*
X16230308Y5076086D01*
X16230308Y5083914D01*
X16248775Y5318564D01*
X16249999Y5326288D01*
X16304944Y5555153D01*
X16307367Y5562608D01*
X16397436Y5780056D01*
X16400991Y5787033D01*
X16523969Y5987716D01*
X16528577Y5994058D01*
X16681426Y6173020D01*
X16686979Y6178573D01*
X16865941Y6331422D01*
X16872283Y6336030D01*
X17072966Y6459008D01*
X17079943Y6462563D01*
X17168268Y6499148D01*
X17215617Y6539867D01*
X17230000Y6591536D01*
X17230000Y8620760D01*
X17200711Y8691471D01*
X13771471Y12120711D01*
X13700760Y12150000D01*
X10163270Y12150000D01*
X10156761Y12150426D01*
X10024141Y12167885D01*
X10011599Y12171246D01*
X9891052Y12221179D01*
X9879801Y12227675D01*
X9776512Y12306931D01*
X9772133Y12311359D01*
X9769449Y12312734D01*
X7232009Y14850174D01*
X7231359Y14852133D01*
X7226931Y14856512D01*
X7181635Y14915543D01*
X7147678Y14959797D01*
X7141177Y14971057D01*
X7127594Y15003850D01*
X7127592Y15003852D01*
X7127593Y15003852D01*
X7091246Y15091600D01*
X7087885Y15104141D01*
X7070426Y15236761D01*
X7070000Y15243270D01*
X7070000Y34286730D01*
X7070426Y34293239D01*
X7087652Y34424087D01*
X7092825Y34440971D01*
X7092801Y34442154D01*
X7141177Y34558944D01*
X7147678Y34570203D01*
X7229098Y34676311D01*
X7233404Y34681222D01*
X8498778Y35946596D01*
X8503689Y35950902D01*
X8609796Y36032321D01*
X8621054Y36038821D01*
X8692702Y36068498D01*
X8692704Y36068499D01*
X8741595Y36088751D01*
X8754146Y36092114D01*
X8886744Y36109571D01*
X8893281Y36110000D01*
X11426730Y36110000D01*
X11433241Y36109573D01*
X11483959Y36102897D01*
X11489315Y36102338D01*
X11536998Y36098658D01*
X11556124Y36094623D01*
X11556132Y36094663D01*
X11559530Y36093850D01*
X11559520Y36093812D01*
X11576435Y36089279D01*
X11576435Y39490255D01*
X11313167Y39509084D01*
X11306111Y39510098D01*
X11048191Y39566205D01*
X11041365Y39568210D01*
X10794060Y39660450D01*
X10787576Y39663411D01*
X10555918Y39789906D01*
X10549921Y39793760D01*
X10338623Y39951935D01*
X10333240Y39956599D01*
X10146599Y40143240D01*
X10141935Y40148623D01*
X9983760Y40359921D01*
X9979906Y40365918D01*
X9853411Y40597576D01*
X9850450Y40604060D01*
X9758210Y40851365D01*
X9756205Y40858191D01*
X9700098Y41116111D01*
X9699084Y41123167D01*
X9680255Y41386435D01*
X9680255Y41393565D01*
X9699084Y41656832D01*
X9700098Y41663888D01*
X9756205Y41921808D01*
X9758210Y41928634D01*
X9850450Y42175939D01*
X9853411Y42182423D01*
X9979906Y42414081D01*
X9983760Y42420078D01*
X10141935Y42631376D01*
X10146599Y42636759D01*
X10333240Y42823400D01*
X10338623Y42828064D01*
X10549921Y42986239D01*
X10555918Y42990093D01*
X10787576Y43116588D01*
X10794060Y43119549D01*
X11041365Y43211789D01*
X11048191Y43213794D01*
X11306111Y43269901D01*
X11313167Y43270915D01*
X11576434Y43289744D01*
X11583564Y43289744D01*
X11846832Y43270915D01*
X11853888Y43269901D01*
X12111808Y43213794D01*
X12118634Y43211789D01*
X12365939Y43119549D01*
X12372423Y43116588D01*
X12604081Y42990093D01*
X12610078Y42986239D01*
X12821376Y42828064D01*
X12826759Y42823400D01*
X13013400Y42636759D01*
X13018064Y42631376D01*
X13176239Y42420078D01*
X13180093Y42414081D01*
X13306588Y42182423D01*
X13309549Y42175939D01*
X13401789Y41928634D01*
X13403794Y41921808D01*
X13459901Y41663888D01*
X13460915Y41656832D01*
X13479745Y41393565D01*
X13479745Y41386435D01*
X13460915Y41123167D01*
X13459901Y41116111D01*
X13403794Y40858191D01*
X13401789Y40851365D01*
X13309549Y40604060D01*
X13306588Y40597576D01*
X13180093Y40365918D01*
X13176239Y40359921D01*
X13018064Y40148623D01*
X13013400Y40143240D01*
X12826759Y39956599D01*
X12821376Y39951935D01*
X12610078Y39793760D01*
X12604081Y39789906D01*
X12372423Y39663411D01*
X12365939Y39660450D01*
X12118634Y39568210D01*
X12111808Y39566205D01*
X11853888Y39510098D01*
X11846832Y39509084D01*
X11583565Y39490255D01*
X11576435Y39490255D01*
X11576435Y36089279D01*
X11578400Y36088753D01*
X11622630Y36070432D01*
X11627662Y36068505D01*
X11672763Y36052611D01*
X11690197Y36043762D01*
X11690215Y36043797D01*
X11693291Y36042130D01*
X11693271Y36042096D01*
X11710203Y36032321D01*
X11748151Y36003202D01*
X11752514Y36000037D01*
X11794692Y35971144D01*
X11799833Y35967104D01*
X12455489Y35378563D01*
X12532090Y35353462D01*
X12695106Y35369518D01*
X12704894Y35369518D01*
X12880442Y35352228D01*
X12890037Y35350320D01*
X13058846Y35299112D01*
X13067884Y35295368D01*
X13223461Y35212211D01*
X13231588Y35206780D01*
X13367948Y35094872D01*
X13374872Y35087948D01*
X13486780Y34951588D01*
X13492211Y34943461D01*
X13575368Y34787884D01*
X13579112Y34778846D01*
X13630320Y34610037D01*
X13632228Y34600442D01*
X13649518Y34424894D01*
X13649518Y34415106D01*
X13632228Y34239557D01*
X13630320Y34229962D01*
X13579112Y34061153D01*
X13575368Y34052115D01*
X13492211Y33896538D01*
X13486780Y33888411D01*
X13374872Y33752051D01*
X13367948Y33745127D01*
X13231588Y33633219D01*
X13223461Y33627788D01*
X13067884Y33544631D01*
X13058846Y33540887D01*
X12890033Y33489678D01*
X12880451Y33487772D01*
X12704884Y33470481D01*
X12695116Y33470481D01*
X12519548Y33487772D01*
X12509966Y33489678D01*
X12341153Y33540887D01*
X12332115Y33544631D01*
X12176538Y33627788D01*
X12168411Y33633219D01*
X12032051Y33745127D01*
X12025127Y33752051D01*
X11913219Y33888411D01*
X11907788Y33896538D01*
X11824631Y34052115D01*
X11820887Y34061153D01*
X11769678Y34229966D01*
X11767772Y34239548D01*
X11750481Y34415116D01*
X11750481Y34424884D01*
X11755323Y34474050D01*
X11722603Y34558268D01*
X11247858Y34984417D01*
X11181059Y35010000D01*
X9159240Y35010000D01*
X9088529Y34980711D01*
X8199289Y34091471D01*
X8170000Y34020760D01*
X8170000Y15509239D01*
X8199289Y15438528D01*
X10155116Y13482701D01*
X10155116Y15660481D01*
X9979548Y15677772D01*
X9969966Y15679678D01*
X9801153Y15730887D01*
X9792115Y15734631D01*
X9636538Y15817788D01*
X9628411Y15823219D01*
X9492051Y15935127D01*
X9485127Y15942051D01*
X9373219Y16078411D01*
X9367788Y16086538D01*
X9284631Y16242115D01*
X9280887Y16251153D01*
X9229678Y16419966D01*
X9227772Y16429548D01*
X9210481Y16605116D01*
X9210481Y16614884D01*
X9227772Y16790451D01*
X9229678Y16800033D01*
X9280887Y16968846D01*
X9284631Y16977884D01*
X9367788Y17133461D01*
X9373219Y17141588D01*
X9485127Y17277948D01*
X9492051Y17284872D01*
X9628411Y17396780D01*
X9636538Y17402211D01*
X9792115Y17485368D01*
X9801153Y17489112D01*
X9969962Y17540320D01*
X9979557Y17542228D01*
X10155106Y17559518D01*
X10164894Y17559518D01*
X10340442Y17542228D01*
X10350037Y17540320D01*
X10518846Y17489112D01*
X10527884Y17485368D01*
X10683461Y17402211D01*
X10691588Y17396780D01*
X10827948Y17284872D01*
X10834872Y17277948D01*
X10946780Y17141588D01*
X10952211Y17133461D01*
X11035368Y16977884D01*
X11039112Y16968846D01*
X11090320Y16800037D01*
X11092228Y16790442D01*
X11109518Y16614894D01*
X11109518Y16605106D01*
X11092228Y16429557D01*
X11090320Y16419962D01*
X11039112Y16251153D01*
X11035368Y16242115D01*
X10952211Y16086538D01*
X10946780Y16078411D01*
X10834872Y15942051D01*
X10827948Y15935127D01*
X10691588Y15823219D01*
X10683461Y15817788D01*
X10527884Y15734631D01*
X10518846Y15730887D01*
X10350033Y15679678D01*
X10340451Y15677772D01*
X10164884Y15660481D01*
X10155116Y15660481D01*
X10155116Y13482701D01*
X10358528Y13279289D01*
X10429239Y13250000D01*
X12695116Y13250000D01*
X12695116Y14290481D01*
X12519548Y14307772D01*
X12509966Y14309678D01*
X12341153Y14360887D01*
X12332115Y14364631D01*
X12176538Y14447788D01*
X12168411Y14453219D01*
X12032051Y14565127D01*
X12025127Y14572051D01*
X11913219Y14708411D01*
X11907788Y14716538D01*
X11824631Y14872115D01*
X11820887Y14881153D01*
X11769678Y15049966D01*
X11767772Y15059548D01*
X11750481Y15235116D01*
X11750481Y15244884D01*
X11767772Y15420451D01*
X11769678Y15430033D01*
X11820887Y15598846D01*
X11824631Y15607884D01*
X11907788Y15763461D01*
X11913219Y15771588D01*
X12025127Y15907948D01*
X12032051Y15914872D01*
X12168411Y16026780D01*
X12176538Y16032211D01*
X12332115Y16115368D01*
X12341153Y16119112D01*
X12509962Y16170320D01*
X12519557Y16172228D01*
X12695106Y16189518D01*
X12704894Y16189518D01*
X12880442Y16172228D01*
X12890037Y16170320D01*
X13058846Y16119112D01*
X13067884Y16115368D01*
X13223461Y16032211D01*
X13231588Y16026780D01*
X13367948Y15914872D01*
X13374872Y15907948D01*
X13486780Y15771588D01*
X13492211Y15763461D01*
X13575368Y15607884D01*
X13579112Y15598846D01*
X13630320Y15430037D01*
X13632228Y15420442D01*
X13649518Y15244894D01*
X13649518Y15235106D01*
X13632228Y15059557D01*
X13630320Y15049962D01*
X13579112Y14881153D01*
X13575368Y14872115D01*
X13492211Y14716538D01*
X13486780Y14708411D01*
X13374872Y14572051D01*
X13367948Y14565127D01*
X13231588Y14453219D01*
X13223461Y14447788D01*
X13067884Y14364631D01*
X13058846Y14360887D01*
X12890033Y14309678D01*
X12880451Y14307772D01*
X12704884Y14290481D01*
X12695116Y14290481D01*
X12695116Y13250000D01*
X13966719Y13250000D01*
X13973256Y13249571D01*
X14105853Y13232114D01*
X14118404Y13228751D01*
X14167295Y13208499D01*
X14167297Y13208498D01*
X14238945Y13178821D01*
X14250203Y13172321D01*
X14356311Y13090902D01*
X14361222Y13086596D01*
X18166596Y9281222D01*
X18170902Y9276311D01*
X18252321Y9170203D01*
X18258822Y9158944D01*
X18307291Y9041929D01*
X18307173Y9040973D01*
X18312348Y9024082D01*
X18329571Y8893256D01*
X18330000Y8886719D01*
X18330000Y6591536D01*
X18349500Y6532209D01*
X18391732Y6499148D01*
X18480056Y6462563D01*
X18487033Y6459008D01*
X18687716Y6336030D01*
X18694058Y6331422D01*
X18873020Y6178573D01*
X18878573Y6173020D01*
X19031422Y5994058D01*
X19036030Y5987716D01*
X19159008Y5787033D01*
X19162563Y5780056D01*
X19252632Y5562608D01*
X19255055Y5555153D01*
X19310000Y5326288D01*
X19311224Y5318564D01*
X19329692Y5083913D01*
X19329692Y5076087D01*
X19311224Y4841435D01*
X19310000Y4833711D01*
X19255055Y4604846D01*
X19252632Y4597391D01*
X19162563Y4379943D01*
X19159008Y4372966D01*
X19036030Y4172283D01*
X19031422Y4165941D01*
X18878573Y3986979D01*
X18873020Y3981426D01*
X18694058Y3828577D01*
X18687716Y3823969D01*
X18487033Y3700991D01*
X18480056Y3697436D01*
X18262608Y3607367D01*
X18255153Y3604944D01*
X18026288Y3549999D01*
X18018564Y3548775D01*
X17783914Y3530308D01*
X17776086Y3530308D01*
X17776086Y300000D01*
X41906086Y300000D01*
X41906086Y2260308D01*
X41671435Y2278775D01*
X41663711Y2279999D01*
X41434846Y2334944D01*
X41427391Y2337367D01*
X41209943Y2427436D01*
X41202966Y2430991D01*
X41002283Y2553969D01*
X40995941Y2558577D01*
X40816979Y2711426D01*
X40811426Y2716979D01*
X40658577Y2895941D01*
X40653969Y2902283D01*
X40530991Y3102966D01*
X40527436Y3109943D01*
X40437367Y3327391D01*
X40434944Y3334846D01*
X40379999Y3563711D01*
X40378775Y3571435D01*
X40360308Y3806086D01*
X40360308Y3813914D01*
X40378775Y4048564D01*
X40379999Y4056288D01*
X40434944Y4285153D01*
X40437365Y4292603D01*
X40473951Y4380929D01*
X40478639Y4443203D01*
X40452274Y4489909D01*
X33321472Y11620711D01*
X33250761Y11650000D01*
X32772311Y11650000D01*
X32767695Y11650214D01*
X32581668Y11667451D01*
X32572619Y11669143D01*
X32395137Y11719640D01*
X32386563Y11722962D01*
X32221382Y11805212D01*
X32213558Y11810056D01*
X32066313Y11921251D01*
X32059503Y11927459D01*
X31935195Y12063818D01*
X31929647Y12071164D01*
X31910156Y12102643D01*
X31862344Y12142819D01*
X31825134Y12150000D01*
X31753269Y12150000D01*
X31746760Y12150426D01*
X31731259Y12152467D01*
X31614148Y12167884D01*
X31601591Y12171250D01*
X31552704Y12191500D01*
X31552702Y12191501D01*
X31481052Y12221179D01*
X31469800Y12227675D01*
X31376087Y12299585D01*
X31364225Y12308688D01*
X31363879Y12309435D01*
X31357599Y12314583D01*
X30093406Y13578776D01*
X30089099Y13583688D01*
X30007675Y13689799D01*
X30001178Y13701053D01*
X29980904Y13749999D01*
X29980904Y13750000D01*
X29951246Y13821600D01*
X29947885Y13834141D01*
X29930426Y13966761D01*
X29930000Y13973270D01*
X29930000Y33016730D01*
X29930426Y33023239D01*
X29947884Y33155851D01*
X29951250Y33168408D01*
X29971499Y33217292D01*
X29971500Y33217295D01*
X30001177Y33288943D01*
X30007677Y33300203D01*
X30089098Y33406311D01*
X30093404Y33411222D01*
X31358778Y34676596D01*
X31363689Y34680902D01*
X31469796Y34762321D01*
X31481055Y34768822D01*
X31551691Y34798080D01*
X31601592Y34818750D01*
X31614151Y34822115D01*
X31746744Y34839571D01*
X31753281Y34840000D01*
X31806559Y34840000D01*
X31865886Y34859500D01*
X31902076Y34910395D01*
X31891581Y34992643D01*
X31832510Y35088046D01*
X31828408Y35096284D01*
X31761756Y35268336D01*
X31759232Y35277204D01*
X31725328Y35458574D01*
X31724479Y35467739D01*
X31724479Y35652260D01*
X31725328Y35661425D01*
X31759232Y35842795D01*
X31761756Y35851663D01*
X31828408Y36023715D01*
X31832510Y36031953D01*
X31929647Y36188835D01*
X31935195Y36196181D01*
X32059503Y36332540D01*
X32066313Y36338748D01*
X32213559Y36449943D01*
X32221382Y36454787D01*
X32386558Y36537034D01*
X32395143Y36540361D01*
X32397369Y36540994D01*
X32398161Y36541530D01*
X32399457Y36542032D01*
X32399342Y36542329D01*
X32449094Y36575987D01*
X32470000Y36637176D01*
X32470000Y38890000D01*
X32450500Y38949327D01*
X32370000Y38990000D01*
X32111013Y38990000D01*
X32106248Y38991566D01*
X32095000Y39013828D01*
X32095000Y40323987D01*
X32096566Y40328752D01*
X32118828Y40340000D01*
X33928987Y40340000D01*
X33933752Y40338434D01*
X33945000Y40316172D01*
X33945000Y39006013D01*
X33943434Y39001248D01*
X33921172Y38990000D01*
X33670000Y38990000D01*
X33610673Y38970500D01*
X33570000Y38890000D01*
X33570000Y36637175D01*
X33589500Y36577848D01*
X33640674Y36542351D01*
X33640549Y36542029D01*
X33641882Y36541513D01*
X33642631Y36540993D01*
X33644863Y36540358D01*
X33653436Y36537037D01*
X33818617Y36454787D01*
X33826441Y36449943D01*
X33973686Y36338748D01*
X33980496Y36332540D01*
X34104804Y36196181D01*
X34110352Y36188835D01*
X34207489Y36031953D01*
X34211591Y36023715D01*
X34278243Y35851663D01*
X34280767Y35842795D01*
X34314671Y35661425D01*
X34315520Y35652260D01*
X34315520Y35467739D01*
X34314671Y35458574D01*
X34280767Y35277204D01*
X34278243Y35268336D01*
X34211591Y35096284D01*
X34207489Y35088046D01*
X34148418Y34992643D01*
X34133766Y34931936D01*
X34157986Y34874375D01*
X34233440Y34840000D01*
X39426559Y34840000D01*
X39485886Y34859500D01*
X39522076Y34910395D01*
X39511581Y34992643D01*
X39452510Y35088046D01*
X39448408Y35096284D01*
X39381756Y35268336D01*
X39379232Y35277204D01*
X39345328Y35458574D01*
X39344479Y35467739D01*
X39344479Y35652260D01*
X39345328Y35661425D01*
X39379232Y35842795D01*
X39381756Y35851663D01*
X39448408Y36023715D01*
X39452510Y36031953D01*
X39549647Y36188835D01*
X39555195Y36196181D01*
X39679503Y36332540D01*
X39686313Y36338748D01*
X39833559Y36449943D01*
X39841382Y36454787D01*
X40006558Y36537034D01*
X40015140Y36540359D01*
X40192618Y36590856D01*
X40201667Y36592548D01*
X40387695Y36609786D01*
X40392311Y36610000D01*
X40887689Y36610000D01*
X40892305Y36609786D01*
X41078331Y36592548D01*
X41087380Y36590856D01*
X41264862Y36540359D01*
X41273436Y36537037D01*
X41438617Y36454787D01*
X41446441Y36449943D01*
X41593686Y36338748D01*
X41600496Y36332540D01*
X41724804Y36196181D01*
X41730352Y36188835D01*
X41827489Y36031953D01*
X41831591Y36023715D01*
X41898243Y35851663D01*
X41900767Y35842795D01*
X41934671Y35661425D01*
X41935520Y35652260D01*
X41935520Y35467739D01*
X41934671Y35458574D01*
X41900767Y35277204D01*
X41898243Y35268336D01*
X41831591Y35096284D01*
X41827489Y35088046D01*
X41768418Y34992643D01*
X41753766Y34931936D01*
X41777986Y34874375D01*
X41853440Y34840000D01*
X45450761Y34840000D01*
X45521472Y34869289D01*
X54218779Y43566596D01*
X54223690Y43570902D01*
X54329797Y43652321D01*
X54341056Y43658822D01*
X54389944Y43679072D01*
X54458844Y43707612D01*
X54506193Y43748331D01*
X54520152Y43809201D01*
X54495275Y43866483D01*
X54420576Y43900000D01*
X53609239Y43900000D01*
X53538528Y43870711D01*
X47381221Y37713404D01*
X47376310Y37709098D01*
X47270202Y37627677D01*
X47258942Y37621177D01*
X47226149Y37607594D01*
X47226147Y37607592D01*
X47226147Y37607593D01*
X47138399Y37571246D01*
X47125858Y37567885D01*
X46993239Y37550426D01*
X46986730Y37550000D01*
X41834865Y37550000D01*
X41775538Y37530500D01*
X41749843Y37502643D01*
X41730352Y37471164D01*
X41724804Y37463818D01*
X41600496Y37327459D01*
X41593686Y37321251D01*
X41446440Y37210056D01*
X41438617Y37205212D01*
X41273441Y37122965D01*
X41264859Y37119640D01*
X41087381Y37069143D01*
X41078332Y37067451D01*
X40892305Y37050214D01*
X40887689Y37050000D01*
X40392311Y37050000D01*
X40387695Y37050214D01*
X40201668Y37067451D01*
X40192619Y37069143D01*
X40015137Y37119640D01*
X40006563Y37122962D01*
X39841382Y37205212D01*
X39833558Y37210056D01*
X39686313Y37321251D01*
X39679503Y37327459D01*
X39555195Y37463818D01*
X39549647Y37471164D01*
X39452510Y37628046D01*
X39448408Y37636284D01*
X39381756Y37808336D01*
X39379232Y37817204D01*
X39345328Y37998574D01*
X39344479Y38007739D01*
X39344479Y38192260D01*
X39345328Y38201425D01*
X39379232Y38382795D01*
X39381756Y38391663D01*
X39448408Y38563715D01*
X39452510Y38571953D01*
X39549647Y38728835D01*
X39555195Y38736181D01*
X39679503Y38872540D01*
X39686313Y38878748D01*
X39833559Y38989943D01*
X39841382Y38994787D01*
X40006558Y39077034D01*
X40015140Y39080359D01*
X40192618Y39130856D01*
X40201667Y39132548D01*
X40387695Y39149786D01*
X40392311Y39150000D01*
X40392311Y39150000D01*
X40392311Y39590000D01*
X40387695Y39590214D01*
X40201668Y39607451D01*
X40192619Y39609143D01*
X40015137Y39659640D01*
X40006563Y39662962D01*
X39841382Y39745212D01*
X39833558Y39750056D01*
X39686313Y39861251D01*
X39679503Y39867459D01*
X39555195Y40003818D01*
X39549647Y40011164D01*
X39452510Y40168046D01*
X39448408Y40176284D01*
X39381756Y40348336D01*
X39379232Y40357204D01*
X39345328Y40538574D01*
X39344479Y40547739D01*
X39344479Y40732260D01*
X39345328Y40741425D01*
X39379232Y40922795D01*
X39381756Y40931663D01*
X39448408Y41103715D01*
X39452510Y41111953D01*
X39549647Y41268835D01*
X39555195Y41276181D01*
X39679503Y41412540D01*
X39686313Y41418748D01*
X39833559Y41529943D01*
X39841382Y41534787D01*
X40006558Y41617034D01*
X40015140Y41620359D01*
X40192618Y41670856D01*
X40201667Y41672548D01*
X40387695Y41689786D01*
X40392311Y41690000D01*
X40887689Y41690000D01*
X40892305Y41689786D01*
X41078331Y41672548D01*
X41087380Y41670856D01*
X41264862Y41620359D01*
X41273436Y41617037D01*
X41438617Y41534787D01*
X41446441Y41529943D01*
X41593686Y41418748D01*
X41600496Y41412540D01*
X41724804Y41276181D01*
X41730352Y41268835D01*
X41827489Y41111953D01*
X41831591Y41103715D01*
X41898243Y40931663D01*
X41900767Y40922795D01*
X41934671Y40741425D01*
X41935520Y40732260D01*
X41935520Y40547739D01*
X41934671Y40538574D01*
X41900767Y40357204D01*
X41898243Y40348336D01*
X41831591Y40176284D01*
X41827489Y40168046D01*
X41730352Y40011164D01*
X41724804Y40003818D01*
X41600496Y39867459D01*
X41593686Y39861251D01*
X41446440Y39750056D01*
X41438617Y39745212D01*
X41273441Y39662965D01*
X41264859Y39659640D01*
X41087381Y39609143D01*
X41078332Y39607451D01*
X40892305Y39590214D01*
X40887689Y39590000D01*
X40392311Y39590000D01*
X40392311Y39150000D01*
X40887689Y39150000D01*
X40892305Y39149786D01*
X41078331Y39132548D01*
X41087380Y39130856D01*
X41264862Y39080359D01*
X41273436Y39077037D01*
X41438617Y38994787D01*
X41446441Y38989943D01*
X41593686Y38878748D01*
X41600496Y38872540D01*
X41724804Y38736181D01*
X41730352Y38728836D01*
X41749842Y38697357D01*
X41797653Y38657181D01*
X41834864Y38650000D01*
X46720761Y38650000D01*
X46791472Y38679289D01*
X52948779Y44836596D01*
X52953690Y44840902D01*
X53059797Y44922321D01*
X53071056Y44928822D01*
X53107796Y44944040D01*
X53191592Y44978750D01*
X53204151Y44982115D01*
X53336744Y44999571D01*
X53343281Y45000000D01*
X64766719Y45000000D01*
X64773256Y44999571D01*
X64905853Y44982114D01*
X64918404Y44978751D01*
X64967295Y44958499D01*
X64967297Y44958498D01*
X65038945Y44928821D01*
X65050203Y44922321D01*
X65156311Y44840902D01*
X65161222Y44836596D01*
X68966596Y41031222D01*
X68970902Y41026311D01*
X69052321Y40920203D01*
X69058821Y40908945D01*
X69088498Y40837297D01*
X69088499Y40837295D01*
X69108751Y40788404D01*
X69112114Y40775853D01*
X69129571Y40643256D01*
X69130000Y40636719D01*
X69130000Y27943281D01*
X69129571Y27936744D01*
X69112114Y27804146D01*
X69108751Y27791595D01*
X69088499Y27742704D01*
X69088498Y27742702D01*
X69058821Y27671054D01*
X69052321Y27659796D01*
X68970902Y27553689D01*
X68966596Y27548778D01*
X67016084Y25598266D01*
X66987277Y25537356D01*
X66972228Y25384557D01*
X66970320Y25374962D01*
X66919112Y25206153D01*
X66915368Y25197115D01*
X66832211Y25041538D01*
X66826780Y25033411D01*
X66714872Y24897051D01*
X66707948Y24890127D01*
X66571588Y24778219D01*
X66563461Y24772788D01*
X66407884Y24689631D01*
X66398846Y24685887D01*
X66230033Y24634678D01*
X66220451Y24632772D01*
X66044884Y24615481D01*
X66035116Y24615481D01*
X65859548Y24632772D01*
X65849966Y24634678D01*
X65681153Y24685887D01*
X65672115Y24689631D01*
X65516538Y24772788D01*
X65508411Y24778219D01*
X65483439Y24798713D01*
X65425208Y24821276D01*
X65364945Y24804892D01*
X65326154Y24755951D01*
X65320000Y24721412D01*
X65320000Y24118587D01*
X65339500Y24059260D01*
X65390395Y24023070D01*
X65452836Y24024132D01*
X65483439Y24041286D01*
X65508411Y24061780D01*
X65516538Y24067211D01*
X65672115Y24150368D01*
X65681153Y24154112D01*
X65849962Y24205320D01*
X65859557Y24207228D01*
X66035106Y24224518D01*
X66044894Y24224518D01*
X66220442Y24207228D01*
X66230037Y24205320D01*
X66398847Y24154111D01*
X66407877Y24150371D01*
X66436752Y24134937D01*
X66498267Y24124169D01*
X66554602Y24152419D01*
X66921089Y24518906D01*
X66921092Y24518910D01*
X70540711Y28138529D01*
X70570000Y28209240D01*
X70570000Y40370760D01*
X70540711Y40441471D01*
X66921092Y44061090D01*
X66921090Y44061093D01*
X64571472Y46410711D01*
X64500761Y46440000D01*
X53609240Y46440000D01*
X53538529Y46410711D01*
X49921222Y42793404D01*
X49916311Y42789098D01*
X49810203Y42707677D01*
X49798945Y42701178D01*
X49727297Y42671501D01*
X49727295Y42671500D01*
X49678408Y42651250D01*
X49665851Y42647884D01*
X49548741Y42632467D01*
X49533240Y42630426D01*
X49526731Y42630000D01*
X41834865Y42630000D01*
X41775538Y42610500D01*
X41749843Y42582643D01*
X41730352Y42551164D01*
X41724804Y42543818D01*
X41600496Y42407459D01*
X41593686Y42401251D01*
X41446440Y42290056D01*
X41438617Y42285212D01*
X41273441Y42202965D01*
X41264859Y42199640D01*
X41087381Y42149143D01*
X41078332Y42147451D01*
X40892305Y42130214D01*
X40887689Y42130000D01*
X40392311Y42130000D01*
X40387695Y42130214D01*
X40201668Y42147451D01*
X40192619Y42149143D01*
X40015137Y42199640D01*
X40006563Y42202962D01*
X39841382Y42285212D01*
X39833558Y42290056D01*
X39686313Y42401251D01*
X39679503Y42407459D01*
X39555195Y42543818D01*
X39549647Y42551164D01*
X39452510Y42708046D01*
X39448408Y42716284D01*
X39381756Y42888336D01*
X39379232Y42897204D01*
X39345328Y43078574D01*
X39344479Y43087739D01*
X39344479Y43272260D01*
X39345328Y43281425D01*
X39379232Y43462795D01*
X39381756Y43471663D01*
X39448408Y43643715D01*
X39452510Y43651953D01*
X39549647Y43808835D01*
X39555195Y43816181D01*
X39679503Y43952540D01*
X39686313Y43958748D01*
X39833559Y44069943D01*
X39841382Y44074787D01*
X40006558Y44157034D01*
X40015140Y44160359D01*
X40192618Y44210856D01*
X40201667Y44212548D01*
X40387695Y44229786D01*
X40392311Y44230000D01*
X40887689Y44230000D01*
X40892305Y44229786D01*
X41078331Y44212548D01*
X41087380Y44210856D01*
X41264862Y44160359D01*
X41273436Y44157037D01*
X41438617Y44074787D01*
X41446441Y44069943D01*
X41593686Y43958748D01*
X41600496Y43952540D01*
X41724804Y43816181D01*
X41730352Y43808836D01*
X41749842Y43777357D01*
X41797653Y43737181D01*
X41834864Y43730000D01*
X49260760Y43730000D01*
X49331471Y43759289D01*
X52948778Y47376596D01*
X52953689Y47380902D01*
X53059796Y47462321D01*
X53071054Y47468821D01*
X53142702Y47498498D01*
X53142704Y47498499D01*
X53188847Y47517613D01*
X53236195Y47558333D01*
X53250153Y47619203D01*
X53225275Y47676484D01*
X53150577Y47710000D01*
X52339240Y47710000D01*
X52268529Y47680711D01*
X51191222Y46603404D01*
X51186311Y46599098D01*
X51080203Y46517677D01*
X51068945Y46511178D01*
X50997297Y46481501D01*
X50997295Y46481500D01*
X50948408Y46461250D01*
X50935851Y46457884D01*
X50818741Y46442467D01*
X50803240Y46440426D01*
X50796731Y46440000D01*
X41853439Y46440000D01*
X41794112Y46420500D01*
X41757922Y46369605D01*
X41768417Y46287357D01*
X41827489Y46191953D01*
X41831591Y46183715D01*
X41898243Y46011663D01*
X41900767Y46002795D01*
X41934671Y45821425D01*
X41935520Y45812260D01*
X41935520Y45627739D01*
X41934671Y45618574D01*
X41900767Y45437204D01*
X41898243Y45428336D01*
X41831591Y45256284D01*
X41827489Y45248046D01*
X41730352Y45091164D01*
X41724804Y45083818D01*
X41600496Y44947459D01*
X41593686Y44941251D01*
X41446440Y44830056D01*
X41438617Y44825212D01*
X41273441Y44742965D01*
X41264859Y44739640D01*
X41087381Y44689143D01*
X41078332Y44687451D01*
X40892305Y44670214D01*
X40887689Y44670000D01*
X40392311Y44670000D01*
X40387695Y44670214D01*
X40201668Y44687451D01*
X40192619Y44689143D01*
X40015137Y44739640D01*
X40006563Y44742962D01*
X39841382Y44825212D01*
X39833558Y44830056D01*
X39686313Y44941251D01*
X39679503Y44947459D01*
X39555195Y45083818D01*
X39549647Y45091164D01*
X39452510Y45248046D01*
X39448408Y45256284D01*
X39381756Y45428336D01*
X39379232Y45437204D01*
X39345328Y45618574D01*
X39344479Y45627739D01*
X39344479Y45812260D01*
X39345328Y45821425D01*
X39370157Y45954245D01*
X39361891Y46016145D01*
X39318512Y46061071D01*
X39256939Y46071501D01*
X39201149Y46043331D01*
X38679289Y45521471D01*
X38650000Y45450760D01*
X38650000Y44453281D01*
X38649571Y44446744D01*
X38632115Y44314148D01*
X38628751Y44301595D01*
X38599095Y44230000D01*
X38599095Y44229999D01*
X38578822Y44181055D01*
X38572321Y44169796D01*
X38490902Y44063689D01*
X38486596Y44058778D01*
X37221222Y42793404D01*
X37216311Y42789098D01*
X37110203Y42707677D01*
X37098945Y42701178D01*
X37027297Y42671501D01*
X37027295Y42671500D01*
X36978408Y42651250D01*
X36965851Y42647884D01*
X36848741Y42632467D01*
X36833240Y42630426D01*
X36826731Y42630000D01*
X32019239Y42630000D01*
X31948528Y42600711D01*
X25979289Y36631472D01*
X25950000Y36560761D01*
X25950000Y32019239D01*
X25979289Y31948528D01*
X28326596Y29601221D01*
X28330902Y29596310D01*
X28412324Y29490199D01*
X28418821Y29478946D01*
X28468089Y29360003D01*
X28468090Y29360000D01*
X28468750Y29358407D01*
X28472115Y29345848D01*
X28489572Y29213253D01*
X28490000Y29206719D01*
X28490000Y15243281D01*
X28489571Y15236744D01*
X28472115Y15104151D01*
X28468750Y15091592D01*
X28453454Y15054664D01*
X28418823Y14971057D01*
X28412322Y14959798D01*
X28330902Y14853690D01*
X28326596Y14848779D01*
X25791219Y12313402D01*
X25786308Y12309096D01*
X25690199Y12235349D01*
X25680200Y12227676D01*
X25668944Y12221178D01*
X25636149Y12207594D01*
X25636147Y12207592D01*
X25636147Y12207593D01*
X25548399Y12171246D01*
X25535858Y12167885D01*
X25403239Y12150426D01*
X25396730Y12150000D01*
X24054865Y12150000D01*
X23995538Y12130500D01*
X23969843Y12102643D01*
X23950352Y12071164D01*
X23944804Y12063818D01*
X23820496Y11927459D01*
X23813686Y11921251D01*
X23666440Y11810056D01*
X23658617Y11805212D01*
X23493441Y11722965D01*
X23484859Y11719640D01*
X23307381Y11669143D01*
X23298332Y11667451D01*
X23112305Y11650214D01*
X23107689Y11650000D01*
X22612311Y11650000D01*
X22607695Y11650214D01*
X22421668Y11667451D01*
X22412619Y11669143D01*
X22235137Y11719640D01*
X22226563Y11722962D01*
X22061382Y11805212D01*
X22053558Y11810056D01*
X21906313Y11921251D01*
X21899503Y11927459D01*
X21775195Y12063818D01*
X21769647Y12071164D01*
X21672510Y12228046D01*
X21668408Y12236284D01*
X21601756Y12408336D01*
X21599232Y12417204D01*
X21565328Y12598574D01*
X21564479Y12607739D01*
X21564479Y12792260D01*
X21565328Y12801425D01*
X21599232Y12982795D01*
X21601756Y12991663D01*
X21668408Y13163715D01*
X21672510Y13171953D01*
X21769647Y13328835D01*
X21775195Y13336181D01*
X21899503Y13472540D01*
X21906313Y13478748D01*
X22053559Y13589943D01*
X22061382Y13594787D01*
X22226558Y13677034D01*
X22235140Y13680359D01*
X22412618Y13730856D01*
X22421667Y13732548D01*
X22607695Y13749786D01*
X22612311Y13750000D01*
X22612311Y13750000D01*
X22612311Y14190000D01*
X22607695Y14190214D01*
X22421668Y14207451D01*
X22412619Y14209143D01*
X22235137Y14259640D01*
X22226563Y14262962D01*
X22061382Y14345212D01*
X22053558Y14350056D01*
X21906313Y14461251D01*
X21899503Y14467459D01*
X21775195Y14603818D01*
X21769647Y14611164D01*
X21750156Y14642643D01*
X21702344Y14682819D01*
X21665134Y14690000D01*
X16513270Y14690000D01*
X16506761Y14690426D01*
X16374141Y14707885D01*
X16361599Y14711246D01*
X16241052Y14761179D01*
X16229801Y14767675D01*
X16126512Y14846931D01*
X16122133Y14851359D01*
X16119449Y14852734D01*
X13771472Y17200711D01*
X13700761Y17230000D01*
X13312186Y17230000D01*
X13248747Y17207301D01*
X13231588Y17193219D01*
X13223461Y17187788D01*
X13067884Y17104631D01*
X13058846Y17100887D01*
X12890033Y17049678D01*
X12880451Y17047772D01*
X12704884Y17030481D01*
X12695116Y17030481D01*
X12519548Y17047772D01*
X12509966Y17049678D01*
X12341153Y17100887D01*
X12332115Y17104631D01*
X12176538Y17187788D01*
X12168411Y17193219D01*
X12032051Y17305127D01*
X12025127Y17312051D01*
X11913219Y17448411D01*
X11907788Y17456538D01*
X11824631Y17612115D01*
X11820887Y17621153D01*
X11769678Y17789966D01*
X11767772Y17799548D01*
X11750481Y17975116D01*
X11750481Y17984884D01*
X11767772Y18160451D01*
X11769678Y18170033D01*
X11820887Y18338846D01*
X11824631Y18347884D01*
X11907788Y18503461D01*
X11913219Y18511588D01*
X12015782Y18636561D01*
X12038345Y18694792D01*
X12021962Y18755055D01*
X11973020Y18793846D01*
X11938481Y18800000D01*
X10978966Y18800000D01*
X10901665Y18763439D01*
X10834872Y18682051D01*
X10827948Y18675127D01*
X10691588Y18563219D01*
X10683461Y18557788D01*
X10527884Y18474631D01*
X10518846Y18470887D01*
X10350033Y18419678D01*
X10340451Y18417772D01*
X10164884Y18400481D01*
X10155116Y18400481D01*
X9979548Y18417772D01*
X9969966Y18419678D01*
X9801153Y18470887D01*
X9792115Y18474631D01*
X9636538Y18557788D01*
X9628411Y18563219D01*
X9492051Y18675127D01*
X9485127Y18682051D01*
X9373219Y18818411D01*
X9367788Y18826538D01*
X9284631Y18982115D01*
X9280887Y18991153D01*
X9229678Y19159966D01*
X9227772Y19169548D01*
X9210481Y19345116D01*
X9210481Y19354884D01*
X9227772Y19530451D01*
X9229678Y19540033D01*
X9280887Y19708846D01*
X9284631Y19717884D01*
X9367788Y19873461D01*
X9373219Y19881588D01*
X9485127Y20017948D01*
X9492051Y20024872D01*
X9628411Y20136780D01*
X9636538Y20142211D01*
X9792115Y20225368D01*
X9801153Y20229112D01*
X9969962Y20280320D01*
X9979557Y20282228D01*
X10155106Y20299518D01*
X10164894Y20299518D01*
X10340442Y20282228D01*
X10350037Y20280320D01*
X10518846Y20229112D01*
X10527884Y20225368D01*
X10683461Y20142211D01*
X10691588Y20136780D01*
X10827955Y20024867D01*
X10834864Y20017957D01*
X10901666Y19936560D01*
X10978967Y19900000D01*
X11938480Y19900000D01*
X11997807Y19919500D01*
X12033997Y19970395D01*
X12032935Y20032836D01*
X12015781Y20063439D01*
X11913219Y20188411D01*
X11907788Y20196538D01*
X11824631Y20352115D01*
X11820887Y20361153D01*
X11769678Y20529966D01*
X11767772Y20539548D01*
X11750481Y20715116D01*
X11750481Y20724884D01*
X11767772Y20900451D01*
X11769678Y20910033D01*
X11820887Y21078846D01*
X11824631Y21087884D01*
X11907788Y21243461D01*
X11913219Y21251588D01*
X12015782Y21376561D01*
X12038345Y21434792D01*
X12021962Y21495055D01*
X11973020Y21533846D01*
X11938481Y21540000D01*
X10978966Y21540000D01*
X10901665Y21503439D01*
X10834872Y21422051D01*
X10827948Y21415127D01*
X10691588Y21303219D01*
X10683461Y21297788D01*
X10527884Y21214631D01*
X10518846Y21210887D01*
X10350033Y21159678D01*
X10340451Y21157772D01*
X10164884Y21140481D01*
X10155116Y21140481D01*
X9979548Y21157772D01*
X9969966Y21159678D01*
X9801153Y21210887D01*
X9792115Y21214631D01*
X9636538Y21297788D01*
X9628411Y21303219D01*
X9492051Y21415127D01*
X9485127Y21422051D01*
X9373219Y21558411D01*
X9367788Y21566538D01*
X9284631Y21722115D01*
X9280887Y21731153D01*
X9229678Y21899966D01*
X9227772Y21909548D01*
X9210481Y22085116D01*
X9210481Y22094884D01*
X9227772Y22270451D01*
X9229678Y22280033D01*
X9280887Y22448846D01*
X9284631Y22457884D01*
X9367788Y22613461D01*
X9373219Y22621588D01*
X9485127Y22757948D01*
X9492051Y22764872D01*
X9628411Y22876780D01*
X9636538Y22882211D01*
X9792115Y22965368D01*
X9801153Y22969112D01*
X9969962Y23020320D01*
X9979557Y23022228D01*
X10155106Y23039518D01*
X10155116Y23039518D01*
X10155116Y23880481D01*
X9979548Y23897772D01*
X9969966Y23899678D01*
X9801153Y23950887D01*
X9792115Y23954631D01*
X9636538Y24037788D01*
X9628411Y24043219D01*
X9492051Y24155127D01*
X9485127Y24162051D01*
X9373219Y24298411D01*
X9367788Y24306538D01*
X9284631Y24462115D01*
X9280887Y24471153D01*
X9229678Y24639966D01*
X9227772Y24649548D01*
X9210481Y24825116D01*
X9210481Y24834884D01*
X9227772Y25010451D01*
X9229678Y25020033D01*
X9280887Y25188846D01*
X9284631Y25197884D01*
X9367788Y25353461D01*
X9373219Y25361588D01*
X9485127Y25497948D01*
X9492051Y25504872D01*
X9628411Y25616780D01*
X9636538Y25622211D01*
X9792115Y25705368D01*
X9801153Y25709112D01*
X9969962Y25760320D01*
X9979557Y25762228D01*
X10155106Y25779518D01*
X10155116Y25779518D01*
X10155116Y26620481D01*
X9979548Y26637772D01*
X9969966Y26639678D01*
X9801153Y26690887D01*
X9792115Y26694631D01*
X9636538Y26777788D01*
X9628411Y26783219D01*
X9492051Y26895127D01*
X9485127Y26902051D01*
X9373219Y27038411D01*
X9367788Y27046538D01*
X9284631Y27202115D01*
X9280887Y27211153D01*
X9229678Y27379966D01*
X9227772Y27389548D01*
X9210481Y27565116D01*
X9210481Y27574884D01*
X9227772Y27750451D01*
X9229678Y27760033D01*
X9280887Y27928846D01*
X9284631Y27937884D01*
X9367788Y28093461D01*
X9373219Y28101588D01*
X9485127Y28237948D01*
X9492051Y28244872D01*
X9628411Y28356780D01*
X9636538Y28362211D01*
X9792115Y28445368D01*
X9801153Y28449112D01*
X9969962Y28500320D01*
X9979557Y28502228D01*
X10155106Y28519518D01*
X10155116Y28519518D01*
X10155116Y29360481D01*
X9979548Y29377772D01*
X9969966Y29379678D01*
X9801153Y29430887D01*
X9792115Y29434631D01*
X9636538Y29517788D01*
X9628411Y29523219D01*
X9492051Y29635127D01*
X9485127Y29642051D01*
X9373219Y29778411D01*
X9367788Y29786538D01*
X9284631Y29942115D01*
X9280887Y29951153D01*
X9229678Y30119966D01*
X9227772Y30129548D01*
X9210481Y30305116D01*
X9210481Y30314884D01*
X9227772Y30490451D01*
X9229678Y30500033D01*
X9280887Y30668846D01*
X9284631Y30677884D01*
X9367788Y30833461D01*
X9373219Y30841588D01*
X9485127Y30977948D01*
X9492051Y30984872D01*
X9628411Y31096780D01*
X9636538Y31102211D01*
X9792115Y31185368D01*
X9801153Y31189112D01*
X9969962Y31240320D01*
X9979557Y31242228D01*
X10155106Y31259518D01*
X10155116Y31259518D01*
X10155116Y32100481D01*
X9979548Y32117772D01*
X9969966Y32119678D01*
X9801153Y32170887D01*
X9792115Y32174631D01*
X9636538Y32257788D01*
X9628411Y32263219D01*
X9492051Y32375127D01*
X9485127Y32382051D01*
X9373219Y32518411D01*
X9367788Y32526538D01*
X9284631Y32682115D01*
X9280887Y32691153D01*
X9229678Y32859966D01*
X9227772Y32869548D01*
X9210481Y33045116D01*
X9210481Y33054884D01*
X9227772Y33230451D01*
X9229678Y33240033D01*
X9280887Y33408846D01*
X9284631Y33417884D01*
X9367788Y33573461D01*
X9373219Y33581588D01*
X9485127Y33717948D01*
X9492051Y33724872D01*
X9628411Y33836780D01*
X9636538Y33842211D01*
X9792115Y33925368D01*
X9801153Y33929112D01*
X9969962Y33980320D01*
X9979557Y33982228D01*
X10155106Y33999518D01*
X10164894Y33999518D01*
X10340442Y33982228D01*
X10350037Y33980320D01*
X10518846Y33929112D01*
X10527884Y33925368D01*
X10683461Y33842211D01*
X10691588Y33836780D01*
X10827948Y33724872D01*
X10834872Y33717948D01*
X10946780Y33581588D01*
X10952211Y33573461D01*
X11035368Y33417884D01*
X11039112Y33408846D01*
X11090320Y33240037D01*
X11092228Y33230442D01*
X11109518Y33054894D01*
X11109518Y33045106D01*
X11092228Y32869557D01*
X11090320Y32859962D01*
X11039112Y32691153D01*
X11035368Y32682115D01*
X10952211Y32526538D01*
X10946780Y32518411D01*
X10834872Y32382051D01*
X10827948Y32375127D01*
X10691588Y32263219D01*
X10683461Y32257788D01*
X10527884Y32174631D01*
X10518846Y32170887D01*
X10350033Y32119678D01*
X10340451Y32117772D01*
X10164884Y32100481D01*
X10155116Y32100481D01*
X10155116Y31259518D01*
X10164894Y31259518D01*
X10340442Y31242228D01*
X10350037Y31240320D01*
X10518846Y31189112D01*
X10527884Y31185368D01*
X10683461Y31102211D01*
X10691588Y31096780D01*
X10827948Y30984872D01*
X10834872Y30977948D01*
X10946780Y30841588D01*
X10952211Y30833461D01*
X11035368Y30677884D01*
X11039112Y30668846D01*
X11090320Y30500037D01*
X11092228Y30490442D01*
X11109518Y30314894D01*
X11109518Y30305106D01*
X11092228Y30129557D01*
X11090320Y30119962D01*
X11039112Y29951153D01*
X11035368Y29942115D01*
X10952211Y29786538D01*
X10946780Y29778411D01*
X10834872Y29642051D01*
X10827948Y29635127D01*
X10691588Y29523219D01*
X10683461Y29517788D01*
X10527884Y29434631D01*
X10518846Y29430887D01*
X10350033Y29379678D01*
X10340451Y29377772D01*
X10164884Y29360481D01*
X10155116Y29360481D01*
X10155116Y28519518D01*
X10164894Y28519518D01*
X10340442Y28502228D01*
X10350037Y28500320D01*
X10518846Y28449112D01*
X10527884Y28445368D01*
X10683461Y28362211D01*
X10691588Y28356780D01*
X10827948Y28244872D01*
X10834872Y28237948D01*
X10946780Y28101588D01*
X10952211Y28093461D01*
X11035368Y27937884D01*
X11039112Y27928846D01*
X11090320Y27760037D01*
X11092228Y27750442D01*
X11109518Y27574894D01*
X11109518Y27565106D01*
X11092228Y27389557D01*
X11090320Y27379962D01*
X11039112Y27211153D01*
X11035368Y27202115D01*
X10952211Y27046538D01*
X10946780Y27038411D01*
X10834872Y26902051D01*
X10827948Y26895127D01*
X10691588Y26783219D01*
X10683461Y26777788D01*
X10527884Y26694631D01*
X10518846Y26690887D01*
X10350033Y26639678D01*
X10340451Y26637772D01*
X10164884Y26620481D01*
X10155116Y26620481D01*
X10155116Y25779518D01*
X10164894Y25779518D01*
X10340442Y25762228D01*
X10350037Y25760320D01*
X10518846Y25709112D01*
X10527884Y25705368D01*
X10683461Y25622211D01*
X10691588Y25616780D01*
X10827948Y25504872D01*
X10834872Y25497948D01*
X10946780Y25361588D01*
X10952211Y25353461D01*
X11035368Y25197884D01*
X11039112Y25188846D01*
X11090320Y25020037D01*
X11092228Y25010442D01*
X11109518Y24834894D01*
X11109518Y24825106D01*
X11092228Y24649557D01*
X11090320Y24639962D01*
X11039112Y24471153D01*
X11035368Y24462115D01*
X10952211Y24306538D01*
X10946780Y24298411D01*
X10834872Y24162051D01*
X10827948Y24155127D01*
X10691588Y24043219D01*
X10683461Y24037788D01*
X10527884Y23954631D01*
X10518846Y23950887D01*
X10350033Y23899678D01*
X10340451Y23897772D01*
X10164884Y23880481D01*
X10155116Y23880481D01*
X10155116Y23039518D01*
X10164894Y23039518D01*
X10340442Y23022228D01*
X10350037Y23020320D01*
X10518846Y22969112D01*
X10527884Y22965368D01*
X10683461Y22882211D01*
X10691588Y22876780D01*
X10827955Y22764867D01*
X10834864Y22757957D01*
X10901666Y22676560D01*
X10978967Y22640000D01*
X11938480Y22640000D01*
X11997807Y22659500D01*
X12033997Y22710395D01*
X12032935Y22772836D01*
X12015781Y22803439D01*
X11913219Y22928411D01*
X11907788Y22936538D01*
X11824631Y23092115D01*
X11820887Y23101153D01*
X11769678Y23269966D01*
X11767772Y23279548D01*
X11750481Y23455116D01*
X11750481Y23464884D01*
X11767772Y23640451D01*
X11769678Y23650033D01*
X11820887Y23818846D01*
X11824631Y23827884D01*
X11907788Y23983461D01*
X11913219Y23991588D01*
X12025127Y24127948D01*
X12032051Y24134872D01*
X12168411Y24246780D01*
X12176538Y24252211D01*
X12332115Y24335368D01*
X12341153Y24339112D01*
X12509962Y24390320D01*
X12519557Y24392228D01*
X12695106Y24409518D01*
X12695116Y24409518D01*
X12695116Y25250481D01*
X12519548Y25267772D01*
X12509966Y25269678D01*
X12341153Y25320887D01*
X12332115Y25324631D01*
X12176538Y25407788D01*
X12168411Y25413219D01*
X12032051Y25525127D01*
X12025127Y25532051D01*
X11913219Y25668411D01*
X11907788Y25676538D01*
X11824631Y25832115D01*
X11820887Y25841153D01*
X11769678Y26009966D01*
X11767772Y26019548D01*
X11750481Y26195116D01*
X11750481Y26204884D01*
X11767772Y26380451D01*
X11769678Y26390033D01*
X11820887Y26558846D01*
X11824631Y26567884D01*
X11907788Y26723461D01*
X11913219Y26731588D01*
X12025127Y26867948D01*
X12032051Y26874872D01*
X12168411Y26986780D01*
X12176538Y26992211D01*
X12332115Y27075368D01*
X12341153Y27079112D01*
X12509962Y27130320D01*
X12519557Y27132228D01*
X12695106Y27149518D01*
X12695116Y27149518D01*
X12695116Y27990481D01*
X12519548Y28007772D01*
X12509966Y28009678D01*
X12341153Y28060887D01*
X12332115Y28064631D01*
X12176538Y28147788D01*
X12168411Y28153219D01*
X12032051Y28265127D01*
X12025127Y28272051D01*
X11913219Y28408411D01*
X11907788Y28416538D01*
X11824631Y28572115D01*
X11820887Y28581153D01*
X11769678Y28749966D01*
X11767772Y28759548D01*
X11750481Y28935116D01*
X11750481Y28944884D01*
X11767772Y29120451D01*
X11769678Y29130033D01*
X11820887Y29298846D01*
X11824631Y29307884D01*
X11907788Y29463461D01*
X11913219Y29471588D01*
X12025127Y29607948D01*
X12032051Y29614872D01*
X12168411Y29726780D01*
X12176538Y29732211D01*
X12332115Y29815368D01*
X12341153Y29819112D01*
X12509962Y29870320D01*
X12519557Y29872228D01*
X12695106Y29889518D01*
X12704894Y29889518D01*
X12880442Y29872228D01*
X12890037Y29870320D01*
X13058846Y29819112D01*
X13067884Y29815368D01*
X13223461Y29732211D01*
X13231588Y29726780D01*
X13367948Y29614872D01*
X13374872Y29607948D01*
X13486780Y29471588D01*
X13492211Y29463461D01*
X13575368Y29307884D01*
X13579112Y29298846D01*
X13630320Y29130037D01*
X13632228Y29120442D01*
X13649518Y28944894D01*
X13649518Y28935106D01*
X13632228Y28759557D01*
X13630320Y28749962D01*
X13579112Y28581153D01*
X13575368Y28572115D01*
X13492211Y28416538D01*
X13486780Y28408411D01*
X13374872Y28272051D01*
X13367948Y28265127D01*
X13231588Y28153219D01*
X13223461Y28147788D01*
X13067884Y28064631D01*
X13058846Y28060887D01*
X12890033Y28009678D01*
X12880451Y28007772D01*
X12704884Y27990481D01*
X12695116Y27990481D01*
X12695116Y27149518D01*
X12704894Y27149518D01*
X12880442Y27132228D01*
X12890037Y27130320D01*
X13058846Y27079112D01*
X13067884Y27075368D01*
X13223461Y26992211D01*
X13231588Y26986780D01*
X13367948Y26874872D01*
X13374872Y26867948D01*
X13486780Y26731588D01*
X13492211Y26723461D01*
X13575368Y26567884D01*
X13579112Y26558846D01*
X13630320Y26390037D01*
X13632228Y26380442D01*
X13649518Y26204894D01*
X13649518Y26195106D01*
X13632228Y26019557D01*
X13630320Y26009962D01*
X13579112Y25841153D01*
X13575368Y25832115D01*
X13492211Y25676538D01*
X13486780Y25668411D01*
X13374872Y25532051D01*
X13367948Y25525127D01*
X13231588Y25413219D01*
X13223461Y25407788D01*
X13067884Y25324631D01*
X13058846Y25320887D01*
X12890033Y25269678D01*
X12880451Y25267772D01*
X12704884Y25250481D01*
X12695116Y25250481D01*
X12695116Y24409518D01*
X12704894Y24409518D01*
X12880442Y24392228D01*
X12890037Y24390320D01*
X13058846Y24339112D01*
X13067884Y24335368D01*
X13223461Y24252211D01*
X13231588Y24246780D01*
X13367948Y24134872D01*
X13374872Y24127948D01*
X13486780Y23991588D01*
X13492211Y23983461D01*
X13575368Y23827884D01*
X13579112Y23818846D01*
X13630320Y23650037D01*
X13632228Y23640442D01*
X13649518Y23464894D01*
X13649518Y23455106D01*
X13632228Y23279557D01*
X13630320Y23269962D01*
X13579112Y23101153D01*
X13575368Y23092115D01*
X13492211Y22936538D01*
X13486780Y22928411D01*
X13384218Y22803439D01*
X13361655Y22745208D01*
X13378039Y22684945D01*
X13426980Y22646154D01*
X13461519Y22640000D01*
X20550762Y22640000D01*
X20621473Y22669289D01*
X21200174Y23247990D01*
X21202133Y23248640D01*
X21206512Y23253068D01*
X21309801Y23332324D01*
X21321052Y23338820D01*
X21441595Y23388751D01*
X21454148Y23392115D01*
X21586744Y23409571D01*
X21593281Y23410000D01*
X21665135Y23410000D01*
X21724462Y23429500D01*
X21750157Y23457357D01*
X21769647Y23488836D01*
X21775195Y23496181D01*
X21899503Y23632540D01*
X21906313Y23638748D01*
X22053559Y23749943D01*
X22061382Y23754787D01*
X22226558Y23837034D01*
X22235140Y23840359D01*
X22412618Y23890856D01*
X22421667Y23892548D01*
X22607695Y23909786D01*
X22612311Y23910000D01*
X23107689Y23910000D01*
X23112305Y23909786D01*
X23298331Y23892548D01*
X23307380Y23890856D01*
X23484862Y23840359D01*
X23493436Y23837037D01*
X23658617Y23754787D01*
X23666441Y23749943D01*
X23813686Y23638748D01*
X23820496Y23632540D01*
X23944804Y23496181D01*
X23950352Y23488835D01*
X24047489Y23331953D01*
X24051591Y23323715D01*
X24118243Y23151663D01*
X24120767Y23142795D01*
X24154671Y22961425D01*
X24155520Y22952260D01*
X24155520Y22767739D01*
X24154671Y22758574D01*
X24120767Y22577204D01*
X24118243Y22568336D01*
X24051591Y22396284D01*
X24047489Y22388046D01*
X23950352Y22231164D01*
X23944804Y22223818D01*
X23820496Y22087459D01*
X23813686Y22081251D01*
X23666440Y21970056D01*
X23658617Y21965212D01*
X23493441Y21882965D01*
X23484859Y21879640D01*
X23307381Y21829143D01*
X23298332Y21827451D01*
X23112305Y21810214D01*
X23107689Y21810000D01*
X22612311Y21810000D01*
X22607695Y21810214D01*
X22421668Y21827451D01*
X22412619Y21829143D01*
X22235137Y21879640D01*
X22226563Y21882962D01*
X22061382Y21965212D01*
X22053558Y21970056D01*
X21906313Y22081251D01*
X21899496Y22087464D01*
X21824976Y22169208D01*
X21770597Y22199914D01*
X21708604Y22192371D01*
X21680365Y22172549D01*
X21209825Y21702009D01*
X21207866Y21701359D01*
X21203487Y21696931D01*
X21100198Y21617675D01*
X21088947Y21611179D01*
X20968400Y21561246D01*
X20955858Y21557885D01*
X20823239Y21540426D01*
X20816730Y21540000D01*
X13461518Y21540000D01*
X13402191Y21520500D01*
X13366001Y21469605D01*
X13367063Y21407164D01*
X13384217Y21376561D01*
X13486780Y21251588D01*
X13492211Y21243461D01*
X13575368Y21087884D01*
X13579112Y21078846D01*
X13630320Y20910037D01*
X13632228Y20900442D01*
X13649518Y20724894D01*
X13649518Y20715106D01*
X13632228Y20539557D01*
X13630320Y20529962D01*
X13579112Y20361153D01*
X13575368Y20352115D01*
X13492211Y20196538D01*
X13486780Y20188411D01*
X13384218Y20063439D01*
X13361655Y20005208D01*
X13378039Y19944945D01*
X13426980Y19906154D01*
X13461519Y19900000D01*
X20350760Y19900000D01*
X20421471Y19929289D01*
X21198778Y20706596D01*
X21203689Y20710902D01*
X21309796Y20792321D01*
X21321054Y20798821D01*
X21392702Y20828498D01*
X21392704Y20828499D01*
X21441595Y20848751D01*
X21454146Y20852114D01*
X21586744Y20869571D01*
X21593281Y20870000D01*
X21665135Y20870000D01*
X21724462Y20889500D01*
X21750157Y20917357D01*
X21769647Y20948836D01*
X21775195Y20956181D01*
X21899503Y21092540D01*
X21906313Y21098748D01*
X22053559Y21209943D01*
X22061382Y21214787D01*
X22226558Y21297034D01*
X22235140Y21300359D01*
X22412618Y21350856D01*
X22421667Y21352548D01*
X22607695Y21369786D01*
X22612311Y21370000D01*
X23107689Y21370000D01*
X23112305Y21369786D01*
X23298331Y21352548D01*
X23307380Y21350856D01*
X23484862Y21300359D01*
X23493436Y21297037D01*
X23658617Y21214787D01*
X23666441Y21209943D01*
X23813686Y21098748D01*
X23820496Y21092540D01*
X23944804Y20956181D01*
X23950352Y20948835D01*
X24047489Y20791953D01*
X24051591Y20783715D01*
X24118243Y20611663D01*
X24120767Y20602795D01*
X24154671Y20421425D01*
X24155520Y20412260D01*
X24155520Y20227739D01*
X24154671Y20218574D01*
X24120767Y20037204D01*
X24118243Y20028336D01*
X24051591Y19856284D01*
X24047489Y19848046D01*
X23950352Y19691164D01*
X23944804Y19683818D01*
X23820496Y19547459D01*
X23813686Y19541251D01*
X23666440Y19430056D01*
X23658617Y19425212D01*
X23493441Y19342965D01*
X23484859Y19339640D01*
X23307381Y19289143D01*
X23298332Y19287451D01*
X23112305Y19270214D01*
X23107689Y19270000D01*
X22612311Y19270000D01*
X22607695Y19270214D01*
X22421668Y19287451D01*
X22412619Y19289143D01*
X22235137Y19339640D01*
X22226563Y19342962D01*
X22061382Y19425212D01*
X22053558Y19430056D01*
X21906313Y19541251D01*
X21899496Y19547464D01*
X21824977Y19629207D01*
X21770598Y19659913D01*
X21708605Y19652370D01*
X21680366Y19632548D01*
X21011222Y18963404D01*
X21006311Y18959098D01*
X20900203Y18877677D01*
X20888945Y18871178D01*
X20817297Y18841501D01*
X20817295Y18841500D01*
X20768408Y18821250D01*
X20755851Y18817884D01*
X20638741Y18802467D01*
X20623240Y18800426D01*
X20616731Y18800000D01*
X13461518Y18800000D01*
X13402191Y18780500D01*
X13366001Y18729605D01*
X13367063Y18667164D01*
X13384217Y18636561D01*
X13486780Y18511588D01*
X13492211Y18503461D01*
X13556673Y18382860D01*
X13601837Y18339730D01*
X13644865Y18330000D01*
X13966719Y18330000D01*
X13973256Y18329571D01*
X14105849Y18312115D01*
X14118409Y18308750D01*
X14238946Y18258822D01*
X14250200Y18252325D01*
X14356311Y18170901D01*
X14361223Y18166594D01*
X16708528Y15819289D01*
X16779239Y15790000D01*
X21665135Y15790000D01*
X21724462Y15809500D01*
X21750157Y15837357D01*
X21769647Y15868836D01*
X21775195Y15876181D01*
X21899503Y16012540D01*
X21906313Y16018748D01*
X22053559Y16129943D01*
X22061382Y16134787D01*
X22226558Y16217034D01*
X22235140Y16220359D01*
X22412618Y16270856D01*
X22421667Y16272548D01*
X22607695Y16289786D01*
X22612311Y16290000D01*
X22612311Y16290000D01*
X22612311Y16730000D01*
X22607695Y16730214D01*
X22421668Y16747451D01*
X22412619Y16749143D01*
X22235137Y16799640D01*
X22226563Y16802962D01*
X22061382Y16885212D01*
X22053558Y16890056D01*
X21906313Y17001251D01*
X21899503Y17007459D01*
X21775195Y17143818D01*
X21769647Y17151164D01*
X21672510Y17308046D01*
X21668408Y17316284D01*
X21601756Y17488336D01*
X21599232Y17497204D01*
X21565328Y17678574D01*
X21564479Y17687739D01*
X21564479Y17872260D01*
X21565328Y17881425D01*
X21599232Y18062795D01*
X21601756Y18071663D01*
X21668408Y18243715D01*
X21672510Y18251953D01*
X21769647Y18408835D01*
X21775195Y18416181D01*
X21899503Y18552540D01*
X21906313Y18558748D01*
X22053559Y18669943D01*
X22061382Y18674787D01*
X22226558Y18757034D01*
X22235140Y18760359D01*
X22412618Y18810856D01*
X22421667Y18812548D01*
X22607695Y18829786D01*
X22612311Y18830000D01*
X23107689Y18830000D01*
X23112305Y18829786D01*
X23298331Y18812548D01*
X23307380Y18810856D01*
X23484862Y18760359D01*
X23493436Y18757037D01*
X23658617Y18674787D01*
X23666441Y18669943D01*
X23813686Y18558748D01*
X23820503Y18552535D01*
X23895022Y18470792D01*
X23949401Y18440086D01*
X24011394Y18447629D01*
X24039633Y18467451D01*
X24820711Y19248529D01*
X24850000Y19319240D01*
X24850000Y25130760D01*
X24820711Y25201471D01*
X24298850Y25723332D01*
X24243110Y25751494D01*
X24181532Y25741096D01*
X24138131Y25696192D01*
X24129842Y25634246D01*
X24154671Y25501425D01*
X24155520Y25492260D01*
X24155520Y25307739D01*
X24154671Y25298574D01*
X24120767Y25117204D01*
X24118243Y25108336D01*
X24051591Y24936284D01*
X24047489Y24928046D01*
X23950352Y24771164D01*
X23944804Y24763818D01*
X23820496Y24627459D01*
X23813686Y24621251D01*
X23666440Y24510056D01*
X23658617Y24505212D01*
X23493441Y24422965D01*
X23484859Y24419640D01*
X23307381Y24369143D01*
X23298332Y24367451D01*
X23112305Y24350214D01*
X23107689Y24350000D01*
X22612311Y24350000D01*
X22607695Y24350214D01*
X22421668Y24367451D01*
X22412619Y24369143D01*
X22235137Y24419640D01*
X22226563Y24422962D01*
X22061382Y24505212D01*
X22053558Y24510056D01*
X21906313Y24621251D01*
X21899503Y24627459D01*
X21775195Y24763818D01*
X21769647Y24771164D01*
X21672510Y24928046D01*
X21668408Y24936284D01*
X21601756Y25108336D01*
X21599232Y25117204D01*
X21565328Y25298574D01*
X21564479Y25307739D01*
X21564479Y25492260D01*
X21565328Y25501425D01*
X21599232Y25682795D01*
X21601756Y25691663D01*
X21668408Y25863715D01*
X21672510Y25871953D01*
X21731582Y25967357D01*
X21746234Y26028063D01*
X21722014Y26085625D01*
X21646560Y26120000D01*
X19053269Y26120000D01*
X19046760Y26120426D01*
X19031259Y26122467D01*
X18914148Y26137884D01*
X18901591Y26141250D01*
X18852704Y26161500D01*
X18852702Y26161501D01*
X18781052Y26191179D01*
X18769800Y26197675D01*
X18676087Y26269585D01*
X18664225Y26278688D01*
X18663879Y26279435D01*
X18657599Y26284583D01*
X13822869Y31119313D01*
X13770233Y31145268D01*
X13770480Y31146189D01*
X13765847Y31147431D01*
X13765205Y31147747D01*
X13764145Y31147886D01*
X13751596Y31151249D01*
X13652278Y31192388D01*
X13614010Y31200000D01*
X13574701Y31200000D01*
X13515374Y31180500D01*
X13491553Y31155555D01*
X13486779Y31148410D01*
X13374872Y31012051D01*
X13367948Y31005127D01*
X13231588Y30893219D01*
X13223461Y30887788D01*
X13067884Y30804631D01*
X13058846Y30800887D01*
X12890033Y30749678D01*
X12880451Y30747772D01*
X12704884Y30730481D01*
X12695116Y30730481D01*
X12519548Y30747772D01*
X12509966Y30749678D01*
X12341153Y30800887D01*
X12332115Y30804631D01*
X12176538Y30887788D01*
X12168411Y30893219D01*
X12032051Y31005127D01*
X12025127Y31012051D01*
X11913219Y31148411D01*
X11907788Y31156538D01*
X11824631Y31312115D01*
X11820887Y31321153D01*
X11769678Y31489966D01*
X11767772Y31499548D01*
X11750481Y31675116D01*
X11750481Y31684884D01*
X11767772Y31860451D01*
X11769678Y31870033D01*
X11820887Y32038846D01*
X11824631Y32047884D01*
X11907788Y32203461D01*
X11913219Y32211588D01*
X12025127Y32347948D01*
X12032051Y32354872D01*
X12168411Y32466780D01*
X12176538Y32472211D01*
X12332115Y32555368D01*
X12341153Y32559112D01*
X12509962Y32610320D01*
X12519557Y32612228D01*
X12695106Y32629518D01*
X12704894Y32629518D01*
X12880442Y32612228D01*
X12890037Y32610320D01*
X13058846Y32559112D01*
X13067884Y32555368D01*
X13223461Y32472211D01*
X13231588Y32466780D01*
X13367948Y32354872D01*
X13374872Y32347948D01*
X13384217Y32336561D01*
X13461518Y32300000D01*
X13966719Y32300000D01*
X13973256Y32299571D01*
X14105848Y32282115D01*
X14118408Y32278750D01*
X14151202Y32265166D01*
X14242459Y32227366D01*
X14248795Y32223402D01*
X14356311Y32140902D01*
X14361222Y32136596D01*
X19248529Y27249289D01*
X19319240Y27220000D01*
X21646559Y27220000D01*
X21705886Y27239500D01*
X21742076Y27290395D01*
X21731581Y27372643D01*
X21672510Y27468046D01*
X21668408Y27476284D01*
X21601756Y27648336D01*
X21599232Y27657204D01*
X21565328Y27838574D01*
X21564479Y27847739D01*
X21564479Y28032260D01*
X21565328Y28041425D01*
X21599232Y28222795D01*
X21601756Y28231663D01*
X21668408Y28403715D01*
X21672510Y28411953D01*
X21769647Y28568835D01*
X21775195Y28576181D01*
X21899503Y28712540D01*
X21906313Y28718748D01*
X22053559Y28829943D01*
X22061382Y28834787D01*
X22226558Y28917034D01*
X22235140Y28920359D01*
X22412618Y28970856D01*
X22421667Y28972548D01*
X22607695Y28989786D01*
X22612311Y28990000D01*
X22612311Y28990000D01*
X22612311Y29430000D01*
X22607695Y29430214D01*
X22421668Y29447451D01*
X22412619Y29449143D01*
X22235137Y29499640D01*
X22226563Y29502962D01*
X22061382Y29585212D01*
X22053558Y29590056D01*
X21906313Y29701251D01*
X21899503Y29707459D01*
X21775195Y29843818D01*
X21769647Y29851164D01*
X21672510Y30008046D01*
X21668408Y30016284D01*
X21601756Y30188336D01*
X21599232Y30197204D01*
X21565328Y30378574D01*
X21564479Y30387739D01*
X21564479Y30572260D01*
X21565328Y30581425D01*
X21599232Y30762795D01*
X21601756Y30771663D01*
X21668408Y30943715D01*
X21672510Y30951953D01*
X21769647Y31108835D01*
X21775195Y31116181D01*
X21899503Y31252540D01*
X21906313Y31258748D01*
X22053559Y31369943D01*
X22061382Y31374787D01*
X22226558Y31457034D01*
X22235140Y31460359D01*
X22412618Y31510856D01*
X22421667Y31512548D01*
X22607695Y31529786D01*
X22612311Y31530000D01*
X22612311Y31530000D01*
X22612311Y31970000D01*
X22607695Y31970214D01*
X22421668Y31987451D01*
X22412619Y31989143D01*
X22235137Y32039640D01*
X22226563Y32042962D01*
X22061382Y32125212D01*
X22053558Y32130056D01*
X21906313Y32241251D01*
X21899503Y32247459D01*
X21775195Y32383818D01*
X21769647Y32391164D01*
X21672510Y32548046D01*
X21668408Y32556284D01*
X21601756Y32728336D01*
X21599232Y32737204D01*
X21565328Y32918574D01*
X21564479Y32927739D01*
X21564479Y33112260D01*
X21565328Y33121425D01*
X21599232Y33302795D01*
X21601756Y33311663D01*
X21668408Y33483715D01*
X21672510Y33491953D01*
X21769647Y33648835D01*
X21775195Y33656181D01*
X21899503Y33792540D01*
X21906313Y33798748D01*
X22053559Y33909943D01*
X22061382Y33914787D01*
X22226558Y33997034D01*
X22235140Y34000359D01*
X22412618Y34050856D01*
X22421667Y34052548D01*
X22607695Y34069786D01*
X22612311Y34070000D01*
X23107689Y34070000D01*
X23112305Y34069786D01*
X23298331Y34052548D01*
X23307380Y34050856D01*
X23484862Y34000359D01*
X23493436Y33997037D01*
X23658617Y33914787D01*
X23666441Y33909943D01*
X23813686Y33798748D01*
X23820496Y33792540D01*
X23944804Y33656181D01*
X23950352Y33648835D01*
X24047489Y33491953D01*
X24051591Y33483715D01*
X24118243Y33311663D01*
X24120767Y33302795D01*
X24154671Y33121425D01*
X24155520Y33112260D01*
X24155520Y32927739D01*
X24154671Y32918574D01*
X24120767Y32737204D01*
X24118243Y32728336D01*
X24051591Y32556284D01*
X24047489Y32548046D01*
X23950352Y32391164D01*
X23944804Y32383818D01*
X23820496Y32247459D01*
X23813686Y32241251D01*
X23666440Y32130056D01*
X23658617Y32125212D01*
X23493441Y32042965D01*
X23484859Y32039640D01*
X23307381Y31989143D01*
X23298332Y31987451D01*
X23112305Y31970214D01*
X23107689Y31970000D01*
X22612311Y31970000D01*
X22612311Y31530000D01*
X23107689Y31530000D01*
X23112305Y31529786D01*
X23298331Y31512548D01*
X23307380Y31510856D01*
X23484862Y31460359D01*
X23493436Y31457037D01*
X23658617Y31374787D01*
X23666441Y31369943D01*
X23813686Y31258748D01*
X23820496Y31252540D01*
X23944804Y31116181D01*
X23950352Y31108835D01*
X24047489Y30951953D01*
X24051591Y30943715D01*
X24118243Y30771663D01*
X24120767Y30762795D01*
X24154671Y30581425D01*
X24155520Y30572260D01*
X24155520Y30387739D01*
X24154671Y30378574D01*
X24120767Y30197204D01*
X24118243Y30188336D01*
X24051591Y30016284D01*
X24047489Y30008046D01*
X23950352Y29851164D01*
X23944804Y29843818D01*
X23820496Y29707459D01*
X23813686Y29701251D01*
X23666440Y29590056D01*
X23658617Y29585212D01*
X23493441Y29502965D01*
X23484859Y29499640D01*
X23307381Y29449143D01*
X23298332Y29447451D01*
X23112305Y29430214D01*
X23107689Y29430000D01*
X22612311Y29430000D01*
X22612311Y28990000D01*
X23107689Y28990000D01*
X23112305Y28989786D01*
X23298331Y28972548D01*
X23307380Y28970856D01*
X23484862Y28920359D01*
X23493436Y28917037D01*
X23658617Y28834787D01*
X23666441Y28829943D01*
X23813686Y28718748D01*
X23820496Y28712540D01*
X23944804Y28576181D01*
X23950352Y28568835D01*
X24047489Y28411953D01*
X24051591Y28403715D01*
X24118243Y28231663D01*
X24120767Y28222795D01*
X24154671Y28041425D01*
X24155520Y28032260D01*
X24155520Y27847739D01*
X24154671Y27838574D01*
X24120767Y27657204D01*
X24118243Y27648336D01*
X24051591Y27476284D01*
X24047489Y27468046D01*
X23988418Y27372643D01*
X23973766Y27311936D01*
X23997986Y27254375D01*
X24073440Y27220000D01*
X24126719Y27220000D01*
X24133256Y27219571D01*
X24265851Y27202115D01*
X24278404Y27198751D01*
X24328308Y27178080D01*
X24398949Y27148820D01*
X24410200Y27142324D01*
X24516311Y27060902D01*
X24521222Y27056596D01*
X25786596Y25791222D01*
X25790902Y25786311D01*
X25872321Y25680203D01*
X25878822Y25668944D01*
X25921877Y25565000D01*
X25928750Y25548407D01*
X25932115Y25535848D01*
X25949571Y25403256D01*
X25950000Y25396719D01*
X25950000Y19053281D01*
X25949571Y19046744D01*
X25932115Y18914148D01*
X25928751Y18901595D01*
X25895868Y18822208D01*
X25878820Y18781050D01*
X25872324Y18769799D01*
X25790902Y18663689D01*
X25786596Y18658778D01*
X24521222Y17393404D01*
X24516311Y17389098D01*
X24410203Y17307677D01*
X24398945Y17301178D01*
X24327297Y17271501D01*
X24327295Y17271500D01*
X24278408Y17251250D01*
X24265851Y17247884D01*
X24148741Y17232467D01*
X24133240Y17230426D01*
X24126731Y17230000D01*
X24054865Y17230000D01*
X23995538Y17210500D01*
X23969843Y17182643D01*
X23950352Y17151164D01*
X23944804Y17143818D01*
X23820496Y17007459D01*
X23813686Y17001251D01*
X23666440Y16890056D01*
X23658617Y16885212D01*
X23493441Y16802965D01*
X23484859Y16799640D01*
X23307381Y16749143D01*
X23298332Y16747451D01*
X23112305Y16730214D01*
X23107689Y16730000D01*
X22612311Y16730000D01*
X22612311Y16290000D01*
X23107689Y16290000D01*
X23112305Y16289786D01*
X23298331Y16272548D01*
X23307380Y16270856D01*
X23484862Y16220359D01*
X23493436Y16217037D01*
X23658617Y16134787D01*
X23666441Y16129943D01*
X23813686Y16018748D01*
X23820496Y16012540D01*
X23944804Y15876181D01*
X23950352Y15868835D01*
X24047489Y15711953D01*
X24051591Y15703715D01*
X24118243Y15531663D01*
X24120767Y15522795D01*
X24154671Y15341425D01*
X24155520Y15332260D01*
X24155520Y15147739D01*
X24154671Y15138574D01*
X24120767Y14957204D01*
X24118243Y14948336D01*
X24051591Y14776284D01*
X24047489Y14768046D01*
X23950352Y14611164D01*
X23944804Y14603818D01*
X23820496Y14467459D01*
X23813686Y14461251D01*
X23666440Y14350056D01*
X23658617Y14345212D01*
X23493441Y14262965D01*
X23484859Y14259640D01*
X23307381Y14209143D01*
X23298332Y14207451D01*
X23112305Y14190214D01*
X23107689Y14190000D01*
X22612311Y14190000D01*
X22612311Y13750000D01*
X23107689Y13750000D01*
X23112305Y13749786D01*
X23298331Y13732548D01*
X23307380Y13730856D01*
X23484862Y13680359D01*
X23493436Y13677037D01*
X23658617Y13594787D01*
X23666441Y13589943D01*
X23813686Y13478748D01*
X23820496Y13472540D01*
X23944804Y13336181D01*
X23950352Y13328836D01*
X23969842Y13297357D01*
X24017653Y13257181D01*
X24054864Y13250000D01*
X25130761Y13250000D01*
X25201472Y13279289D01*
X27360711Y15438528D01*
X27390000Y15509239D01*
X27390000Y28940761D01*
X27360711Y29011472D01*
X25012009Y31360174D01*
X25011359Y31362133D01*
X25006931Y31366513D01*
X25002165Y31372724D01*
X25002162Y31372728D01*
X24933736Y31461902D01*
X24930705Y31470830D01*
X24918925Y31486493D01*
X24871246Y31601599D01*
X24867885Y31614141D01*
X24850426Y31746761D01*
X24850000Y31753270D01*
X24850000Y36560760D01*
X24820711Y36631471D01*
X17393399Y44058783D01*
X17389103Y44063682D01*
X17382162Y44072727D01*
X17307677Y44169796D01*
X17301177Y44181055D01*
X17284657Y44220938D01*
X17230537Y44275058D01*
X17079943Y44337436D01*
X17072966Y44340991D01*
X16872283Y44463969D01*
X16865941Y44468577D01*
X16686979Y44621426D01*
X16681426Y44626979D01*
X16528577Y44805941D01*
X16523969Y44812283D01*
X16400991Y45012966D01*
X16397436Y45019943D01*
X16307367Y45237391D01*
X16304944Y45244846D01*
X16249999Y45473711D01*
X16248775Y45481435D01*
X16230308Y45716086D01*
X16230308Y45723914D01*
X16248775Y45958564D01*
X16249999Y45966288D01*
X16304944Y46195153D01*
X16307367Y46202608D01*
X16397436Y46420056D01*
X16400991Y46427033D01*
X16523969Y46627716D01*
X16528577Y46634058D01*
X16681426Y46813020D01*
X16686979Y46818573D01*
X16865941Y46971422D01*
X16872283Y46976030D01*
X17072966Y47099008D01*
X17079943Y47102563D01*
X17297391Y47192632D01*
X17304846Y47195055D01*
X17533711Y47250000D01*
X17541435Y47251224D01*
X17776087Y47269692D01*
X17783913Y47269692D01*
X18018564Y47251224D01*
X18026288Y47250000D01*
X18255153Y47195055D01*
X18262608Y47192632D01*
X18480056Y47102563D01*
X18487033Y47099008D01*
X18687716Y46976030D01*
X18694058Y46971422D01*
X18873020Y46818573D01*
X18878573Y46813020D01*
X19031422Y46634058D01*
X19036030Y46627716D01*
X19159008Y46427033D01*
X19162563Y46420056D01*
X19252632Y46202608D01*
X19255055Y46195153D01*
X19310000Y45966288D01*
X19311224Y45958564D01*
X19329692Y45723913D01*
X19329692Y45716087D01*
X19311224Y45481435D01*
X19310000Y45473711D01*
X19255055Y45244846D01*
X19252632Y45237391D01*
X19162563Y45019943D01*
X19159008Y45012966D01*
X19036030Y44812283D01*
X19031422Y44805941D01*
X18878573Y44626979D01*
X18873027Y44621433D01*
X18692817Y44467519D01*
X18660368Y44414161D01*
X18665903Y44351956D01*
X18687051Y44320767D01*
X25329290Y37678529D01*
X25385030Y37650367D01*
X25470712Y37678529D01*
X31358779Y43566596D01*
X31363690Y43570902D01*
X31469797Y43652321D01*
X31481056Y43658822D01*
X31529944Y43679072D01*
X31601592Y43708751D01*
X31614148Y43712115D01*
X31746744Y43729571D01*
X31753281Y43730000D01*
X36560760Y43730000D01*
X36631471Y43759289D01*
X37520711Y44648529D01*
X37550000Y44719240D01*
X37550000Y45716730D01*
X37550426Y45723239D01*
X37567884Y45855851D01*
X37571250Y45868408D01*
X37591499Y45917292D01*
X37591500Y45917295D01*
X37621177Y45988943D01*
X37627677Y46000203D01*
X37709098Y46106311D01*
X37713404Y46111222D01*
X38978778Y47376596D01*
X38983689Y47380902D01*
X39089796Y47462321D01*
X39101054Y47468821D01*
X39172702Y47498498D01*
X39172704Y47498499D01*
X39221595Y47518751D01*
X39234146Y47522114D01*
X39366744Y47539571D01*
X39373281Y47540000D01*
X50530760Y47540000D01*
X50601471Y47569289D01*
X51678778Y48646596D01*
X51683689Y48650902D01*
X51789796Y48732321D01*
X51801054Y48738821D01*
X51872702Y48768498D01*
X51872704Y48768499D01*
X51921595Y48788751D01*
X51934146Y48792114D01*
X52066744Y48809571D01*
X52073281Y48810000D01*
X54685135Y48810000D01*
X54744462Y48829500D01*
X54770157Y48857357D01*
X54789647Y48888836D01*
X54795195Y48896181D01*
X54919503Y49032540D01*
X54926313Y49038748D01*
X55073559Y49149943D01*
X55081382Y49154787D01*
X55246558Y49237034D01*
X55255140Y49240359D01*
X55432618Y49290856D01*
X55441667Y49292548D01*
X55627695Y49309786D01*
X55632311Y49310000D01*
X56127689Y49310000D01*
X56132305Y49309786D01*
X56318331Y49292548D01*
X56327380Y49290856D01*
X56504862Y49240359D01*
X56513436Y49237037D01*
X56678617Y49154787D01*
X56686441Y49149943D01*
X56833686Y49038748D01*
X56840496Y49032540D01*
X56964804Y48896181D01*
X56970352Y48888835D01*
X57067489Y48731953D01*
X57071591Y48723715D01*
X57138243Y48551663D01*
X57140767Y48542795D01*
X57174671Y48361425D01*
X57175520Y48352260D01*
X57175520Y48167739D01*
X57174671Y48158574D01*
X57140767Y47977204D01*
X57138243Y47968336D01*
X57071591Y47796284D01*
X57067489Y47788046D01*
X57008418Y47692643D01*
X56993766Y47631936D01*
X57017986Y47574375D01*
X57093440Y47540000D01*
X64766719Y47540000D01*
X64773256Y47539571D01*
X64905851Y47522115D01*
X64918404Y47518751D01*
X65038945Y47468821D01*
X65050198Y47462324D01*
X65109449Y47416858D01*
X65109452Y47416856D01*
X65156314Y47380899D01*
X65161220Y47376597D01*
X67698902Y44838915D01*
X67698917Y44838901D01*
X71506596Y41031222D01*
X71510902Y41026311D01*
X71592321Y40920203D01*
X71598821Y40908945D01*
X71628498Y40837297D01*
X71628499Y40837295D01*
X71648751Y40788404D01*
X71652114Y40775853D01*
X71669571Y40643256D01*
X71670000Y40636719D01*
X71670000Y27943281D01*
X71669571Y27936744D01*
X71652114Y27804146D01*
X71648751Y27791595D01*
X71628499Y27742704D01*
X71628498Y27742702D01*
X71598821Y27671054D01*
X71592321Y27659796D01*
X71510902Y27553689D01*
X71506596Y27548778D01*
X67698917Y23741099D01*
X67698902Y23741085D01*
X66956480Y22998663D01*
X66931497Y22956981D01*
X66919112Y22916153D01*
X66915368Y22907115D01*
X66832211Y22751538D01*
X66826780Y22743411D01*
X66714872Y22607051D01*
X66707948Y22600127D01*
X66571588Y22488219D01*
X66563461Y22482788D01*
X66407884Y22399631D01*
X66398846Y22395887D01*
X66230033Y22344678D01*
X66220451Y22342772D01*
X66044884Y22325481D01*
X66035116Y22325481D01*
X65859548Y22342772D01*
X65849966Y22344678D01*
X65681153Y22395887D01*
X65672115Y22399631D01*
X65516538Y22482788D01*
X65508411Y22488219D01*
X65483439Y22508713D01*
X65425208Y22531276D01*
X65364945Y22514892D01*
X65326154Y22465951D01*
X65320000Y22431412D01*
X65320000Y21828587D01*
X65339500Y21769260D01*
X65390395Y21733070D01*
X65452836Y21734132D01*
X65483439Y21751286D01*
X65508411Y21771780D01*
X65516538Y21777211D01*
X65672115Y21860368D01*
X65681153Y21864112D01*
X65849962Y21915320D01*
X65859557Y21917228D01*
X66035106Y21934518D01*
X66044894Y21934518D01*
X66220442Y21917228D01*
X66230037Y21915320D01*
X66398846Y21864112D01*
X66407884Y21860368D01*
X66563461Y21777211D01*
X66571588Y21771780D01*
X66707948Y21659872D01*
X66714872Y21652948D01*
X66826780Y21516588D01*
X66832211Y21508461D01*
X66915368Y21352884D01*
X66919112Y21343846D01*
X66970320Y21175037D01*
X66972228Y21165442D01*
X66989518Y20989894D01*
X66989518Y20980106D01*
X66972228Y20804557D01*
X66970320Y20794962D01*
X66919112Y20626153D01*
X66915368Y20617115D01*
X66832211Y20461538D01*
X66826780Y20453411D01*
X66714872Y20317051D01*
X66707948Y20310127D01*
X66571588Y20198219D01*
X66563461Y20192788D01*
X66407884Y20109631D01*
X66398846Y20105887D01*
X66230033Y20054678D01*
X66220451Y20052772D01*
X66044884Y20035481D01*
X66035116Y20035481D01*
X65859548Y20052772D01*
X65849966Y20054678D01*
X65681153Y20105887D01*
X65672115Y20109631D01*
X65516538Y20192788D01*
X65508411Y20198219D01*
X65462282Y20236076D01*
X65404051Y20258639D01*
X65343788Y20242255D01*
X65302249Y20184653D01*
X65298750Y20171591D01*
X65249732Y20053253D01*
X65249733Y20053253D01*
X65249728Y20053246D01*
X65248818Y20051050D01*
X65242321Y20039796D01*
X65160902Y19933689D01*
X65156596Y19928778D01*
X63891222Y18663404D01*
X63886311Y18659098D01*
X63780203Y18577677D01*
X63768945Y18571178D01*
X63697297Y18541501D01*
X63697295Y18541500D01*
X63648408Y18521250D01*
X63635851Y18517884D01*
X63518741Y18502467D01*
X63503240Y18500426D01*
X63496731Y18500000D01*
X61229239Y18500000D01*
X61158528Y18470711D01*
X58999289Y16311472D01*
X58970000Y16240761D01*
X58970000Y12703281D01*
X58969571Y12696744D01*
X58952114Y12564146D01*
X58948751Y12551595D01*
X58928499Y12502704D01*
X58928498Y12502702D01*
X58898821Y12431054D01*
X58892321Y12419796D01*
X58810902Y12313689D01*
X58806596Y12308778D01*
X57538917Y11041099D01*
X57538902Y11041085D01*
X56067726Y9569909D01*
X56039564Y9514169D01*
X56046049Y9460930D01*
X56082632Y9372609D01*
X56085055Y9365153D01*
X56140000Y9136288D01*
X56141224Y9128564D01*
X56159692Y8893913D01*
X56159692Y8886087D01*
X56141224Y8651435D01*
X56140000Y8643711D01*
X56085055Y8414846D01*
X56082632Y8407391D01*
X55992563Y8189943D01*
X55989008Y8182966D01*
X55866030Y7982283D01*
X55861422Y7975941D01*
X55708573Y7796979D01*
X55703020Y7791426D01*
X55524058Y7638577D01*
X55517716Y7633969D01*
X55317033Y7510991D01*
X55310056Y7507436D01*
X55092608Y7417367D01*
X55085153Y7414944D01*
X54856288Y7359999D01*
X54848564Y7358775D01*
X54613914Y7340308D01*
X54606086Y7340308D01*
X54371435Y7358775D01*
X54363711Y7359999D01*
X54134846Y7414944D01*
X54127391Y7417367D01*
X53909943Y7507436D01*
X53902966Y7510991D01*
X53702283Y7633969D01*
X53695941Y7638577D01*
X53516979Y7791426D01*
X53511426Y7796979D01*
X53358577Y7975941D01*
X53353969Y7982283D01*
X53230991Y8182966D01*
X53227436Y8189943D01*
X53190851Y8278268D01*
X53150132Y8325617D01*
X53098463Y8340000D01*
X53095000Y8340000D01*
X53035673Y8320500D01*
X52995000Y8240000D01*
X52995000Y7936013D01*
X52993434Y7931248D01*
X52971172Y7920000D01*
X51161013Y7920000D01*
X51156248Y7921566D01*
X51145000Y7943828D01*
X51145000Y8215760D01*
X51125500Y8275087D01*
X51074605Y8311277D01*
X51012164Y8310215D01*
X50974289Y8286471D01*
X49921222Y7233404D01*
X49916311Y7229098D01*
X49810203Y7147677D01*
X49798945Y7141178D01*
X49727297Y7111501D01*
X49727295Y7111500D01*
X49678408Y7091250D01*
X49665851Y7087884D01*
X49548741Y7072467D01*
X49533240Y7070426D01*
X49526731Y7070000D01*
X43183269Y7070000D01*
X43176760Y7070426D01*
X43161259Y7072467D01*
X43044148Y7087884D01*
X43031591Y7091250D01*
X42982704Y7111500D01*
X42982702Y7111501D01*
X42911052Y7141179D01*
X42899800Y7147675D01*
X42793688Y7229099D01*
X42788776Y7233406D01*
X42589909Y7432273D01*
X42534169Y7460435D01*
X42480930Y7453950D01*
X42392609Y7417367D01*
X42385153Y7414944D01*
X42156288Y7359999D01*
X42148564Y7358775D01*
X41913914Y7340308D01*
X41906086Y7340308D01*
X41671435Y7358775D01*
X41663711Y7359999D01*
X41434846Y7414944D01*
X41427391Y7417367D01*
X41209943Y7507436D01*
X41202966Y7510991D01*
X41002283Y7633969D01*
X40995941Y7638577D01*
X40816979Y7791426D01*
X40811426Y7796979D01*
X40658577Y7975941D01*
X40653969Y7982283D01*
X40530991Y8182966D01*
X40527436Y8189943D01*
X40437367Y8407391D01*
X40434944Y8414846D01*
X40379999Y8643711D01*
X40378775Y8651435D01*
X40360308Y8886086D01*
X40360308Y8893914D01*
X40378775Y9128564D01*
X40379999Y9136288D01*
X40392311Y9187571D01*
X40392311Y14190000D01*
X40387695Y14190214D01*
X40201668Y14207451D01*
X40192619Y14209143D01*
X40015137Y14259640D01*
X40006563Y14262962D01*
X39841382Y14345212D01*
X39833558Y14350056D01*
X39686313Y14461251D01*
X39679503Y14467459D01*
X39555195Y14603818D01*
X39549647Y14611164D01*
X39452510Y14768046D01*
X39448408Y14776284D01*
X39381756Y14948336D01*
X39379232Y14957204D01*
X39345328Y15138574D01*
X39344479Y15147739D01*
X39344479Y15332260D01*
X39345328Y15341425D01*
X39379232Y15522795D01*
X39381756Y15531663D01*
X39448408Y15703715D01*
X39452510Y15711953D01*
X39549647Y15868835D01*
X39555195Y15876181D01*
X39679503Y16012540D01*
X39686313Y16018748D01*
X39833559Y16129943D01*
X39841382Y16134787D01*
X40006558Y16217034D01*
X40015140Y16220359D01*
X40192618Y16270856D01*
X40201667Y16272548D01*
X40387695Y16289786D01*
X40392311Y16290000D01*
X40887689Y16290000D01*
X40892305Y16289786D01*
X41078331Y16272548D01*
X41087380Y16270856D01*
X41264862Y16220359D01*
X41273436Y16217037D01*
X41438617Y16134787D01*
X41446441Y16129943D01*
X41593686Y16018748D01*
X41600496Y16012540D01*
X41724804Y15876181D01*
X41730352Y15868835D01*
X41827489Y15711953D01*
X41831591Y15703715D01*
X41898243Y15531663D01*
X41900767Y15522795D01*
X41934671Y15341425D01*
X41935520Y15332260D01*
X41935520Y15147739D01*
X41934671Y15138574D01*
X41900767Y14957204D01*
X41898243Y14948336D01*
X41831591Y14776284D01*
X41827489Y14768046D01*
X41730352Y14611164D01*
X41724804Y14603818D01*
X41600496Y14467459D01*
X41593686Y14461251D01*
X41446440Y14350056D01*
X41438617Y14345212D01*
X41273441Y14262965D01*
X41264859Y14259640D01*
X41087381Y14209143D01*
X41078332Y14207451D01*
X40892305Y14190214D01*
X40887689Y14190000D01*
X40392311Y14190000D01*
X40392311Y9187571D01*
X40434944Y9365153D01*
X40437367Y9372608D01*
X40527436Y9590056D01*
X40530991Y9597033D01*
X40653969Y9797716D01*
X40658577Y9804058D01*
X40811426Y9983020D01*
X40816979Y9988573D01*
X40995941Y10141422D01*
X41002283Y10146030D01*
X41202966Y10269008D01*
X41209943Y10272563D01*
X41427391Y10362632D01*
X41434846Y10365055D01*
X41663711Y10420000D01*
X41671435Y10421224D01*
X41906087Y10439692D01*
X41913913Y10439692D01*
X42148564Y10421224D01*
X42156288Y10420000D01*
X42385153Y10365055D01*
X42392608Y10362632D01*
X42610056Y10272563D01*
X42617033Y10269008D01*
X42817716Y10146030D01*
X42824058Y10141422D01*
X43003020Y9988573D01*
X43008573Y9983020D01*
X43161422Y9804058D01*
X43166030Y9797716D01*
X43289008Y9597033D01*
X43292563Y9590056D01*
X43382632Y9372608D01*
X43385055Y9365153D01*
X43440000Y9136288D01*
X43441224Y9128564D01*
X43459692Y8893913D01*
X43459692Y8886087D01*
X43441224Y8651435D01*
X43440000Y8643711D01*
X43385055Y8414846D01*
X43382634Y8407395D01*
X43346049Y8319072D01*
X43341361Y8256798D01*
X43367726Y8210092D01*
X43378529Y8199289D01*
X43449240Y8170000D01*
X48117739Y8170000D01*
X48117739Y9634479D01*
X48108574Y9635328D01*
X47927204Y9669232D01*
X47918336Y9671756D01*
X47746284Y9738408D01*
X47738046Y9742510D01*
X47581164Y9839647D01*
X47573818Y9845195D01*
X47437459Y9969503D01*
X47431251Y9976313D01*
X47320056Y10123559D01*
X47315212Y10131382D01*
X47232965Y10296558D01*
X47229640Y10305140D01*
X47179143Y10482618D01*
X47177451Y10491667D01*
X47160427Y10675392D01*
X47160427Y10684608D01*
X47177451Y10868331D01*
X47179143Y10877380D01*
X47229640Y11054862D01*
X47232962Y11063436D01*
X47315212Y11228617D01*
X47320056Y11236441D01*
X47431251Y11383686D01*
X47437459Y11390496D01*
X47573818Y11514804D01*
X47581164Y11520352D01*
X47738046Y11617489D01*
X47746284Y11621591D01*
X47918336Y11688243D01*
X47927204Y11690767D01*
X48108574Y11724671D01*
X48117739Y11725520D01*
X48302260Y11725520D01*
X48311425Y11724671D01*
X48492795Y11690767D01*
X48501663Y11688243D01*
X48673715Y11621591D01*
X48681953Y11617489D01*
X48838835Y11520352D01*
X48846181Y11514804D01*
X48982540Y11390496D01*
X48988748Y11383686D01*
X49099943Y11236440D01*
X49104787Y11228617D01*
X49187034Y11063441D01*
X49190359Y11054859D01*
X49240856Y10877381D01*
X49242548Y10868332D01*
X49259573Y10684608D01*
X49259573Y10675392D01*
X49242548Y10491668D01*
X49240856Y10482619D01*
X49190359Y10305137D01*
X49187037Y10296563D01*
X49104787Y10131382D01*
X49099943Y10123558D01*
X48988748Y9976313D01*
X48982540Y9969503D01*
X48846181Y9845195D01*
X48838835Y9839647D01*
X48681953Y9742510D01*
X48673715Y9738408D01*
X48501663Y9671756D01*
X48492795Y9669232D01*
X48311425Y9635328D01*
X48302260Y9634479D01*
X48117739Y9634479D01*
X48117739Y8170000D01*
X49260760Y8170000D01*
X49331471Y8199289D01*
X50408778Y9276596D01*
X50413689Y9280902D01*
X50519796Y9362321D01*
X50531054Y9368821D01*
X50602702Y9398498D01*
X50602704Y9398499D01*
X50651595Y9418751D01*
X50664146Y9422114D01*
X50796744Y9439571D01*
X50803281Y9440000D01*
X51706013Y9440000D01*
X51706013Y14315000D01*
X51701248Y14316566D01*
X51690000Y14338828D01*
X51690000Y16148987D01*
X51691566Y16153752D01*
X51713828Y16165000D01*
X51715000Y16165000D01*
X51774327Y16184500D01*
X51815000Y16265000D01*
X51815000Y16755000D01*
X51795500Y16814327D01*
X51715000Y16855000D01*
X51706013Y16855000D01*
X51701248Y16856566D01*
X51690000Y16878828D01*
X51690000Y18688987D01*
X51691566Y18693752D01*
X51713828Y18705000D01*
X51715000Y18705000D01*
X51774327Y18724500D01*
X51815000Y18805000D01*
X51815000Y21835000D01*
X51795500Y21894327D01*
X51715000Y21935000D01*
X51706013Y21935000D01*
X51701248Y21936566D01*
X51690000Y21958828D01*
X51690000Y23768987D01*
X51691566Y23773752D01*
X51713828Y23785000D01*
X53023987Y23785000D01*
X53028752Y23783434D01*
X53040000Y23761172D01*
X53040000Y22917914D01*
X53060680Y22857018D01*
X53460680Y22335992D01*
X53512275Y22300808D01*
X53574683Y22303095D01*
X53623565Y22341961D01*
X53640000Y22396888D01*
X53640000Y23768987D01*
X53641566Y23773752D01*
X53663828Y23785000D01*
X54973987Y23785000D01*
X54997188Y23777374D01*
X55010274Y23764289D01*
X55099942Y23764028D01*
X55246558Y23837034D01*
X55255140Y23840359D01*
X55432618Y23890856D01*
X55441667Y23892548D01*
X55627695Y23909786D01*
X55632311Y23910000D01*
X55632311Y23910000D01*
X55632311Y24350000D01*
X55627695Y24350214D01*
X55441668Y24367451D01*
X55432619Y24369143D01*
X55255137Y24419640D01*
X55246558Y24422964D01*
X55098373Y24496751D01*
X55008703Y24496489D01*
X54966172Y24475000D01*
X53656013Y24475000D01*
X53651248Y24476566D01*
X53640000Y24498828D01*
X53640000Y25863112D01*
X53620500Y25922439D01*
X53569605Y25958629D01*
X53507164Y25957567D01*
X53460680Y25924008D01*
X53060680Y25402982D01*
X53040000Y25342086D01*
X53040000Y24491013D01*
X53038434Y24486248D01*
X53016172Y24475000D01*
X51706013Y24475000D01*
X51701248Y24476566D01*
X51690000Y24498828D01*
X51690000Y26308987D01*
X51691566Y26313752D01*
X51713828Y26325000D01*
X51715000Y26325000D01*
X51774327Y26344500D01*
X51815000Y26425000D01*
X51815000Y26915000D01*
X51795500Y26974327D01*
X51715000Y27015000D01*
X51706013Y27015000D01*
X51701248Y27016566D01*
X51690000Y27038828D01*
X51690000Y28848987D01*
X51691566Y28853752D01*
X51713828Y28865000D01*
X51715000Y28865000D01*
X51774327Y28884500D01*
X51815000Y28965000D01*
X51815000Y29455000D01*
X51795500Y29514327D01*
X51715000Y29555000D01*
X51706013Y29555000D01*
X51701248Y29556566D01*
X51690000Y29578828D01*
X51690000Y31388987D01*
X51691566Y31393752D01*
X51713828Y31405000D01*
X53023987Y31405000D01*
X53028752Y31403434D01*
X53040000Y31381172D01*
X53040000Y29571013D01*
X53038434Y29566248D01*
X53016172Y29555000D01*
X53015000Y29555000D01*
X52955673Y29535500D01*
X52915000Y29455000D01*
X52915000Y28965000D01*
X52934500Y28905673D01*
X53015000Y28865000D01*
X53023987Y28865000D01*
X53028752Y28863434D01*
X53040000Y28841172D01*
X53040000Y27285619D01*
X53059500Y27226292D01*
X53110395Y27190102D01*
X53178271Y27193232D01*
X53191595Y27198751D01*
X53204148Y27202115D01*
X53226975Y27205120D01*
X53239779Y27207665D01*
X53262009Y27213616D01*
X53274900Y27215309D01*
X53297752Y27215304D01*
X53310827Y27216159D01*
X53336754Y27219572D01*
X53343281Y27220000D01*
X53540000Y27220000D01*
X53599327Y27239500D01*
X53640000Y27320000D01*
X53640000Y28848987D01*
X53641566Y28853752D01*
X53663828Y28865000D01*
X54973987Y28865000D01*
X54997188Y28857374D01*
X55010274Y28844289D01*
X55099942Y28844028D01*
X55246558Y28917034D01*
X55255140Y28920359D01*
X55432618Y28970856D01*
X55441667Y28972548D01*
X55627695Y28989786D01*
X55632311Y28990000D01*
X55632311Y28990000D01*
X55632311Y29430000D01*
X55627695Y29430214D01*
X55441668Y29447451D01*
X55432619Y29449143D01*
X55255137Y29499640D01*
X55246558Y29502964D01*
X55098373Y29576751D01*
X55008703Y29576489D01*
X54966172Y29555000D01*
X53656013Y29555000D01*
X53651248Y29556566D01*
X53640000Y29578828D01*
X53640000Y31388987D01*
X53641566Y31393752D01*
X53663828Y31405000D01*
X54973987Y31405000D01*
X54997188Y31397374D01*
X55010274Y31384289D01*
X55099942Y31384028D01*
X55246558Y31457034D01*
X55255140Y31460359D01*
X55432618Y31510856D01*
X55441667Y31512548D01*
X55627695Y31529786D01*
X55632311Y31530000D01*
X56127689Y31530000D01*
X56132305Y31529786D01*
X56318331Y31512548D01*
X56327380Y31510856D01*
X56504862Y31460359D01*
X56513436Y31457037D01*
X56678617Y31374787D01*
X56686441Y31369943D01*
X56833686Y31258748D01*
X56840496Y31252540D01*
X56964804Y31116181D01*
X56970352Y31108835D01*
X57067489Y30951953D01*
X57071591Y30943715D01*
X57138243Y30771663D01*
X57140767Y30762795D01*
X57174671Y30581425D01*
X57175520Y30572260D01*
X57175520Y30387739D01*
X57174671Y30378574D01*
X57140767Y30197204D01*
X57138243Y30188336D01*
X57071591Y30016284D01*
X57067489Y30008046D01*
X56970352Y29851164D01*
X56964804Y29843818D01*
X56840496Y29707459D01*
X56833686Y29701251D01*
X56686440Y29590056D01*
X56678617Y29585212D01*
X56513441Y29502965D01*
X56504859Y29499640D01*
X56327381Y29449143D01*
X56318332Y29447451D01*
X56132305Y29430214D01*
X56127689Y29430000D01*
X55632311Y29430000D01*
X55632311Y28990000D01*
X56127689Y28990000D01*
X56132305Y28989786D01*
X56318331Y28972548D01*
X56327380Y28970856D01*
X56504862Y28920359D01*
X56513436Y28917037D01*
X56678617Y28834787D01*
X56686441Y28829943D01*
X56833686Y28718748D01*
X56840496Y28712540D01*
X56964804Y28576181D01*
X56970352Y28568835D01*
X57067489Y28411953D01*
X57071591Y28403715D01*
X57138243Y28231663D01*
X57140767Y28222795D01*
X57174671Y28041425D01*
X57175520Y28032260D01*
X57175520Y27847739D01*
X57174671Y27838574D01*
X57149842Y27705754D01*
X57158108Y27643854D01*
X57201487Y27598928D01*
X57263060Y27588498D01*
X57318850Y27616668D01*
X57943778Y28241596D01*
X57948689Y28245902D01*
X58054796Y28327321D01*
X58066055Y28333822D01*
X58129004Y28359896D01*
X58186592Y28383750D01*
X58199151Y28387115D01*
X58331744Y28404571D01*
X58338281Y28405000D01*
X60141032Y28405000D01*
X60218333Y28441560D01*
X60285135Y28522957D01*
X60292044Y28529867D01*
X60428411Y28641780D01*
X60436538Y28647211D01*
X60592115Y28730368D01*
X60601153Y28734112D01*
X60769962Y28785320D01*
X60779557Y28787228D01*
X60955106Y28804518D01*
X60955116Y28804518D01*
X60955116Y29195481D01*
X60779548Y29212772D01*
X60769966Y29214678D01*
X60601153Y29265887D01*
X60592115Y29269631D01*
X60436538Y29352788D01*
X60428411Y29358219D01*
X60292051Y29470127D01*
X60285127Y29477051D01*
X60218334Y29558439D01*
X60141033Y29595000D01*
X60028270Y29595000D01*
X60021761Y29595426D01*
X59889141Y29612885D01*
X59876599Y29616246D01*
X59756052Y29666179D01*
X59744801Y29672675D01*
X59641512Y29751931D01*
X59637133Y29756359D01*
X59634449Y29757734D01*
X59302011Y30090172D01*
X59301362Y30092128D01*
X59296933Y30096508D01*
X59259726Y30144999D01*
X59259725Y30145001D01*
X59223737Y30191901D01*
X59220706Y30200829D01*
X59208925Y30216494D01*
X59161246Y30331599D01*
X59157885Y30344141D01*
X59140426Y30476761D01*
X59140000Y30483270D01*
X59140000Y31480760D01*
X59110711Y31551471D01*
X57318850Y33343332D01*
X57263110Y33371494D01*
X57201532Y33361096D01*
X57158131Y33316192D01*
X57149842Y33254246D01*
X57174671Y33121425D01*
X57175520Y33112260D01*
X57175520Y32927739D01*
X57174671Y32918574D01*
X57140767Y32737204D01*
X57138243Y32728336D01*
X57071591Y32556284D01*
X57067489Y32548046D01*
X56970352Y32391164D01*
X56964804Y32383818D01*
X56840496Y32247459D01*
X56833686Y32241251D01*
X56686440Y32130056D01*
X56678617Y32125212D01*
X56513441Y32042965D01*
X56504859Y32039640D01*
X56327381Y31989143D01*
X56318332Y31987451D01*
X56132305Y31970214D01*
X56127689Y31970000D01*
X55632311Y31970000D01*
X55627695Y31970214D01*
X55441668Y31987451D01*
X55432619Y31989143D01*
X55255137Y32039640D01*
X55246558Y32042964D01*
X55098373Y32116751D01*
X55008703Y32116489D01*
X54966172Y32095000D01*
X53656013Y32095000D01*
X53651248Y32096566D01*
X53640000Y32118828D01*
X53640000Y33483112D01*
X53620500Y33542439D01*
X53569605Y33578629D01*
X53507164Y33577567D01*
X53460680Y33544008D01*
X53060680Y33022982D01*
X53040000Y32962086D01*
X53040000Y32111013D01*
X53038434Y32106248D01*
X53016172Y32095000D01*
X51706013Y32095000D01*
X51701248Y32096566D01*
X51690000Y32118828D01*
X51690000Y33928987D01*
X51691566Y33933752D01*
X51713828Y33945000D01*
X51715000Y33945000D01*
X51774327Y33964500D01*
X51815000Y34045000D01*
X51815000Y34535000D01*
X51795500Y34594327D01*
X51715000Y34635000D01*
X51706013Y34635000D01*
X51701248Y34636566D01*
X51690000Y34658828D01*
X51690000Y36468987D01*
X51691566Y36473752D01*
X51713828Y36485000D01*
X51715000Y36485000D01*
X51774327Y36504500D01*
X51815000Y36585000D01*
X51815000Y37075000D01*
X51795500Y37134327D01*
X51715000Y37175000D01*
X51706013Y37175000D01*
X51701248Y37176566D01*
X51690000Y37198828D01*
X51690000Y39008987D01*
X51691566Y39013752D01*
X51713828Y39025000D01*
X53023987Y39025000D01*
X53028752Y39023434D01*
X53040000Y39001172D01*
X53040000Y37191013D01*
X53038434Y37186248D01*
X53016172Y37175000D01*
X53015000Y37175000D01*
X52955673Y37155500D01*
X52915000Y37075000D01*
X52915000Y36585000D01*
X52934500Y36525673D01*
X53015000Y36485000D01*
X53023987Y36485000D01*
X53028752Y36483434D01*
X53040000Y36461172D01*
X53040000Y34905619D01*
X53059500Y34846292D01*
X53110395Y34810102D01*
X53178271Y34813232D01*
X53191595Y34818751D01*
X53204148Y34822115D01*
X53226975Y34825120D01*
X53239779Y34827665D01*
X53262009Y34833616D01*
X53274900Y34835309D01*
X53297752Y34835304D01*
X53310827Y34836159D01*
X53336754Y34839572D01*
X53343281Y34840000D01*
X53540000Y34840000D01*
X53599327Y34859500D01*
X53640000Y34940000D01*
X53640000Y36468987D01*
X53641566Y36473752D01*
X53663828Y36485000D01*
X54973987Y36485000D01*
X54997188Y36477374D01*
X55010274Y36464289D01*
X55099942Y36464028D01*
X55246558Y36537034D01*
X55255140Y36540359D01*
X55432618Y36590856D01*
X55441667Y36592548D01*
X55627695Y36609786D01*
X55632311Y36610000D01*
X55632311Y36610000D01*
X55632311Y37050000D01*
X55627695Y37050214D01*
X55441668Y37067451D01*
X55432619Y37069143D01*
X55255137Y37119640D01*
X55246558Y37122964D01*
X55098373Y37196751D01*
X55008703Y37196489D01*
X54966172Y37175000D01*
X53656013Y37175000D01*
X53651248Y37176566D01*
X53640000Y37198828D01*
X53640000Y39008987D01*
X53641566Y39013752D01*
X53663828Y39025000D01*
X54973987Y39025000D01*
X54997188Y39017374D01*
X55010274Y39004289D01*
X55099942Y39004028D01*
X55246558Y39077034D01*
X55255140Y39080359D01*
X55432618Y39130856D01*
X55441667Y39132548D01*
X55627695Y39149786D01*
X55632311Y39150000D01*
X56127689Y39150000D01*
X56132305Y39149786D01*
X56318331Y39132548D01*
X56327380Y39130856D01*
X56504862Y39080359D01*
X56513436Y39077037D01*
X56678617Y38994787D01*
X56686441Y38989943D01*
X56833686Y38878748D01*
X56840496Y38872540D01*
X56964804Y38736181D01*
X56970352Y38728835D01*
X57067489Y38571953D01*
X57071591Y38563715D01*
X57138243Y38391663D01*
X57140767Y38382795D01*
X57174671Y38201425D01*
X57175520Y38192260D01*
X57175520Y38007739D01*
X57174671Y37998574D01*
X57140767Y37817204D01*
X57138243Y37808336D01*
X57071591Y37636284D01*
X57067489Y37628046D01*
X56970352Y37471164D01*
X56964804Y37463818D01*
X56840496Y37327459D01*
X56833686Y37321251D01*
X56686440Y37210056D01*
X56678617Y37205212D01*
X56513441Y37122965D01*
X56504859Y37119640D01*
X56327381Y37069143D01*
X56318332Y37067451D01*
X56132305Y37050214D01*
X56127689Y37050000D01*
X55632311Y37050000D01*
X55632311Y36610000D01*
X56127689Y36610000D01*
X56132305Y36609786D01*
X56318331Y36592548D01*
X56327380Y36590856D01*
X56504862Y36540359D01*
X56513436Y36537037D01*
X56678617Y36454787D01*
X56686441Y36449943D01*
X56833686Y36338748D01*
X56840496Y36332540D01*
X56964804Y36196181D01*
X56970352Y36188835D01*
X57067489Y36031953D01*
X57071591Y36023715D01*
X57138243Y35851663D01*
X57140767Y35842795D01*
X57174671Y35661425D01*
X57175520Y35652260D01*
X57175520Y35467739D01*
X57174671Y35458574D01*
X57140767Y35277204D01*
X57138243Y35268336D01*
X57071591Y35096284D01*
X57067489Y35088046D01*
X57008418Y34992643D01*
X56993766Y34931936D01*
X57017986Y34874375D01*
X57093440Y34840000D01*
X57146719Y34840000D01*
X57153256Y34839571D01*
X57285851Y34822115D01*
X57298404Y34818751D01*
X57348308Y34798080D01*
X57418949Y34768820D01*
X57430200Y34762324D01*
X57536311Y34680902D01*
X57541222Y34676596D01*
X60076596Y32141222D01*
X60080902Y32136311D01*
X60162321Y32030203D01*
X60168821Y32018945D01*
X60198498Y31947297D01*
X60198499Y31947295D01*
X60218751Y31898404D01*
X60222114Y31885853D01*
X60239571Y31753256D01*
X60240000Y31746719D01*
X60240000Y30988587D01*
X60259500Y30929260D01*
X60310395Y30893070D01*
X60372836Y30894132D01*
X60403439Y30911286D01*
X60428411Y30931780D01*
X60436538Y30937211D01*
X60592115Y31020368D01*
X60601153Y31024112D01*
X60769962Y31075320D01*
X60779557Y31077228D01*
X60955106Y31094518D01*
X60964894Y31094518D01*
X61140442Y31077228D01*
X61150037Y31075320D01*
X61318846Y31024112D01*
X61327884Y31020368D01*
X61483461Y30937211D01*
X61491588Y30931780D01*
X61627948Y30819872D01*
X61634872Y30812948D01*
X61746780Y30676588D01*
X61752211Y30668461D01*
X61835368Y30512884D01*
X61839112Y30503846D01*
X61890320Y30335037D01*
X61892228Y30325442D01*
X61909518Y30149894D01*
X61909518Y30140106D01*
X61892228Y29964557D01*
X61890320Y29954962D01*
X61839112Y29786153D01*
X61835368Y29777115D01*
X61752211Y29621538D01*
X61746780Y29613411D01*
X61634872Y29477051D01*
X61627948Y29470127D01*
X61491588Y29358219D01*
X61483461Y29352788D01*
X61327884Y29269631D01*
X61318846Y29265887D01*
X61150033Y29214678D01*
X61140451Y29212772D01*
X60964884Y29195481D01*
X60955116Y29195481D01*
X60955116Y28804518D01*
X60964894Y28804518D01*
X61140442Y28787228D01*
X61150037Y28785320D01*
X61318846Y28734112D01*
X61327884Y28730368D01*
X61483461Y28647211D01*
X61491588Y28641780D01*
X61627948Y28529872D01*
X61634872Y28522948D01*
X61746780Y28386588D01*
X61752211Y28378461D01*
X61835368Y28222884D01*
X61839112Y28213846D01*
X61890320Y28045037D01*
X61892228Y28035442D01*
X61909518Y27859894D01*
X61909518Y27850106D01*
X61892228Y27674557D01*
X61890320Y27664962D01*
X61839112Y27496153D01*
X61835368Y27487115D01*
X61752211Y27331538D01*
X61746780Y27323411D01*
X61634872Y27187051D01*
X61627948Y27180127D01*
X61491588Y27068219D01*
X61483461Y27062788D01*
X61327884Y26979631D01*
X61318846Y26975887D01*
X61150033Y26924678D01*
X61140451Y26922772D01*
X60964884Y26905481D01*
X60955116Y26905481D01*
X60779548Y26922772D01*
X60769966Y26924678D01*
X60601153Y26975887D01*
X60592115Y26979631D01*
X60436538Y27062788D01*
X60428411Y27068219D01*
X60292051Y27180127D01*
X60285127Y27187051D01*
X60218334Y27268439D01*
X60141033Y27305000D01*
X58604240Y27305000D01*
X58533529Y27275711D01*
X57541222Y26283404D01*
X57536311Y26279098D01*
X57430203Y26197677D01*
X57418945Y26191178D01*
X57347297Y26161501D01*
X57347295Y26161500D01*
X57298408Y26141250D01*
X57285851Y26137884D01*
X57168741Y26122467D01*
X57153240Y26120426D01*
X57146731Y26120000D01*
X57093439Y26120000D01*
X57034112Y26100500D01*
X56997922Y26049605D01*
X57008417Y25967357D01*
X57067489Y25871953D01*
X57071591Y25863715D01*
X57138243Y25691663D01*
X57140767Y25682795D01*
X57174671Y25501425D01*
X57175520Y25492260D01*
X57175520Y25307739D01*
X57174671Y25298574D01*
X57140767Y25117204D01*
X57138243Y25108336D01*
X57071591Y24936284D01*
X57067489Y24928046D01*
X56970352Y24771164D01*
X56964804Y24763818D01*
X56840496Y24627459D01*
X56833686Y24621251D01*
X56686440Y24510056D01*
X56678617Y24505212D01*
X56513441Y24422965D01*
X56504859Y24419640D01*
X56327381Y24369143D01*
X56318332Y24367451D01*
X56132305Y24350214D01*
X56127689Y24350000D01*
X55632311Y24350000D01*
X55632311Y23910000D01*
X56127689Y23910000D01*
X56132305Y23909786D01*
X56318331Y23892548D01*
X56327380Y23890856D01*
X56504862Y23840359D01*
X56513436Y23837037D01*
X56678617Y23754787D01*
X56686441Y23749943D01*
X56833686Y23638748D01*
X56840496Y23632540D01*
X56964804Y23496181D01*
X56970352Y23488835D01*
X57067489Y23331953D01*
X57071591Y23323715D01*
X57138243Y23151663D01*
X57140767Y23142795D01*
X57174671Y22961425D01*
X57175520Y22952260D01*
X57175520Y22767739D01*
X57174671Y22758574D01*
X57149842Y22625754D01*
X57158108Y22563854D01*
X57201487Y22518928D01*
X57263060Y22508498D01*
X57318850Y22536668D01*
X57840711Y23058529D01*
X57870000Y23129240D01*
X57870000Y24126730D01*
X57870426Y24133239D01*
X57887885Y24265858D01*
X57891246Y24278400D01*
X57942635Y24402461D01*
X57946594Y24408789D01*
X57955890Y24420904D01*
X58022161Y24507269D01*
X58022163Y24507272D01*
X58029101Y24516314D01*
X58033403Y24521220D01*
X59463779Y25951596D01*
X59468690Y25955902D01*
X59574797Y26037321D01*
X59586056Y26043822D01*
X59634944Y26064072D01*
X59706592Y26093751D01*
X59719148Y26097115D01*
X59851744Y26114571D01*
X59858281Y26115000D01*
X60141032Y26115000D01*
X60218333Y26151560D01*
X60285135Y26232957D01*
X60292044Y26239867D01*
X60428411Y26351780D01*
X60436538Y26357211D01*
X60592115Y26440368D01*
X60601153Y26444112D01*
X60769962Y26495320D01*
X60779557Y26497228D01*
X60955106Y26514518D01*
X60964894Y26514518D01*
X61140442Y26497228D01*
X61150037Y26495320D01*
X61318846Y26444112D01*
X61327884Y26440368D01*
X61483461Y26357211D01*
X61491588Y26351780D01*
X61627948Y26239872D01*
X61634872Y26232948D01*
X61746780Y26096588D01*
X61752211Y26088461D01*
X61835368Y25932884D01*
X61839112Y25923846D01*
X61890320Y25755037D01*
X61892228Y25745442D01*
X61909518Y25569894D01*
X61909518Y25560106D01*
X61892228Y25384557D01*
X61890320Y25374962D01*
X61839112Y25206153D01*
X61835368Y25197115D01*
X61752211Y25041538D01*
X61746780Y25033411D01*
X61634872Y24897051D01*
X61627948Y24890127D01*
X61491588Y24778219D01*
X61483461Y24772788D01*
X61327884Y24689631D01*
X61318846Y24685887D01*
X61150033Y24634678D01*
X61140451Y24632772D01*
X60964884Y24615481D01*
X60955116Y24615481D01*
X60779548Y24632772D01*
X60769966Y24634678D01*
X60601153Y24685887D01*
X60592115Y24689631D01*
X60436538Y24772788D01*
X60428411Y24778219D01*
X60292051Y24890127D01*
X60285127Y24897051D01*
X60218334Y24978439D01*
X60141033Y25015000D01*
X60124239Y25015000D01*
X60053528Y24985711D01*
X58999289Y23931472D01*
X58970000Y23860761D01*
X58970000Y22863281D01*
X58969571Y22856744D01*
X58952115Y22724148D01*
X58948751Y22711595D01*
X58919095Y22640000D01*
X58919095Y22639999D01*
X58898822Y22591055D01*
X58892321Y22579796D01*
X58810902Y22473689D01*
X58806596Y22468778D01*
X57541222Y21203404D01*
X57536311Y21199098D01*
X57430203Y21117677D01*
X57418945Y21111178D01*
X57347297Y21081501D01*
X57347295Y21081500D01*
X57298408Y21061250D01*
X57285851Y21057884D01*
X57168741Y21042467D01*
X57153240Y21040426D01*
X57146731Y21040000D01*
X57093439Y21040000D01*
X57034112Y21020500D01*
X56997922Y20969605D01*
X57008417Y20887357D01*
X57067489Y20791953D01*
X57071591Y20783715D01*
X57138243Y20611663D01*
X57140767Y20602795D01*
X57174671Y20421425D01*
X57175520Y20412260D01*
X57175520Y20227739D01*
X57174671Y20218574D01*
X57140767Y20037204D01*
X57138243Y20028336D01*
X57071591Y19856284D01*
X57067489Y19848046D01*
X56970352Y19691164D01*
X56964804Y19683818D01*
X56840496Y19547459D01*
X56833686Y19541251D01*
X56686440Y19430056D01*
X56678617Y19425212D01*
X56513441Y19342965D01*
X56504859Y19339640D01*
X56327381Y19289143D01*
X56318332Y19287451D01*
X56132305Y19270214D01*
X56127689Y19270000D01*
X55632311Y19270000D01*
X55627695Y19270214D01*
X55441668Y19287451D01*
X55432619Y19289143D01*
X55255137Y19339640D01*
X55246563Y19342962D01*
X55081382Y19425212D01*
X55073558Y19430056D01*
X54926313Y19541251D01*
X54919503Y19547459D01*
X54795195Y19683818D01*
X54789647Y19691164D01*
X54692510Y19848046D01*
X54688408Y19856284D01*
X54621756Y20028336D01*
X54619232Y20037204D01*
X54585328Y20218574D01*
X54584479Y20227739D01*
X54584479Y20412260D01*
X54585328Y20421425D01*
X54619232Y20602795D01*
X54621756Y20611663D01*
X54688408Y20783715D01*
X54692510Y20791953D01*
X54751582Y20887357D01*
X54766234Y20948063D01*
X54742014Y21005625D01*
X54666560Y21040000D01*
X53343270Y21040000D01*
X53336758Y21040427D01*
X53310827Y21043840D01*
X53297752Y21044695D01*
X53274900Y21044690D01*
X53262008Y21046384D01*
X53239778Y21052334D01*
X53226975Y21054879D01*
X53204148Y21057884D01*
X53191591Y21061249D01*
X53170467Y21069999D01*
X53158055Y21074211D01*
X53135978Y21080121D01*
X53123971Y21085091D01*
X53104033Y21096595D01*
X53092325Y21102367D01*
X53071057Y21111177D01*
X53065004Y21114672D01*
X53003875Y21127451D01*
X52947085Y21101472D01*
X52915000Y21028072D01*
X52915000Y18805000D01*
X52934500Y18745673D01*
X53015000Y18705000D01*
X53023987Y18705000D01*
X53028752Y18703434D01*
X53040000Y18681172D01*
X53040000Y16871013D01*
X53038434Y16866248D01*
X53016172Y16855000D01*
X53015000Y16855000D01*
X52955673Y16835500D01*
X52915000Y16755000D01*
X52915000Y16265000D01*
X52934500Y16205673D01*
X53015000Y16165000D01*
X53023987Y16165000D01*
X53028752Y16163434D01*
X53040000Y16141172D01*
X53040000Y14331013D01*
X53038434Y14326248D01*
X53016172Y14315000D01*
X51706013Y14315000D01*
X51706013Y9440000D01*
X53098463Y9440000D01*
X53157790Y9459500D01*
X53190851Y9501732D01*
X53227436Y9590056D01*
X53230991Y9597033D01*
X53353969Y9797716D01*
X53358577Y9804058D01*
X53511426Y9983020D01*
X53516979Y9988573D01*
X53695941Y10141422D01*
X53702283Y10146030D01*
X53902966Y10269008D01*
X53909943Y10272563D01*
X54127391Y10362632D01*
X54134846Y10365055D01*
X54363711Y10420000D01*
X54371435Y10421224D01*
X54606087Y10439692D01*
X54613913Y10439692D01*
X54848564Y10421224D01*
X54856288Y10420000D01*
X55085153Y10365055D01*
X55092609Y10362632D01*
X55180930Y10326049D01*
X55243204Y10321361D01*
X55289909Y10347726D01*
X55632311Y10690128D01*
X55632311Y14190000D01*
X55627695Y14190214D01*
X55441668Y14207451D01*
X55432619Y14209143D01*
X55255137Y14259640D01*
X55246558Y14262964D01*
X55098373Y14336751D01*
X55008703Y14336489D01*
X54966172Y14315000D01*
X53656013Y14315000D01*
X53651248Y14316566D01*
X53640000Y14338828D01*
X53640000Y16148987D01*
X53641566Y16153752D01*
X53663828Y16165000D01*
X54973987Y16165000D01*
X54997188Y16157374D01*
X55010274Y16144289D01*
X55099942Y16144028D01*
X55246558Y16217034D01*
X55255140Y16220359D01*
X55432618Y16270856D01*
X55441667Y16272548D01*
X55627695Y16289786D01*
X55632311Y16290000D01*
X55632311Y16290000D01*
X55632311Y16730000D01*
X55627695Y16730214D01*
X55441668Y16747451D01*
X55432619Y16749143D01*
X55255137Y16799640D01*
X55246558Y16802964D01*
X55098373Y16876751D01*
X55008703Y16876489D01*
X54966172Y16855000D01*
X53656013Y16855000D01*
X53651248Y16856566D01*
X53640000Y16878828D01*
X53640000Y18688987D01*
X53641566Y18693752D01*
X53663828Y18705000D01*
X54973987Y18705000D01*
X54997188Y18697374D01*
X55010274Y18684289D01*
X55099942Y18684028D01*
X55246558Y18757034D01*
X55255140Y18760359D01*
X55432618Y18810856D01*
X55441667Y18812548D01*
X55627695Y18829786D01*
X55632311Y18830000D01*
X56127689Y18830000D01*
X56132305Y18829786D01*
X56318331Y18812548D01*
X56327380Y18810856D01*
X56504862Y18760359D01*
X56513436Y18757037D01*
X56678617Y18674787D01*
X56686441Y18669943D01*
X56833686Y18558748D01*
X56840496Y18552540D01*
X56964804Y18416181D01*
X56970352Y18408835D01*
X57067489Y18251953D01*
X57071591Y18243715D01*
X57138243Y18071663D01*
X57140767Y18062795D01*
X57174671Y17881425D01*
X57175520Y17872260D01*
X57175520Y17687739D01*
X57174671Y17678574D01*
X57140767Y17497204D01*
X57138243Y17488336D01*
X57071591Y17316284D01*
X57067489Y17308046D01*
X56970352Y17151164D01*
X56964804Y17143818D01*
X56840496Y17007459D01*
X56833686Y17001251D01*
X56686440Y16890056D01*
X56678617Y16885212D01*
X56513441Y16802965D01*
X56504859Y16799640D01*
X56327381Y16749143D01*
X56318332Y16747451D01*
X56132305Y16730214D01*
X56127689Y16730000D01*
X55632311Y16730000D01*
X55632311Y16290000D01*
X56127689Y16290000D01*
X56132305Y16289786D01*
X56318331Y16272548D01*
X56327380Y16270856D01*
X56504862Y16220359D01*
X56513436Y16217037D01*
X56678617Y16134787D01*
X56686441Y16129943D01*
X56833686Y16018748D01*
X56840496Y16012540D01*
X56964804Y15876181D01*
X56970352Y15868835D01*
X57067489Y15711953D01*
X57071591Y15703715D01*
X57138243Y15531663D01*
X57140767Y15522795D01*
X57174671Y15341425D01*
X57175520Y15332260D01*
X57175520Y15147739D01*
X57174671Y15138574D01*
X57140767Y14957204D01*
X57138243Y14948336D01*
X57071591Y14776284D01*
X57067489Y14768046D01*
X56970352Y14611164D01*
X56964804Y14603818D01*
X56840496Y14467459D01*
X56833686Y14461251D01*
X56686440Y14350056D01*
X56678617Y14345212D01*
X56513441Y14262965D01*
X56504859Y14259640D01*
X56327381Y14209143D01*
X56318332Y14207451D01*
X56132305Y14190214D01*
X56127689Y14190000D01*
X55632311Y14190000D01*
X55632311Y10690128D01*
X56761089Y11818906D01*
X56761092Y11818910D01*
X57840711Y12898529D01*
X57870000Y12969240D01*
X57870000Y16506730D01*
X57870426Y16513239D01*
X57887885Y16645858D01*
X57891246Y16658399D01*
X57928310Y16747878D01*
X57941180Y16778949D01*
X57947675Y16790198D01*
X57951617Y16795335D01*
X57951618Y16795337D01*
X58022161Y16887270D01*
X58022163Y16887272D01*
X58029101Y16896314D01*
X58033403Y16901220D01*
X60568779Y19436596D01*
X60573690Y19440902D01*
X60679797Y19522321D01*
X60691056Y19528822D01*
X60727796Y19544040D01*
X60811592Y19578750D01*
X60824151Y19582115D01*
X60955116Y19599356D01*
X60955116Y22325481D01*
X60779548Y22342772D01*
X60769966Y22344678D01*
X60601153Y22395887D01*
X60592115Y22399631D01*
X60436538Y22482788D01*
X60428411Y22488219D01*
X60292051Y22600127D01*
X60285127Y22607051D01*
X60173219Y22743411D01*
X60167788Y22751538D01*
X60084631Y22907115D01*
X60080887Y22916153D01*
X60029678Y23084966D01*
X60027772Y23094548D01*
X60010481Y23270116D01*
X60010481Y23279884D01*
X60027772Y23455451D01*
X60029678Y23465033D01*
X60080887Y23633846D01*
X60084631Y23642884D01*
X60167788Y23798461D01*
X60173219Y23806588D01*
X60285127Y23942948D01*
X60292051Y23949872D01*
X60428411Y24061780D01*
X60436538Y24067211D01*
X60592115Y24150368D01*
X60601153Y24154112D01*
X60769962Y24205320D01*
X60779557Y24207228D01*
X60955106Y24224518D01*
X60964894Y24224518D01*
X61140442Y24207228D01*
X61150037Y24205320D01*
X61318846Y24154112D01*
X61327884Y24150368D01*
X61483461Y24067211D01*
X61491588Y24061780D01*
X61627948Y23949872D01*
X61634872Y23942948D01*
X61746780Y23806588D01*
X61752211Y23798461D01*
X61835368Y23642884D01*
X61839112Y23633846D01*
X61890320Y23465037D01*
X61892228Y23455442D01*
X61909518Y23279894D01*
X61909518Y23270106D01*
X61892228Y23094557D01*
X61890320Y23084962D01*
X61839112Y22916153D01*
X61835368Y22907115D01*
X61752211Y22751538D01*
X61746780Y22743411D01*
X61634872Y22607051D01*
X61627948Y22600127D01*
X61491588Y22488219D01*
X61483461Y22482788D01*
X61327884Y22399631D01*
X61318846Y22395887D01*
X61150033Y22344678D01*
X61140451Y22342772D01*
X60964884Y22325481D01*
X60955116Y22325481D01*
X60955116Y19599356D01*
X60956744Y19599571D01*
X60963281Y19600000D01*
X63230760Y19600000D01*
X63301471Y19629289D01*
X64190711Y20518529D01*
X64220000Y20589240D01*
X64220000Y23576413D01*
X64200500Y23635740D01*
X64149605Y23671930D01*
X64087164Y23670868D01*
X64056561Y23653714D01*
X64031588Y23633219D01*
X64023461Y23627788D01*
X63867884Y23544631D01*
X63858846Y23540887D01*
X63690033Y23489678D01*
X63680451Y23487772D01*
X63504884Y23470481D01*
X63495116Y23470481D01*
X63319548Y23487772D01*
X63309966Y23489678D01*
X63141153Y23540887D01*
X63132115Y23544631D01*
X62976538Y23627788D01*
X62968411Y23633219D01*
X62832051Y23745127D01*
X62825127Y23752051D01*
X62713219Y23888411D01*
X62707788Y23896538D01*
X62624631Y24052115D01*
X62620887Y24061153D01*
X62569678Y24229966D01*
X62567772Y24239548D01*
X62550481Y24415116D01*
X62550481Y24424884D01*
X62567772Y24600451D01*
X62569678Y24610033D01*
X62620887Y24778846D01*
X62624631Y24787884D01*
X62707788Y24943461D01*
X62713219Y24951588D01*
X62825127Y25087948D01*
X62832051Y25094872D01*
X62968411Y25206780D01*
X62976538Y25212211D01*
X63132115Y25295368D01*
X63141153Y25299112D01*
X63309962Y25350320D01*
X63319557Y25352228D01*
X63495106Y25369518D01*
X63504894Y25369518D01*
X63680442Y25352228D01*
X63690037Y25350320D01*
X63858846Y25299112D01*
X63867884Y25295368D01*
X64023461Y25212211D01*
X64031588Y25206780D01*
X64056561Y25186285D01*
X64114792Y25163722D01*
X64175054Y25180105D01*
X64213846Y25229047D01*
X64220000Y25263586D01*
X64220000Y31480760D01*
X64190711Y31551471D01*
X63301471Y32440711D01*
X63230760Y32470000D01*
X60963270Y32470000D01*
X60956761Y32470426D01*
X60824141Y32487885D01*
X60811599Y32491246D01*
X60691052Y32541179D01*
X60679801Y32547675D01*
X60576512Y32626931D01*
X60572133Y32631359D01*
X60569449Y32632734D01*
X58032009Y35170174D01*
X58031359Y35172133D01*
X58026931Y35176512D01*
X58001315Y35209896D01*
X57947678Y35279797D01*
X57941177Y35291056D01*
X57927639Y35323740D01*
X57891247Y35411596D01*
X57887885Y35424143D01*
X57870426Y35556761D01*
X57870000Y35563270D01*
X57870000Y39100760D01*
X57840711Y39171471D01*
X57059633Y39952549D01*
X57003893Y39980711D01*
X56942315Y39970313D01*
X56915021Y39949208D01*
X56840496Y39867459D01*
X56833686Y39861251D01*
X56686440Y39750056D01*
X56678617Y39745212D01*
X56513441Y39662965D01*
X56504859Y39659640D01*
X56327381Y39609143D01*
X56318332Y39607451D01*
X56132305Y39590214D01*
X56127689Y39590000D01*
X55632311Y39590000D01*
X55627695Y39590214D01*
X55441668Y39607451D01*
X55432619Y39609143D01*
X55255137Y39659640D01*
X55246563Y39662962D01*
X55081382Y39745212D01*
X55073558Y39750056D01*
X54926313Y39861251D01*
X54919503Y39867459D01*
X54795195Y40003818D01*
X54789647Y40011164D01*
X54692510Y40168046D01*
X54688408Y40176284D01*
X54621756Y40348336D01*
X54619232Y40357204D01*
X54585328Y40538574D01*
X54584479Y40547739D01*
X54584479Y40732260D01*
X54585328Y40741425D01*
X54619232Y40922795D01*
X54621756Y40931663D01*
X54688408Y41103715D01*
X54692510Y41111953D01*
X54789647Y41268835D01*
X54795195Y41276181D01*
X54919503Y41412540D01*
X54926313Y41418748D01*
X55073559Y41529943D01*
X55081382Y41534787D01*
X55246558Y41617034D01*
X55255140Y41620359D01*
X55432618Y41670856D01*
X55441667Y41672548D01*
X55627695Y41689786D01*
X55632311Y41690000D01*
X56127689Y41690000D01*
X56132305Y41689786D01*
X56318331Y41672548D01*
X56327380Y41670856D01*
X56504862Y41620359D01*
X56513436Y41617037D01*
X56678617Y41534787D01*
X56686441Y41529943D01*
X56833686Y41418748D01*
X56840496Y41412540D01*
X56964804Y41276181D01*
X56970352Y41268836D01*
X56989842Y41237357D01*
X57037653Y41197181D01*
X57074864Y41190000D01*
X57146719Y41190000D01*
X57153256Y41189571D01*
X57285853Y41172114D01*
X57298404Y41168751D01*
X57347295Y41148499D01*
X57347297Y41148498D01*
X57418945Y41118821D01*
X57430203Y41112321D01*
X57536311Y41030902D01*
X57541222Y41026596D01*
X58806596Y39761222D01*
X58810902Y39756311D01*
X58892321Y39650203D01*
X58898822Y39638944D01*
X58928637Y39566964D01*
X58948751Y39518407D01*
X58952115Y39505851D01*
X58969571Y39373256D01*
X58970000Y39366719D01*
X58970000Y35829239D01*
X58999289Y35758528D01*
X61158528Y33599289D01*
X61229239Y33570000D01*
X63361468Y33570000D01*
X63361468Y35984848D01*
X63354677Y35985312D01*
X63080187Y36023041D01*
X63073528Y36024425D01*
X62806741Y36099175D01*
X62800312Y36101460D01*
X62546202Y36211835D01*
X62540141Y36214975D01*
X62303427Y36358924D01*
X62297851Y36362860D01*
X62082939Y36537705D01*
X62077957Y36542358D01*
X61888853Y36744839D01*
X61884549Y36750130D01*
X61724775Y36976478D01*
X61721240Y36982290D01*
X61593766Y37228302D01*
X61591058Y37234538D01*
X61498276Y37495604D01*
X61496437Y37502167D01*
X61440068Y37773427D01*
X61439140Y37780179D01*
X61420233Y38056594D01*
X61420233Y38063406D01*
X61439140Y38339820D01*
X61440068Y38346572D01*
X61496437Y38617832D01*
X61498276Y38624395D01*
X61591058Y38885461D01*
X61593766Y38891697D01*
X61721240Y39137709D01*
X61724775Y39143521D01*
X61884549Y39369869D01*
X61888853Y39375160D01*
X62077957Y39577641D01*
X62082939Y39582294D01*
X62297851Y39757139D01*
X62303427Y39761075D01*
X62540141Y39905024D01*
X62546202Y39908164D01*
X62800312Y40018539D01*
X62806741Y40020824D01*
X63073528Y40095574D01*
X63080187Y40096958D01*
X63354677Y40134687D01*
X63361468Y40135151D01*
X63638531Y40135151D01*
X63645322Y40134687D01*
X63919812Y40096958D01*
X63926471Y40095574D01*
X64193258Y40020824D01*
X64199687Y40018539D01*
X64453797Y39908164D01*
X64459858Y39905024D01*
X64696572Y39761075D01*
X64702148Y39757139D01*
X64917060Y39582294D01*
X64922042Y39577641D01*
X65111146Y39375160D01*
X65115450Y39369869D01*
X65275224Y39143521D01*
X65278759Y39137709D01*
X65406233Y38891697D01*
X65408941Y38885461D01*
X65501723Y38624395D01*
X65503562Y38617832D01*
X65559930Y38346574D01*
X65560859Y38339819D01*
X65579767Y38063406D01*
X65579767Y38056594D01*
X65560859Y37780180D01*
X65559930Y37773425D01*
X65503562Y37502167D01*
X65501723Y37495604D01*
X65408941Y37234538D01*
X65406233Y37228302D01*
X65278759Y36982290D01*
X65275224Y36976478D01*
X65115450Y36750130D01*
X65111146Y36744839D01*
X64922042Y36542358D01*
X64917060Y36537705D01*
X64702148Y36362860D01*
X64696572Y36358924D01*
X64459858Y36214975D01*
X64453797Y36211835D01*
X64199687Y36101460D01*
X64193258Y36099175D01*
X63926471Y36024425D01*
X63919812Y36023041D01*
X63645322Y35985312D01*
X63638531Y35984848D01*
X63361468Y35984848D01*
X63361468Y33570000D01*
X63496719Y33570000D01*
X63503256Y33569571D01*
X63635853Y33552114D01*
X63648404Y33548751D01*
X63697295Y33528499D01*
X63697297Y33528498D01*
X63768945Y33498821D01*
X63780203Y33492321D01*
X63886311Y33410902D01*
X63891222Y33406596D01*
X65156596Y32141222D01*
X65160902Y32136311D01*
X65242321Y32030203D01*
X65248821Y32018945D01*
X65278498Y31947297D01*
X65278499Y31947295D01*
X65298751Y31898404D01*
X65302114Y31885853D01*
X65319571Y31753256D01*
X65320000Y31746719D01*
X65320000Y30988587D01*
X65339500Y30929260D01*
X65390395Y30893070D01*
X65452836Y30894132D01*
X65483439Y30911286D01*
X65508411Y30931780D01*
X65516538Y30937211D01*
X65672115Y31020368D01*
X65681153Y31024112D01*
X65849962Y31075320D01*
X65859557Y31077228D01*
X66035106Y31094518D01*
X66044894Y31094518D01*
X66220442Y31077228D01*
X66230037Y31075320D01*
X66398846Y31024112D01*
X66407884Y31020368D01*
X66563461Y30937211D01*
X66571588Y30931780D01*
X66707948Y30819872D01*
X66714872Y30812948D01*
X66826780Y30676588D01*
X66832211Y30668461D01*
X66915368Y30512884D01*
X66919112Y30503846D01*
X66970320Y30335037D01*
X66972228Y30325442D01*
X66989518Y30149894D01*
X66989518Y30140106D01*
X66972228Y29964557D01*
X66970320Y29954962D01*
X66919112Y29786153D01*
X66915368Y29777115D01*
X66832211Y29621538D01*
X66826780Y29613411D01*
X66714872Y29477051D01*
X66707948Y29470127D01*
X66571588Y29358219D01*
X66563461Y29352788D01*
X66407884Y29269631D01*
X66398846Y29265887D01*
X66230033Y29214678D01*
X66220451Y29212772D01*
X66044884Y29195481D01*
X66035116Y29195481D01*
X65859548Y29212772D01*
X65849966Y29214678D01*
X65681153Y29265887D01*
X65672115Y29269631D01*
X65516538Y29352788D01*
X65508411Y29358219D01*
X65483439Y29378713D01*
X65425208Y29401276D01*
X65364945Y29384892D01*
X65326154Y29335951D01*
X65320000Y29301412D01*
X65320000Y28698587D01*
X65339500Y28639260D01*
X65390395Y28603070D01*
X65452836Y28604132D01*
X65483439Y28621286D01*
X65508411Y28641780D01*
X65516538Y28647211D01*
X65672115Y28730368D01*
X65681153Y28734112D01*
X65849962Y28785320D01*
X65859557Y28787228D01*
X66035106Y28804518D01*
X66044894Y28804518D01*
X66220442Y28787228D01*
X66230037Y28785320D01*
X66398846Y28734112D01*
X66407884Y28730368D01*
X66563461Y28647211D01*
X66571588Y28641780D01*
X66707948Y28529872D01*
X66714872Y28522948D01*
X66826780Y28386588D01*
X66832211Y28378461D01*
X66915368Y28222884D01*
X66919112Y28213846D01*
X66970320Y28045037D01*
X66972228Y28035442D01*
X66989518Y27859894D01*
X66989518Y27850106D01*
X66972228Y27674557D01*
X66970320Y27664962D01*
X66919112Y27496153D01*
X66915368Y27487115D01*
X66832211Y27331538D01*
X66826780Y27323411D01*
X66714872Y27187051D01*
X66707948Y27180127D01*
X66571588Y27068219D01*
X66563461Y27062788D01*
X66407884Y26979631D01*
X66398846Y26975887D01*
X66230033Y26924678D01*
X66220451Y26922772D01*
X66044884Y26905481D01*
X66035116Y26905481D01*
X65859548Y26922772D01*
X65849966Y26924678D01*
X65681153Y26975887D01*
X65672115Y26979631D01*
X65516538Y27062788D01*
X65508411Y27068219D01*
X65483439Y27088713D01*
X65425208Y27111276D01*
X65364945Y27094892D01*
X65326154Y27045951D01*
X65320000Y27011412D01*
X65320000Y26408587D01*
X65339500Y26349260D01*
X65390395Y26313070D01*
X65452836Y26314132D01*
X65483439Y26331286D01*
X65508411Y26351780D01*
X65516538Y26357211D01*
X65672115Y26440368D01*
X65681153Y26444112D01*
X65849962Y26495320D01*
X65859557Y26497228D01*
X66035106Y26514518D01*
X66044894Y26514518D01*
X66220440Y26497228D01*
X66230038Y26495319D01*
X66270477Y26483052D01*
X66332911Y26484490D01*
X66370217Y26508035D01*
X68000711Y28138529D01*
X68030000Y28209240D01*
X68030000Y40370760D01*
X68000711Y40441471D01*
X64571471Y43870711D01*
X64500760Y43900000D01*
X57093439Y43900000D01*
X57034112Y43880500D01*
X56997922Y43829605D01*
X57008417Y43747357D01*
X57067489Y43651953D01*
X57071591Y43643715D01*
X57138243Y43471663D01*
X57140767Y43462795D01*
X57174671Y43281425D01*
X57175520Y43272260D01*
X57175520Y43087739D01*
X57174671Y43078574D01*
X57140767Y42897204D01*
X57138243Y42888336D01*
X57071591Y42716284D01*
X57067489Y42708046D01*
X56970352Y42551164D01*
X56964804Y42543818D01*
X56840496Y42407459D01*
X56833686Y42401251D01*
X56686440Y42290056D01*
X56678617Y42285212D01*
X56513441Y42202965D01*
X56504859Y42199640D01*
X56327381Y42149143D01*
X56318332Y42147451D01*
X56132305Y42130214D01*
X56127689Y42130000D01*
X55632311Y42130000D01*
X55627695Y42130214D01*
X55441668Y42147451D01*
X55432619Y42149143D01*
X55255137Y42199640D01*
X55246563Y42202962D01*
X55081382Y42285212D01*
X55073558Y42290056D01*
X54926313Y42401251D01*
X54919503Y42407459D01*
X54844978Y42489208D01*
X54790598Y42519914D01*
X54728606Y42512371D01*
X54700366Y42492549D01*
X46111226Y33903409D01*
X46106301Y33899091D01*
X46083826Y33881845D01*
X46000198Y33817675D01*
X45988948Y33811179D01*
X45868400Y33761246D01*
X45855858Y33757885D01*
X45723239Y33740426D01*
X45716730Y33740000D01*
X41853439Y33740000D01*
X41794112Y33720500D01*
X41757922Y33669605D01*
X41768417Y33587357D01*
X41827489Y33491953D01*
X41831591Y33483715D01*
X41898243Y33311663D01*
X41900767Y33302795D01*
X41934671Y33121425D01*
X41935520Y33112260D01*
X41935520Y32927739D01*
X41934671Y32918574D01*
X41900767Y32737204D01*
X41898243Y32728336D01*
X41831591Y32556284D01*
X41827489Y32548046D01*
X41730352Y32391164D01*
X41724804Y32383818D01*
X41600496Y32247459D01*
X41593686Y32241251D01*
X41446440Y32130056D01*
X41438617Y32125212D01*
X41273441Y32042965D01*
X41264859Y32039640D01*
X41087381Y31989143D01*
X41078332Y31987451D01*
X40892305Y31970214D01*
X40887689Y31970000D01*
X40392311Y31970000D01*
X40387695Y31970214D01*
X40201668Y31987451D01*
X40192619Y31989143D01*
X40015137Y32039640D01*
X40006563Y32042962D01*
X39841382Y32125212D01*
X39833558Y32130056D01*
X39686313Y32241251D01*
X39679496Y32247464D01*
X39604977Y32329207D01*
X39550598Y32359913D01*
X39488605Y32352370D01*
X39460366Y32332548D01*
X36139289Y29011471D01*
X36110000Y28940760D01*
X36110000Y24133281D01*
X36109571Y24126744D01*
X36092115Y23994148D01*
X36088751Y23981595D01*
X36059095Y23910000D01*
X36059095Y23909999D01*
X36038822Y23861055D01*
X36032321Y23849796D01*
X35950902Y23743689D01*
X35946596Y23738778D01*
X34681222Y22473404D01*
X34676311Y22469098D01*
X34570203Y22387677D01*
X34558945Y22381178D01*
X34487297Y22351501D01*
X34487295Y22351500D01*
X34438408Y22331250D01*
X34425851Y22327884D01*
X34308741Y22312467D01*
X34293240Y22310426D01*
X34286731Y22310000D01*
X34214865Y22310000D01*
X34155538Y22290500D01*
X34129843Y22262643D01*
X34110352Y22231164D01*
X34104804Y22223818D01*
X33980496Y22087459D01*
X33973686Y22081251D01*
X33826440Y21970056D01*
X33818617Y21965212D01*
X33653441Y21882965D01*
X33644859Y21879640D01*
X33467381Y21829143D01*
X33458332Y21827451D01*
X33272305Y21810214D01*
X33267689Y21810000D01*
X32772311Y21810000D01*
X32767695Y21810214D01*
X32581668Y21827451D01*
X32572619Y21829143D01*
X32395137Y21879640D01*
X32386563Y21882962D01*
X32221382Y21965212D01*
X32213558Y21970056D01*
X32066313Y22081251D01*
X32059503Y22087459D01*
X31935195Y22223818D01*
X31929647Y22231164D01*
X31832510Y22388046D01*
X31828408Y22396284D01*
X31761756Y22568336D01*
X31759232Y22577204D01*
X31725328Y22758574D01*
X31724479Y22767739D01*
X31724479Y22952260D01*
X31725328Y22961425D01*
X31759232Y23142795D01*
X31761756Y23151663D01*
X31828408Y23323715D01*
X31832510Y23331953D01*
X31929647Y23488835D01*
X31935195Y23496181D01*
X32059503Y23632540D01*
X32066313Y23638748D01*
X32213559Y23749943D01*
X32221382Y23754787D01*
X32386558Y23837034D01*
X32395140Y23840359D01*
X32572618Y23890856D01*
X32581667Y23892548D01*
X32767695Y23909786D01*
X32772311Y23910000D01*
X32772311Y23910000D01*
X32772311Y24350000D01*
X32767695Y24350214D01*
X32581668Y24367451D01*
X32572619Y24369143D01*
X32395137Y24419640D01*
X32386563Y24422962D01*
X32221382Y24505212D01*
X32213558Y24510056D01*
X32066313Y24621251D01*
X32059503Y24627459D01*
X31935195Y24763818D01*
X31929647Y24771164D01*
X31832510Y24928046D01*
X31828408Y24936284D01*
X31761756Y25108336D01*
X31759232Y25117204D01*
X31725328Y25298574D01*
X31724479Y25307739D01*
X31724479Y25492260D01*
X31725328Y25501425D01*
X31759232Y25682795D01*
X31761756Y25691663D01*
X31828408Y25863715D01*
X31832510Y25871953D01*
X31929647Y26028835D01*
X31935195Y26036181D01*
X32059503Y26172540D01*
X32066313Y26178748D01*
X32213559Y26289943D01*
X32221382Y26294787D01*
X32386558Y26377034D01*
X32395140Y26380359D01*
X32572618Y26430856D01*
X32581667Y26432548D01*
X32767695Y26449786D01*
X32772311Y26450000D01*
X32772311Y26450000D01*
X32772311Y26890000D01*
X32767695Y26890214D01*
X32581668Y26907451D01*
X32572619Y26909143D01*
X32395137Y26959640D01*
X32386563Y26962962D01*
X32221382Y27045212D01*
X32213558Y27050056D01*
X32066313Y27161251D01*
X32059503Y27167459D01*
X31935195Y27303818D01*
X31929647Y27311164D01*
X31832510Y27468046D01*
X31828408Y27476284D01*
X31761756Y27648336D01*
X31759232Y27657204D01*
X31725328Y27838574D01*
X31724479Y27847739D01*
X31724479Y28032260D01*
X31725328Y28041425D01*
X31759232Y28222795D01*
X31761756Y28231663D01*
X31828408Y28403715D01*
X31832510Y28411953D01*
X31929647Y28568835D01*
X31935195Y28576181D01*
X32059503Y28712540D01*
X32066313Y28718748D01*
X32213559Y28829943D01*
X32221382Y28834787D01*
X32386558Y28917034D01*
X32395140Y28920359D01*
X32572618Y28970856D01*
X32581667Y28972548D01*
X32767695Y28989786D01*
X32772311Y28990000D01*
X32772311Y28990000D01*
X32772311Y29430000D01*
X32767695Y29430214D01*
X32581668Y29447451D01*
X32572619Y29449143D01*
X32395137Y29499640D01*
X32386563Y29502962D01*
X32221382Y29585212D01*
X32213558Y29590056D01*
X32066313Y29701251D01*
X32059503Y29707459D01*
X31935195Y29843818D01*
X31929647Y29851164D01*
X31832510Y30008046D01*
X31828408Y30016284D01*
X31761756Y30188336D01*
X31759232Y30197204D01*
X31725328Y30378574D01*
X31724479Y30387739D01*
X31724479Y30572260D01*
X31725328Y30581425D01*
X31759232Y30762795D01*
X31761756Y30771663D01*
X31828408Y30943715D01*
X31832510Y30951953D01*
X31929647Y31108835D01*
X31935195Y31116181D01*
X32059503Y31252540D01*
X32066313Y31258748D01*
X32213559Y31369943D01*
X32221382Y31374787D01*
X32386558Y31457034D01*
X32395140Y31460359D01*
X32572618Y31510856D01*
X32581667Y31512548D01*
X32767695Y31529786D01*
X32772311Y31530000D01*
X33267689Y31530000D01*
X33272305Y31529786D01*
X33458331Y31512548D01*
X33467380Y31510856D01*
X33644862Y31460359D01*
X33653436Y31457037D01*
X33818617Y31374787D01*
X33826441Y31369943D01*
X33973686Y31258748D01*
X33980496Y31252540D01*
X34104804Y31116181D01*
X34110352Y31108835D01*
X34207489Y30951953D01*
X34211591Y30943715D01*
X34278243Y30771663D01*
X34280767Y30762795D01*
X34314671Y30581425D01*
X34315520Y30572260D01*
X34315520Y30387739D01*
X34314671Y30378574D01*
X34280767Y30197204D01*
X34278243Y30188336D01*
X34211591Y30016284D01*
X34207489Y30008046D01*
X34110352Y29851164D01*
X34104804Y29843818D01*
X33980496Y29707459D01*
X33973686Y29701251D01*
X33826440Y29590056D01*
X33818617Y29585212D01*
X33653441Y29502965D01*
X33644859Y29499640D01*
X33467381Y29449143D01*
X33458332Y29447451D01*
X33272305Y29430214D01*
X33267689Y29430000D01*
X32772311Y29430000D01*
X32772311Y28990000D01*
X33267689Y28990000D01*
X33272305Y28989786D01*
X33458331Y28972548D01*
X33467380Y28970856D01*
X33644862Y28920359D01*
X33653436Y28917037D01*
X33818617Y28834787D01*
X33826441Y28829943D01*
X33973686Y28718748D01*
X33980496Y28712540D01*
X34104804Y28576181D01*
X34110352Y28568835D01*
X34207489Y28411953D01*
X34211591Y28403715D01*
X34278243Y28231663D01*
X34280767Y28222795D01*
X34314671Y28041425D01*
X34315520Y28032260D01*
X34315520Y27847739D01*
X34314671Y27838574D01*
X34280767Y27657204D01*
X34278243Y27648336D01*
X34211591Y27476284D01*
X34207489Y27468046D01*
X34110352Y27311164D01*
X34104804Y27303818D01*
X33980496Y27167459D01*
X33973686Y27161251D01*
X33826440Y27050056D01*
X33818617Y27045212D01*
X33653441Y26962965D01*
X33644859Y26959640D01*
X33467381Y26909143D01*
X33458332Y26907451D01*
X33272305Y26890214D01*
X33267689Y26890000D01*
X32772311Y26890000D01*
X32772311Y26450000D01*
X33267689Y26450000D01*
X33272305Y26449786D01*
X33458331Y26432548D01*
X33467380Y26430856D01*
X33644862Y26380359D01*
X33653436Y26377037D01*
X33818617Y26294787D01*
X33826441Y26289943D01*
X33973686Y26178748D01*
X33980496Y26172540D01*
X34104804Y26036181D01*
X34110352Y26028835D01*
X34207489Y25871953D01*
X34211591Y25863715D01*
X34278243Y25691663D01*
X34280767Y25682795D01*
X34314671Y25501425D01*
X34315520Y25492260D01*
X34315520Y25307739D01*
X34314671Y25298574D01*
X34280767Y25117204D01*
X34278243Y25108336D01*
X34211591Y24936284D01*
X34207489Y24928046D01*
X34110352Y24771164D01*
X34104804Y24763818D01*
X33980496Y24627459D01*
X33973686Y24621251D01*
X33826440Y24510056D01*
X33818617Y24505212D01*
X33653441Y24422965D01*
X33644859Y24419640D01*
X33467381Y24369143D01*
X33458332Y24367451D01*
X33272305Y24350214D01*
X33267689Y24350000D01*
X32772311Y24350000D01*
X32772311Y23910000D01*
X33267689Y23910000D01*
X33272305Y23909786D01*
X33458331Y23892548D01*
X33467380Y23890856D01*
X33644862Y23840359D01*
X33653436Y23837037D01*
X33818617Y23754787D01*
X33826441Y23749943D01*
X33973686Y23638748D01*
X33980503Y23632535D01*
X34055022Y23550792D01*
X34109401Y23520086D01*
X34171394Y23527629D01*
X34199633Y23547451D01*
X34980711Y24328529D01*
X35010000Y24399240D01*
X35010000Y29206730D01*
X35010426Y29213239D01*
X35027885Y29345854D01*
X35031247Y29358402D01*
X35031907Y29359994D01*
X35031909Y29360000D01*
X35081177Y29478944D01*
X35087678Y29490203D01*
X35169098Y29596311D01*
X35173404Y29601222D01*
X38978778Y33406596D01*
X38983689Y33410902D01*
X39089796Y33492321D01*
X39101054Y33498821D01*
X39172702Y33528498D01*
X39172704Y33528499D01*
X39218847Y33547613D01*
X39266195Y33588333D01*
X39280153Y33649203D01*
X39255275Y33706484D01*
X39180577Y33740000D01*
X34233439Y33740000D01*
X34174112Y33720500D01*
X34137922Y33669605D01*
X34148417Y33587357D01*
X34207489Y33491953D01*
X34211591Y33483715D01*
X34278243Y33311663D01*
X34280767Y33302795D01*
X34314671Y33121425D01*
X34315520Y33112260D01*
X34315520Y32927739D01*
X34314671Y32918574D01*
X34280767Y32737204D01*
X34278243Y32728336D01*
X34211591Y32556284D01*
X34207489Y32548046D01*
X34110352Y32391164D01*
X34104804Y32383818D01*
X33980496Y32247459D01*
X33973686Y32241251D01*
X33826440Y32130056D01*
X33818617Y32125212D01*
X33653441Y32042965D01*
X33644859Y32039640D01*
X33467381Y31989143D01*
X33458332Y31987451D01*
X33272305Y31970214D01*
X33267689Y31970000D01*
X32772311Y31970000D01*
X32767695Y31970214D01*
X32581668Y31987451D01*
X32572619Y31989143D01*
X32395137Y32039640D01*
X32386563Y32042962D01*
X32221382Y32125212D01*
X32213558Y32130056D01*
X32066313Y32241251D01*
X32059503Y32247459D01*
X31935195Y32383818D01*
X31929647Y32391164D01*
X31832510Y32548046D01*
X31828408Y32556284D01*
X31761756Y32728336D01*
X31759232Y32737204D01*
X31725328Y32918574D01*
X31724479Y32927739D01*
X31724479Y33112260D01*
X31725328Y33121425D01*
X31750157Y33254245D01*
X31741891Y33316145D01*
X31698512Y33361071D01*
X31636939Y33371501D01*
X31581149Y33343331D01*
X31059289Y32821471D01*
X31030000Y32750760D01*
X31030000Y14239240D01*
X31059289Y14168529D01*
X31840367Y13387451D01*
X31896107Y13359289D01*
X31957685Y13369687D01*
X31984979Y13390792D01*
X32059503Y13472540D01*
X32066313Y13478748D01*
X32213559Y13589943D01*
X32221382Y13594787D01*
X32386558Y13677034D01*
X32395140Y13680359D01*
X32572618Y13730856D01*
X32581667Y13732548D01*
X32767695Y13749786D01*
X32772311Y13750000D01*
X32772311Y13750000D01*
X32772311Y14190000D01*
X32767695Y14190214D01*
X32581668Y14207451D01*
X32572619Y14209143D01*
X32395137Y14259640D01*
X32386563Y14262962D01*
X32221382Y14345212D01*
X32213558Y14350056D01*
X32066313Y14461251D01*
X32059503Y14467459D01*
X31935195Y14603818D01*
X31929647Y14611164D01*
X31832510Y14768046D01*
X31828408Y14776284D01*
X31761756Y14948336D01*
X31759232Y14957204D01*
X31725328Y15138574D01*
X31724479Y15147739D01*
X31724479Y15332260D01*
X31725328Y15341425D01*
X31759232Y15522795D01*
X31761756Y15531663D01*
X31828408Y15703715D01*
X31832510Y15711953D01*
X31929647Y15868835D01*
X31935195Y15876181D01*
X32059503Y16012540D01*
X32066313Y16018748D01*
X32213559Y16129943D01*
X32221382Y16134787D01*
X32386558Y16217034D01*
X32395140Y16220359D01*
X32572618Y16270856D01*
X32581667Y16272548D01*
X32767695Y16289786D01*
X32772311Y16290000D01*
X32772311Y16290000D01*
X32772311Y16730000D01*
X32767695Y16730214D01*
X32581668Y16747451D01*
X32572619Y16749143D01*
X32395137Y16799640D01*
X32386563Y16802962D01*
X32221382Y16885212D01*
X32213558Y16890056D01*
X32066313Y17001251D01*
X32059503Y17007459D01*
X31935195Y17143818D01*
X31929647Y17151164D01*
X31832510Y17308046D01*
X31828408Y17316284D01*
X31761756Y17488336D01*
X31759232Y17497204D01*
X31725328Y17678574D01*
X31724479Y17687739D01*
X31724479Y17872260D01*
X31725328Y17881425D01*
X31759232Y18062795D01*
X31761756Y18071663D01*
X31828408Y18243715D01*
X31832510Y18251953D01*
X31929647Y18408835D01*
X31935195Y18416181D01*
X32059503Y18552540D01*
X32066313Y18558748D01*
X32213559Y18669943D01*
X32221382Y18674787D01*
X32386558Y18757034D01*
X32395140Y18760359D01*
X32572618Y18810856D01*
X32581667Y18812548D01*
X32767695Y18829786D01*
X32772311Y18830000D01*
X32772311Y18830000D01*
X32772311Y19270000D01*
X32767695Y19270214D01*
X32581668Y19287451D01*
X32572619Y19289143D01*
X32395137Y19339640D01*
X32386563Y19342962D01*
X32221382Y19425212D01*
X32213558Y19430056D01*
X32066313Y19541251D01*
X32059503Y19547459D01*
X31935195Y19683818D01*
X31929647Y19691164D01*
X31832510Y19848046D01*
X31828408Y19856284D01*
X31761756Y20028336D01*
X31759232Y20037204D01*
X31725328Y20218574D01*
X31724479Y20227739D01*
X31724479Y20412260D01*
X31725328Y20421425D01*
X31759232Y20602795D01*
X31761756Y20611663D01*
X31828408Y20783715D01*
X31832510Y20791953D01*
X31929647Y20948835D01*
X31935195Y20956181D01*
X32059503Y21092540D01*
X32066313Y21098748D01*
X32213559Y21209943D01*
X32221382Y21214787D01*
X32386558Y21297034D01*
X32395140Y21300359D01*
X32572618Y21350856D01*
X32581667Y21352548D01*
X32767695Y21369786D01*
X32772311Y21370000D01*
X33267689Y21370000D01*
X33272305Y21369786D01*
X33458331Y21352548D01*
X33467380Y21350856D01*
X33644862Y21300359D01*
X33653436Y21297037D01*
X33818617Y21214787D01*
X33826441Y21209943D01*
X33973686Y21098748D01*
X33980503Y21092535D01*
X34055022Y21010792D01*
X34109401Y20980086D01*
X34171394Y20987629D01*
X34199633Y21007451D01*
X37520711Y24328529D01*
X37550000Y24399240D01*
X37550000Y26666730D01*
X37550426Y26673239D01*
X37567884Y26805851D01*
X37571250Y26818408D01*
X37591499Y26867292D01*
X37591500Y26867295D01*
X37621177Y26938943D01*
X37627677Y26950203D01*
X37709098Y27056311D01*
X37713404Y27061222D01*
X38978778Y28326596D01*
X38983689Y28330902D01*
X39089796Y28412321D01*
X39101055Y28418822D01*
X39170737Y28447685D01*
X39221592Y28468750D01*
X39234151Y28472115D01*
X39366744Y28489571D01*
X39373281Y28490000D01*
X39445135Y28490000D01*
X39504462Y28509500D01*
X39530157Y28537357D01*
X39549647Y28568836D01*
X39555195Y28576181D01*
X39679503Y28712540D01*
X39686313Y28718748D01*
X39833559Y28829943D01*
X39841382Y28834787D01*
X40006558Y28917034D01*
X40015140Y28920359D01*
X40192618Y28970856D01*
X40201667Y28972548D01*
X40387695Y28989786D01*
X40392311Y28990000D01*
X40392311Y28990000D01*
X40392311Y29430000D01*
X40387695Y29430214D01*
X40201668Y29447451D01*
X40192619Y29449143D01*
X40015137Y29499640D01*
X40006563Y29502962D01*
X39841382Y29585212D01*
X39833558Y29590056D01*
X39686313Y29701251D01*
X39679503Y29707459D01*
X39555195Y29843818D01*
X39549647Y29851164D01*
X39452510Y30008046D01*
X39448408Y30016284D01*
X39381756Y30188336D01*
X39379232Y30197204D01*
X39345328Y30378574D01*
X39344479Y30387739D01*
X39344479Y30572260D01*
X39345328Y30581425D01*
X39379232Y30762795D01*
X39381756Y30771663D01*
X39448408Y30943715D01*
X39452510Y30951953D01*
X39549647Y31108835D01*
X39555195Y31116181D01*
X39679503Y31252540D01*
X39686313Y31258748D01*
X39833559Y31369943D01*
X39841382Y31374787D01*
X40006558Y31457034D01*
X40015140Y31460359D01*
X40192618Y31510856D01*
X40201667Y31512548D01*
X40387695Y31529786D01*
X40392311Y31530000D01*
X40887689Y31530000D01*
X40892305Y31529786D01*
X41078331Y31512548D01*
X41087380Y31510856D01*
X41264862Y31460359D01*
X41273436Y31457037D01*
X41438617Y31374787D01*
X41446441Y31369943D01*
X41593686Y31258748D01*
X41600496Y31252540D01*
X41724804Y31116181D01*
X41730352Y31108835D01*
X41827489Y30951953D01*
X41831591Y30943715D01*
X41898243Y30771663D01*
X41900767Y30762795D01*
X41934671Y30581425D01*
X41935520Y30572260D01*
X41935520Y30387739D01*
X41934671Y30378574D01*
X41900767Y30197204D01*
X41898243Y30188336D01*
X41831591Y30016284D01*
X41827489Y30008046D01*
X41730352Y29851164D01*
X41724804Y29843818D01*
X41600496Y29707459D01*
X41593686Y29701251D01*
X41446440Y29590056D01*
X41438617Y29585212D01*
X41273441Y29502965D01*
X41264859Y29499640D01*
X41087381Y29449143D01*
X41078332Y29447451D01*
X40892305Y29430214D01*
X40887689Y29430000D01*
X40392311Y29430000D01*
X40392311Y28990000D01*
X40887689Y28990000D01*
X40892305Y28989786D01*
X41078331Y28972548D01*
X41087380Y28970856D01*
X41264862Y28920359D01*
X41273436Y28917037D01*
X41438617Y28834787D01*
X41446441Y28829943D01*
X41593686Y28718748D01*
X41600496Y28712540D01*
X41724804Y28576181D01*
X41730352Y28568835D01*
X41827489Y28411953D01*
X41831591Y28403715D01*
X41898243Y28231663D01*
X41900767Y28222795D01*
X41934671Y28041425D01*
X41935520Y28032260D01*
X41935520Y27847739D01*
X41934671Y27838574D01*
X41900767Y27657204D01*
X41898243Y27648336D01*
X41831591Y27476284D01*
X41827489Y27468046D01*
X41730352Y27311164D01*
X41724804Y27303818D01*
X41600496Y27167459D01*
X41593686Y27161251D01*
X41446440Y27050056D01*
X41438617Y27045212D01*
X41273441Y26962965D01*
X41264859Y26959640D01*
X41087381Y26909143D01*
X41078332Y26907451D01*
X40892305Y26890214D01*
X40887689Y26890000D01*
X40392311Y26890000D01*
X40387695Y26890214D01*
X40201668Y26907451D01*
X40192619Y26909143D01*
X40015137Y26959640D01*
X40006563Y26962962D01*
X39841382Y27045212D01*
X39833558Y27050056D01*
X39686313Y27161251D01*
X39679496Y27167464D01*
X39604977Y27249207D01*
X39550598Y27279913D01*
X39488605Y27272370D01*
X39460366Y27252548D01*
X38679289Y26471471D01*
X38650000Y26400760D01*
X38650000Y24133281D01*
X38649571Y24126744D01*
X38632115Y23994148D01*
X38628751Y23981595D01*
X38599095Y23910000D01*
X38599095Y23909999D01*
X38578822Y23861055D01*
X38572321Y23849796D01*
X38490902Y23743689D01*
X38486596Y23738778D01*
X34681222Y19933404D01*
X34676311Y19929098D01*
X34570203Y19847677D01*
X34558945Y19841178D01*
X34487297Y19811501D01*
X34487295Y19811500D01*
X34438408Y19791250D01*
X34425851Y19787884D01*
X34308741Y19772467D01*
X34293240Y19770426D01*
X34286731Y19770000D01*
X34214865Y19770000D01*
X34155538Y19750500D01*
X34129843Y19722643D01*
X34110352Y19691164D01*
X34104804Y19683818D01*
X33980496Y19547459D01*
X33973686Y19541251D01*
X33826440Y19430056D01*
X33818617Y19425212D01*
X33653441Y19342965D01*
X33644859Y19339640D01*
X33467381Y19289143D01*
X33458332Y19287451D01*
X33272305Y19270214D01*
X33267689Y19270000D01*
X32772311Y19270000D01*
X32772311Y18830000D01*
X33267689Y18830000D01*
X33272305Y18829786D01*
X33458331Y18812548D01*
X33467380Y18810856D01*
X33644862Y18760359D01*
X33653436Y18757037D01*
X33818617Y18674787D01*
X33826441Y18669943D01*
X33973686Y18558748D01*
X33980496Y18552540D01*
X34104804Y18416181D01*
X34110352Y18408836D01*
X34129842Y18377357D01*
X34177653Y18337181D01*
X34214864Y18330000D01*
X35290761Y18330000D01*
X35361472Y18359289D01*
X37708779Y20706596D01*
X37713690Y20710902D01*
X37819797Y20792321D01*
X37831056Y20798822D01*
X37879944Y20819072D01*
X37951592Y20848751D01*
X37964148Y20852115D01*
X38096744Y20869571D01*
X38103281Y20870000D01*
X39445135Y20870000D01*
X39504462Y20889500D01*
X39530157Y20917357D01*
X39549647Y20948836D01*
X39555195Y20956181D01*
X39679503Y21092540D01*
X39686313Y21098748D01*
X39833559Y21209943D01*
X39841382Y21214787D01*
X40006558Y21297034D01*
X40015140Y21300359D01*
X40192618Y21350856D01*
X40201667Y21352548D01*
X40387695Y21369786D01*
X40392311Y21370000D01*
X40392311Y21370000D01*
X40392311Y21810000D01*
X40387695Y21810214D01*
X40201668Y21827451D01*
X40192619Y21829143D01*
X40015137Y21879640D01*
X40006563Y21882962D01*
X39841382Y21965212D01*
X39833558Y21970056D01*
X39686313Y22081251D01*
X39679503Y22087459D01*
X39555195Y22223818D01*
X39549647Y22231164D01*
X39452510Y22388046D01*
X39448408Y22396284D01*
X39381756Y22568336D01*
X39379232Y22577204D01*
X39345328Y22758574D01*
X39344479Y22767739D01*
X39344479Y22952260D01*
X39345328Y22961425D01*
X39379232Y23142795D01*
X39381756Y23151663D01*
X39448408Y23323715D01*
X39452510Y23331953D01*
X39549647Y23488835D01*
X39555195Y23496181D01*
X39679503Y23632540D01*
X39686313Y23638748D01*
X39833559Y23749943D01*
X39841382Y23754787D01*
X40006558Y23837034D01*
X40015140Y23840359D01*
X40192618Y23890856D01*
X40201667Y23892548D01*
X40387695Y23909786D01*
X40392311Y23910000D01*
X40392311Y23910000D01*
X40392311Y24350000D01*
X40387695Y24350214D01*
X40201668Y24367451D01*
X40192619Y24369143D01*
X40015137Y24419640D01*
X40006563Y24422962D01*
X39841382Y24505212D01*
X39833558Y24510056D01*
X39686313Y24621251D01*
X39679503Y24627459D01*
X39555195Y24763818D01*
X39549647Y24771164D01*
X39452510Y24928046D01*
X39448408Y24936284D01*
X39381756Y25108336D01*
X39379232Y25117204D01*
X39345328Y25298574D01*
X39344479Y25307739D01*
X39344479Y25492260D01*
X39345328Y25501425D01*
X39379232Y25682795D01*
X39381756Y25691663D01*
X39448408Y25863715D01*
X39452510Y25871953D01*
X39549647Y26028835D01*
X39555195Y26036181D01*
X39679503Y26172540D01*
X39686313Y26178748D01*
X39833559Y26289943D01*
X39841382Y26294787D01*
X40006558Y26377034D01*
X40015140Y26380359D01*
X40192618Y26430856D01*
X40201667Y26432548D01*
X40387695Y26449786D01*
X40392311Y26450000D01*
X40887689Y26450000D01*
X40892305Y26449786D01*
X41078331Y26432548D01*
X41087380Y26430856D01*
X41264862Y26380359D01*
X41273436Y26377037D01*
X41438617Y26294787D01*
X41446441Y26289943D01*
X41593686Y26178748D01*
X41600496Y26172540D01*
X41724804Y26036181D01*
X41730352Y26028835D01*
X41827489Y25871953D01*
X41831591Y25863715D01*
X41898243Y25691663D01*
X41900767Y25682795D01*
X41934671Y25501425D01*
X41935520Y25492260D01*
X41935520Y25307739D01*
X41934671Y25298574D01*
X41900767Y25117204D01*
X41898243Y25108336D01*
X41831591Y24936284D01*
X41827489Y24928046D01*
X41730352Y24771164D01*
X41724804Y24763818D01*
X41600496Y24627459D01*
X41593686Y24621251D01*
X41446440Y24510056D01*
X41438617Y24505212D01*
X41273441Y24422965D01*
X41264859Y24419640D01*
X41087381Y24369143D01*
X41078332Y24367451D01*
X40892305Y24350214D01*
X40887689Y24350000D01*
X40392311Y24350000D01*
X40392311Y23910000D01*
X40887689Y23910000D01*
X40892305Y23909786D01*
X41078331Y23892548D01*
X41087380Y23890856D01*
X41264862Y23840359D01*
X41273436Y23837037D01*
X41438617Y23754787D01*
X41446441Y23749943D01*
X41593686Y23638748D01*
X41600496Y23632540D01*
X41724804Y23496181D01*
X41730352Y23488835D01*
X41827489Y23331953D01*
X41831591Y23323715D01*
X41898243Y23151663D01*
X41900767Y23142795D01*
X41934671Y22961425D01*
X41935520Y22952260D01*
X41935520Y22767739D01*
X41934671Y22758574D01*
X41900767Y22577204D01*
X41898243Y22568336D01*
X41831591Y22396284D01*
X41827489Y22388046D01*
X41730352Y22231164D01*
X41724804Y22223818D01*
X41600496Y22087459D01*
X41593686Y22081251D01*
X41446440Y21970056D01*
X41438617Y21965212D01*
X41273441Y21882965D01*
X41264859Y21879640D01*
X41087381Y21829143D01*
X41078332Y21827451D01*
X40892305Y21810214D01*
X40887689Y21810000D01*
X40392311Y21810000D01*
X40392311Y21370000D01*
X40887689Y21370000D01*
X40892305Y21369786D01*
X41078331Y21352548D01*
X41087380Y21350856D01*
X41264862Y21300359D01*
X41273436Y21297037D01*
X41438617Y21214787D01*
X41446441Y21209943D01*
X41593686Y21098748D01*
X41600496Y21092540D01*
X41724804Y20956181D01*
X41730352Y20948835D01*
X41827489Y20791953D01*
X41831591Y20783715D01*
X41898243Y20611663D01*
X41900767Y20602795D01*
X41934671Y20421425D01*
X41935520Y20412260D01*
X41935520Y20227739D01*
X41934671Y20218574D01*
X41900767Y20037204D01*
X41898243Y20028336D01*
X41831591Y19856284D01*
X41827489Y19848046D01*
X41730352Y19691164D01*
X41724804Y19683818D01*
X41600496Y19547459D01*
X41593686Y19541251D01*
X41446440Y19430056D01*
X41438617Y19425212D01*
X41273441Y19342965D01*
X41264859Y19339640D01*
X41087381Y19289143D01*
X41078332Y19287451D01*
X40892305Y19270214D01*
X40887689Y19270000D01*
X40392311Y19270000D01*
X40387695Y19270214D01*
X40201668Y19287451D01*
X40192619Y19289143D01*
X40015137Y19339640D01*
X40006563Y19342962D01*
X39841382Y19425212D01*
X39833558Y19430056D01*
X39686313Y19541251D01*
X39679503Y19547459D01*
X39555195Y19683818D01*
X39549647Y19691164D01*
X39530156Y19722643D01*
X39482344Y19762819D01*
X39445134Y19770000D01*
X38369239Y19770000D01*
X38298528Y19740711D01*
X35951221Y17393404D01*
X35946310Y17389098D01*
X35840202Y17307678D01*
X35828943Y17301177D01*
X35782044Y17281751D01*
X35708403Y17251247D01*
X35695856Y17247885D01*
X35563239Y17230426D01*
X35556730Y17230000D01*
X34214865Y17230000D01*
X34155538Y17210500D01*
X34129843Y17182643D01*
X34110352Y17151164D01*
X34104804Y17143818D01*
X33980496Y17007459D01*
X33973686Y17001251D01*
X33826440Y16890056D01*
X33818617Y16885212D01*
X33653441Y16802965D01*
X33644859Y16799640D01*
X33467381Y16749143D01*
X33458332Y16747451D01*
X33272305Y16730214D01*
X33267689Y16730000D01*
X32772311Y16730000D01*
X32772311Y16290000D01*
X33267689Y16290000D01*
X33272305Y16289786D01*
X33458331Y16272548D01*
X33467380Y16270856D01*
X33644862Y16220359D01*
X33653436Y16217037D01*
X33818617Y16134787D01*
X33826441Y16129943D01*
X33973686Y16018748D01*
X33980496Y16012540D01*
X34104804Y15876181D01*
X34110352Y15868836D01*
X34129842Y15837357D01*
X34177653Y15797181D01*
X34214864Y15790000D01*
X35290761Y15790000D01*
X35361472Y15819289D01*
X37708779Y18166596D01*
X37713690Y18170902D01*
X37819797Y18252321D01*
X37831056Y18258822D01*
X37879944Y18279072D01*
X37951592Y18308751D01*
X37964148Y18312115D01*
X38096744Y18329571D01*
X38103281Y18330000D01*
X39445135Y18330000D01*
X39504462Y18349500D01*
X39530157Y18377357D01*
X39549647Y18408836D01*
X39555195Y18416181D01*
X39679503Y18552540D01*
X39686313Y18558748D01*
X39833559Y18669943D01*
X39841382Y18674787D01*
X40006558Y18757034D01*
X40015140Y18760359D01*
X40192618Y18810856D01*
X40201667Y18812548D01*
X40387695Y18829786D01*
X40392311Y18830000D01*
X40887689Y18830000D01*
X40892305Y18829786D01*
X41078331Y18812548D01*
X41087380Y18810856D01*
X41264862Y18760359D01*
X41273436Y18757037D01*
X41438617Y18674787D01*
X41446441Y18669943D01*
X41593686Y18558748D01*
X41600496Y18552540D01*
X41724804Y18416181D01*
X41730352Y18408835D01*
X41827489Y18251953D01*
X41831591Y18243715D01*
X41898243Y18071663D01*
X41900767Y18062795D01*
X41934671Y17881425D01*
X41935520Y17872260D01*
X41935520Y17687739D01*
X41934671Y17678574D01*
X41900767Y17497204D01*
X41898243Y17488336D01*
X41831591Y17316284D01*
X41827489Y17308046D01*
X41730352Y17151164D01*
X41724804Y17143818D01*
X41600496Y17007459D01*
X41593686Y17001251D01*
X41446440Y16890056D01*
X41438617Y16885212D01*
X41273441Y16802965D01*
X41264859Y16799640D01*
X41087381Y16749143D01*
X41078332Y16747451D01*
X40892305Y16730214D01*
X40887689Y16730000D01*
X40392311Y16730000D01*
X40387695Y16730214D01*
X40201668Y16747451D01*
X40192619Y16749143D01*
X40015137Y16799640D01*
X40006563Y16802962D01*
X39841382Y16885212D01*
X39833558Y16890056D01*
X39686313Y17001251D01*
X39679503Y17007459D01*
X39555195Y17143818D01*
X39549647Y17151164D01*
X39530156Y17182643D01*
X39482344Y17222819D01*
X39445134Y17230000D01*
X38369239Y17230000D01*
X38298528Y17200711D01*
X35951221Y14853404D01*
X35946310Y14849098D01*
X35840202Y14767677D01*
X35828942Y14761177D01*
X35796149Y14747594D01*
X35796147Y14747592D01*
X35796147Y14747593D01*
X35708399Y14711246D01*
X35695858Y14707885D01*
X35563239Y14690426D01*
X35556730Y14690000D01*
X34214865Y14690000D01*
X34155538Y14670500D01*
X34129843Y14642643D01*
X34110352Y14611164D01*
X34104804Y14603818D01*
X33980496Y14467459D01*
X33973686Y14461251D01*
X33826440Y14350056D01*
X33818617Y14345212D01*
X33653441Y14262965D01*
X33644859Y14259640D01*
X33467381Y14209143D01*
X33458332Y14207451D01*
X33272305Y14190214D01*
X33267689Y14190000D01*
X32772311Y14190000D01*
X32772311Y13750000D01*
X33267689Y13750000D01*
X33272305Y13749786D01*
X33458331Y13732548D01*
X33467380Y13730856D01*
X33644862Y13680359D01*
X33653436Y13677037D01*
X33818617Y13594787D01*
X33826441Y13589943D01*
X33973686Y13478748D01*
X33980496Y13472540D01*
X34104804Y13336181D01*
X34110352Y13328835D01*
X34207489Y13171953D01*
X34211591Y13163715D01*
X34278243Y12991663D01*
X34280767Y12982795D01*
X34314671Y12801425D01*
X34315520Y12792260D01*
X34315520Y12607739D01*
X34314671Y12598574D01*
X34280767Y12417204D01*
X34278245Y12408341D01*
X34249074Y12333040D01*
X34245827Y12270675D01*
X34271611Y12226206D01*
X41230091Y5267726D01*
X41285831Y5239564D01*
X41339070Y5246049D01*
X41427391Y5282632D01*
X41434846Y5285055D01*
X41663711Y5340000D01*
X41671435Y5341224D01*
X41906087Y5359692D01*
X41913913Y5359692D01*
X42148564Y5341224D01*
X42156288Y5340000D01*
X42385153Y5285055D01*
X42392608Y5282632D01*
X42480929Y5246049D01*
X42543203Y5241361D01*
X42589908Y5267726D01*
X42788778Y5466596D01*
X42793689Y5470902D01*
X42899796Y5552321D01*
X42911054Y5558821D01*
X42982702Y5588498D01*
X42982704Y5588499D01*
X43031595Y5608751D01*
X43044146Y5612114D01*
X43176744Y5629571D01*
X43183281Y5630000D01*
X53336719Y5630000D01*
X53343256Y5629571D01*
X53475853Y5612114D01*
X53488404Y5608751D01*
X53537295Y5588499D01*
X53537297Y5588498D01*
X53608945Y5558821D01*
X53620203Y5552321D01*
X53726311Y5470902D01*
X53731222Y5466596D01*
X53930092Y5267726D01*
X53985832Y5239564D01*
X54039072Y5246049D01*
X54127395Y5282634D01*
X54134846Y5285055D01*
X54363711Y5340000D01*
X54371435Y5341224D01*
X54606087Y5359692D01*
X54613913Y5359692D01*
X54848564Y5341224D01*
X54856288Y5340000D01*
X55085153Y5285055D01*
X55092608Y5282632D01*
X55310056Y5192563D01*
X55317033Y5189008D01*
X55517716Y5066030D01*
X55524058Y5061422D01*
X55703020Y4908573D01*
X55708573Y4903020D01*
X55861422Y4724058D01*
X55866030Y4717716D01*
X55989008Y4517033D01*
X55992563Y4510056D01*
X56082632Y4292608D01*
X56085055Y4285153D01*
X56140000Y4056288D01*
X56141224Y4048564D01*
X56159692Y3813913D01*
X56159692Y3806087D01*
X56141224Y3571435D01*
X56140000Y3563711D01*
X56085055Y3334846D01*
X56082632Y3327391D01*
X55992563Y3109943D01*
X55989008Y3102966D01*
X55866030Y2902283D01*
X55861422Y2895941D01*
X55708573Y2716979D01*
X55703020Y2711426D01*
X55524058Y2558577D01*
X55517716Y2553969D01*
X55317033Y2430991D01*
X55310056Y2427436D01*
X55092608Y2337367D01*
X55085153Y2334944D01*
X54856288Y2279999D01*
X54848564Y2278775D01*
X54613914Y2260308D01*
X54606086Y2260308D01*
X54371435Y2278775D01*
X54363711Y2279999D01*
X54134846Y2334944D01*
X54127391Y2337367D01*
X53909943Y2427436D01*
X53902966Y2430991D01*
X53702283Y2553969D01*
X53695941Y2558577D01*
X53516979Y2711426D01*
X53511426Y2716979D01*
X53358577Y2895941D01*
X53353969Y2902283D01*
X53230991Y3102966D01*
X53227436Y3109943D01*
X53137367Y3327391D01*
X53134944Y3334846D01*
X53079999Y3563711D01*
X53078775Y3571435D01*
X53060308Y3806086D01*
X53060308Y3813914D01*
X53078775Y4048564D01*
X53079999Y4056288D01*
X53134944Y4285153D01*
X53137367Y4292609D01*
X53173950Y4380930D01*
X53178638Y4443204D01*
X53152273Y4489909D01*
X53141471Y4500711D01*
X53070760Y4530000D01*
X43449240Y4530000D01*
X43378529Y4500711D01*
X43367726Y4489908D01*
X43339564Y4434168D01*
X43346049Y4380929D01*
X43382632Y4292608D01*
X43385055Y4285153D01*
X43440000Y4056288D01*
X43441224Y4048564D01*
X43459692Y3813913D01*
X43459692Y3806087D01*
X43441224Y3571435D01*
X43440000Y3563711D01*
X43385055Y3334846D01*
X43382632Y3327391D01*
X43292563Y3109943D01*
X43289008Y3102966D01*
X43166030Y2902283D01*
X43161422Y2895941D01*
X43008573Y2716979D01*
X43003020Y2711426D01*
X42824058Y2558577D01*
X42817716Y2553969D01*
X42617033Y2430991D01*
X42610056Y2427436D01*
X42392608Y2337367D01*
X42385153Y2334944D01*
X42156288Y2279999D01*
X42148564Y2278775D01*
X41913914Y2260308D01*
X41906086Y2260308D01*
X41906086Y300000D01*
X48113125Y300000D01*
X48113125Y1084692D01*
X48103960Y1085541D01*
X47913521Y1121140D01*
X47904653Y1123663D01*
X47723998Y1193650D01*
X47715759Y1197752D01*
X47551032Y1299747D01*
X47543686Y1305295D01*
X47400509Y1435818D01*
X47394301Y1442628D01*
X47277545Y1597237D01*
X47272701Y1605060D01*
X47186341Y1778496D01*
X47183016Y1787078D01*
X47129994Y1973431D01*
X47128302Y1982480D01*
X47110427Y2175392D01*
X47110427Y2184608D01*
X47128302Y2377519D01*
X47129994Y2386568D01*
X47183016Y2572921D01*
X47186341Y2581503D01*
X47272701Y2754939D01*
X47277545Y2762762D01*
X47394301Y2917371D01*
X47400509Y2924181D01*
X47543686Y3054704D01*
X47551032Y3060252D01*
X47715759Y3162247D01*
X47723998Y3166349D01*
X47904653Y3236336D01*
X47913521Y3238859D01*
X48103960Y3274458D01*
X48113125Y3275307D01*
X48306874Y3275307D01*
X48316039Y3274458D01*
X48506478Y3238859D01*
X48515346Y3236336D01*
X48696001Y3166349D01*
X48704240Y3162247D01*
X48868967Y3060252D01*
X48876313Y3054704D01*
X49019490Y2924181D01*
X49025698Y2917371D01*
X49142454Y2762762D01*
X49147298Y2754939D01*
X49233658Y2581503D01*
X49236983Y2572921D01*
X49290005Y2386568D01*
X49291697Y2377519D01*
X49309573Y2184608D01*
X49309573Y2175392D01*
X49291697Y1982480D01*
X49290005Y1973431D01*
X49236983Y1787078D01*
X49233658Y1778496D01*
X49147298Y1605060D01*
X49142454Y1597237D01*
X49025698Y1442628D01*
X49019490Y1435818D01*
X48876313Y1305295D01*
X48868967Y1299747D01*
X48704240Y1197752D01*
X48696001Y1193650D01*
X48515346Y1123663D01*
X48506478Y1121140D01*
X48316039Y1085541D01*
X48306874Y1084692D01*
X48113125Y1084692D01*
X48113125Y300000D01*
X63360445Y300000D01*
X63360445Y10979883D01*
X63353654Y10980347D01*
X63077135Y11018354D01*
X63070476Y11019738D01*
X62801718Y11095041D01*
X62795289Y11097326D01*
X62539301Y11208517D01*
X62533240Y11211657D01*
X62294777Y11356670D01*
X62289201Y11360606D01*
X62072701Y11536742D01*
X62067716Y11541398D01*
X61877217Y11745372D01*
X61872916Y11750658D01*
X61711959Y11978683D01*
X61708424Y11984496D01*
X61580008Y12232326D01*
X61577300Y12238562D01*
X61483832Y12501557D01*
X61481993Y12508120D01*
X61425207Y12781384D01*
X61424279Y12788136D01*
X61405233Y13066593D01*
X61405233Y13073407D01*
X61424279Y13351863D01*
X61425207Y13358615D01*
X61481993Y13631879D01*
X61483832Y13638442D01*
X61577300Y13901437D01*
X61580008Y13907673D01*
X61708424Y14155503D01*
X61711959Y14161316D01*
X61872916Y14389341D01*
X61877217Y14394627D01*
X62067716Y14598601D01*
X62072701Y14603257D01*
X62289201Y14779393D01*
X62294777Y14783329D01*
X62533240Y14928342D01*
X62539301Y14931482D01*
X62795289Y15042673D01*
X62801718Y15044958D01*
X63070476Y15120261D01*
X63077135Y15121645D01*
X63353654Y15159652D01*
X63360445Y15160116D01*
X63639554Y15160116D01*
X63646345Y15159652D01*
X63922864Y15121645D01*
X63929523Y15120261D01*
X64198281Y15044958D01*
X64204710Y15042673D01*
X64460698Y14931482D01*
X64466759Y14928342D01*
X64705222Y14783329D01*
X64710798Y14779393D01*
X64927298Y14603257D01*
X64932283Y14598601D01*
X65122782Y14394627D01*
X65127083Y14389341D01*
X65288040Y14161316D01*
X65291575Y14155503D01*
X65419991Y13907673D01*
X65422699Y13901437D01*
X65516167Y13638442D01*
X65518006Y13631879D01*
X65574792Y13358615D01*
X65575720Y13351863D01*
X65594767Y13073406D01*
X65594767Y13066594D01*
X65575720Y12788136D01*
X65574792Y12781384D01*
X65518006Y12508120D01*
X65516167Y12501557D01*
X65422699Y12238562D01*
X65419991Y12232326D01*
X65291575Y11984496D01*
X65288040Y11978683D01*
X65127083Y11750658D01*
X65122782Y11745372D01*
X64932283Y11541398D01*
X64927298Y11536742D01*
X64710798Y11360606D01*
X64705222Y11356670D01*
X64466759Y11211657D01*
X64460698Y11208517D01*
X64204710Y11097326D01*
X64198281Y11095041D01*
X63929523Y11019738D01*
X63922864Y11018354D01*
X63646345Y10980347D01*
X63639554Y10979883D01*
X63360445Y10979883D01*
X63360445Y300000D01*
X74530000Y300000D01*
X74589327Y319500D01*
G37*
G04 --- BOARD END --- *
%TF.MD5,ed5c6a890f2bb2f07057fa45b9e095f2*%
M02*
