M48
;DRILL FILE
;Generated by LibrePCB 0.1.3
;Creation Date: 2020-02-22T16:59:51
FMAT,2
METRIC,TZ
T1C0.64
T2C0.8
T3C1.5
T4C1.6
T5C3.2
T6C3.56
T7C3.59
%
G90
G05
M71
T1
X66.04Y25.565
X60.96Y27.855
X63.5Y31.29
X63.5Y29.0
X63.5Y24.42
X63.5Y22.13
X60.96Y20.985
X60.96Y25.565
X60.96Y23.275
X60.96Y30.145
X66.04Y23.275
X63.5Y26.71
X66.04Y20.985
X66.04Y27.855
X66.04Y30.145
T2
X55.88Y17.78
X40.64Y15.24
X40.64Y35.56
X55.88Y45.72
X55.88Y25.4
X55.88Y27.94
X55.88Y48.26
X40.64Y17.78
X40.64Y45.72
X55.88Y33.02
X55.88Y15.24
X55.88Y43.18
X40.64Y33.02
X55.88Y40.64
X40.64Y22.86
X40.64Y25.4
X40.64Y38.1
X55.88Y20.32
X40.64Y20.32
X55.88Y38.1
X40.64Y40.64
X55.88Y30.48
X55.88Y22.86
X40.64Y30.48
X40.64Y27.94
X40.64Y48.26
X40.64Y43.18
X55.88Y35.56
X54.61Y8.89
X41.91Y3.81
X54.61Y3.81
X41.91Y8.89
X33.02Y17.78
X33.02Y22.86
X22.86Y15.24
X22.86Y27.94
X22.86Y20.32
X22.86Y22.86
X33.02Y12.7
X22.86Y17.78
X33.02Y15.24
X33.02Y27.94
X22.86Y30.48
X33.02Y30.48
X33.02Y35.56
X22.86Y25.4
X22.86Y33.02
X33.02Y25.4
X33.02Y33.02
X22.86Y35.56
X33.02Y20.32
X22.86Y12.7
X17.78Y5.08
X35.56Y5.08
X35.56Y45.72
X17.78Y45.72
X10.16Y30.31
X12.7Y28.94
X12.7Y20.72
X10.16Y24.83
X10.16Y19.35
X12.7Y31.68
X10.16Y27.57
X10.16Y33.05
X12.7Y15.24
X12.7Y26.2
X10.16Y22.09
X12.7Y23.46
X10.16Y16.61
X12.7Y17.98
X12.7Y34.42
T3
X48.21Y10.68
T4
X48.21Y2.18
T5
X11.58Y41.39
X11.58Y8.07
T6
X63.5Y38.06
T7
X63.5Y13.07
T0
M30
