M48
;DRILL FILE
;Generated by LibrePCB 0.1.3
;Creation Date: 2020-04-12T13:34:48
FMAT,2
METRIC,TZ
T1C0.64
T2C0.8
T3C1.0
T4C1.5
T5C1.6
T6C3.0
T7C3.2
T8C3.56
T9C3.59
%
G90
G05
M71
T1
X66.065346Y25.56467
X60.985346Y27.85467
X63.525346Y31.28967
X63.525346Y28.99967
X63.525346Y24.41967
X63.525346Y22.12967
X60.985346Y20.98467
X60.985346Y25.56467
X60.985346Y23.27467
X60.985346Y30.14467
X66.065346Y23.27467
X63.525346Y26.70967
X66.065346Y20.98467
X66.065346Y27.85467
X66.065346Y30.14467
T2
X55.88Y17.78
X40.64Y15.24
X40.64Y35.56
X55.88Y45.72
X55.88Y25.4
X55.88Y27.94
X55.88Y48.26
X40.64Y17.78
X40.64Y45.72
X55.88Y33.02
X55.88Y15.24
X55.88Y43.18
X40.64Y33.02
X55.88Y40.64
X40.64Y22.86
X40.64Y25.4
X40.64Y38.1
X55.88Y20.32
X40.64Y20.32
X55.88Y38.1
X40.64Y40.64
X55.88Y30.48
X55.88Y22.86
X40.64Y30.48
X40.64Y27.94
X40.64Y48.26
X40.64Y43.18
X55.88Y35.56
X10.16Y20.1725
X12.7Y21.5425
X12.7Y29.7625
X10.16Y25.6525
X10.16Y31.1325
X12.7Y18.8025
X10.16Y22.9125
X10.16Y17.4325
X12.7Y35.2425
X12.7Y24.2825
X10.16Y28.3925
X12.7Y27.0225
X10.16Y33.8725
X12.7Y32.5025
X12.7Y16.0625
X33.02Y17.78
X33.02Y22.86
X22.86Y15.24
X22.86Y27.94
X22.86Y20.32
X22.86Y22.86
X33.02Y12.7
X22.86Y17.78
X33.02Y15.24
X33.02Y27.94
X22.86Y30.48
X33.02Y30.48
X33.02Y35.56
X22.86Y25.4
X22.86Y33.02
X33.02Y25.4
X33.02Y33.02
X22.86Y35.56
X33.02Y20.32
X22.86Y12.7
X17.78Y5.08
X35.56Y5.08
X35.56Y45.72
X17.78Y45.72
T3
X54.61Y8.89
X41.91Y3.81
X54.61Y3.81
X41.91Y8.89
T4
X48.21Y10.68
T5
X48.21Y2.18
T6
X2.54Y2.54
X72.39Y2.54
X72.39Y48.26
X2.54Y48.26
T7
X11.58Y9.0925
X11.58Y42.4125
T8
X63.525346Y38.05967
T9
X63.525346Y13.06967
T0
M30
