G04 --- HEADER BEGIN --- *
%TF.GenerationSoftware,LibrePCB,LibrePCB,0.1.3*%
%TF.CreationDate,2020-04-12T13:34:48*%
%TF.ProjectId,Apple 2c VGA - default,6ee0dbe1-6aad-4263-9a0f-7c091fb3c0df,v1*%
%TF.Part,Single*%
%FSLAX66Y66*%
%MOMM*%
G01*
G74*
G04 --- HEADER END --- *
G04 --- APERTURE LIST BEGIN --- *
%ADD10C,0.001*%
G04 --- APERTURE LIST END --- *
G04 --- BOARD BEGIN --- *
D10*
X63182500Y30162500D02*
X63182500Y30162500D01*
X63182500Y30172500D01*
X63817500Y30172500D01*
X63817500Y30162500D01*
X63182500Y30162500D01*
X34290000Y40640000D02*
X34290000Y40640000D01*
X34300000Y40640000D01*
X34300000Y41910000D01*
X34290000Y41910000D01*
X34290000Y40640000D01*
X31750000Y40640000D02*
X31750000Y40640000D01*
X31760000Y40640000D01*
X31760000Y41910000D01*
X31750000Y41910000D01*
X31750000Y40640000D01*
X37465000Y45243750D02*
X37465000Y45243750D01*
X37475000Y45243750D01*
X37475000Y46513750D01*
X37465000Y46513750D01*
X37465000Y45243750D01*
X33655000Y42545000D02*
X33655000Y42545000D01*
X32385000Y42545000D01*
X32385000Y42555000D01*
X33655000Y42555000D01*
X33655000Y42545000D01*
X45720000Y8890000D02*
X45720000Y8890000D01*
X45720000Y8900000D01*
X44450000Y8900000D01*
X44450000Y8890000D01*
X45720000Y8890000D01*
X33655000Y45243750D02*
X33655000Y45243750D01*
X33655000Y46513750D01*
X33665000Y46513750D01*
X33665000Y45243750D01*
X33655000Y45243750D01*
X63182500Y27940000D02*
X63182500Y27940000D01*
X63182500Y27950000D01*
X63817500Y27950000D01*
X63817500Y27940000D01*
X63182500Y27940000D01*
X62388750Y20478750D02*
X62388750Y20478750D01*
X62388750Y19843750D01*
X62398750Y19843750D01*
X62398750Y20478750D01*
X62388750Y20478750D01*
X36830000Y47625000D02*
X36830000Y47625000D01*
X34290000Y47625000D01*
X34290000Y47635000D01*
X36830000Y47635000D01*
X36830000Y47625000D01*
X61912500Y32226250D02*
X61912500Y32226250D01*
X61912500Y31591250D01*
X61922500Y31591250D01*
X61922500Y32226250D01*
X61912500Y32226250D01*
X59690000Y21431250D02*
X59690000Y21431250D01*
X59690000Y20796250D01*
X59700000Y20796250D01*
X59700000Y21431250D01*
X59690000Y21431250D01*
X65087500Y32226250D02*
X65087500Y32226250D01*
X65087500Y31591250D01*
X65097500Y31591250D01*
X65097500Y32226250D01*
X65087500Y32226250D01*
X37465000Y5715000D02*
X37465000Y5715000D01*
X37465000Y4445000D01*
X37475000Y4445000D01*
X37475000Y5715000D01*
X37465000Y5715000D01*
X0Y0D02*
X0Y0D01*
X74930000Y0D01*
X74930000Y50800000D01*
X0Y50800000D01*
X0Y0D01*
X33655000Y4445000D02*
X33655000Y4445000D01*
X33665000Y4445000D01*
X33665000Y5715000D01*
X33655000Y5715000D01*
X33655000Y4445000D01*
X36195000Y43815000D02*
X36195000Y43815000D01*
X36195000Y43825000D01*
X34925000Y43825000D01*
X34925000Y43815000D01*
X36195000Y43815000D01*
X60642500Y19685000D02*
X60642500Y19685000D01*
X60642500Y19695000D01*
X61277500Y19695000D01*
X61277500Y19685000D01*
X60642500Y19685000D01*
X20955000Y34925000D02*
X20955000Y34925000D01*
X20955000Y36195000D01*
X20965000Y36195000D01*
X20965000Y34925000D01*
X20955000Y34925000D01*
X64135000Y32543750D02*
X64135000Y32543750D01*
X64135000Y32553750D01*
X62865000Y32553750D01*
X62865000Y32543750D01*
X64135000Y32543750D01*
X63341250Y20955000D02*
X63341250Y20955000D01*
X63341250Y20965000D01*
X63976250Y20965000D01*
X63976250Y20955000D01*
X63341250Y20955000D01*
X34925000Y3175000D02*
X34925000Y3175000D01*
X36195000Y3175000D01*
X36195000Y3185000D01*
X34925000Y3185000D01*
X34925000Y3175000D01*
X34925000Y6985000D02*
X34925000Y6985000D01*
X36195000Y6985000D01*
X36195000Y6995000D01*
X34925000Y6995000D01*
X34925000Y6985000D01*
G04 --- BOARD END --- *
%TF.MD5,35fb30755d958b843969be987f9eda5d*%
M02*
