G04 --- HEADER BEGIN --- *
%TF.GenerationSoftware,LibrePCB,LibrePCB,0.1.3*%
%TF.CreationDate,2020-04-15T18:42:34*%
%TF.ProjectId,Apple 2c VGA - default,6ee0dbe1-6aad-4263-9a0f-7c091fb3c0df,v1.1*%
%TF.Part,Single*%
%FSLAX66Y66*%
%MOMM*%
G01*
G74*
G04 --- HEADER END --- *
G04 --- APERTURE LIST BEGIN --- *
%ADD10C,0.001*%
G04 --- APERTURE LIST END --- *
G04 --- BOARD BEGIN --- *
D10*
X63500000Y31750000D02*
X63500000Y31750000D01*
X63490000Y31750000D01*
X63490000Y32385000D01*
X63500000Y32385000D01*
X63500000Y31750000D01*
X34607500Y40640000D02*
X34607500Y40640000D01*
X34617500Y40640000D01*
X34617500Y41910000D01*
X34607500Y41910000D01*
X34607500Y40640000D01*
X31432500Y40640000D02*
X31432500Y40640000D01*
X31442500Y40640000D01*
X31442500Y41910000D01*
X31432500Y41910000D01*
X31432500Y40640000D01*
X37465000Y45243750D02*
X37465000Y45243750D01*
X37475000Y45243750D01*
X37475000Y46513750D01*
X37465000Y46513750D01*
X37465000Y45243750D01*
X33655000Y42545000D02*
X33655000Y42545000D01*
X32385000Y42545000D01*
X32385000Y42555000D01*
X33655000Y42555000D01*
X33655000Y42545000D01*
X56960191Y12899489D02*
X56960191Y12899489D01*
X56950191Y12899489D01*
X56950191Y11629489D01*
X56960191Y11629489D01*
X56960191Y12899489D01*
X33655000Y45243750D02*
X33655000Y45243750D01*
X33655000Y46513750D01*
X33665000Y46513750D01*
X33665000Y45243750D01*
X33655000Y45243750D01*
X59055000Y19050000D02*
X59055000Y19050000D01*
X59055000Y19060000D01*
X59690000Y19060000D01*
X59690000Y19050000D01*
X59055000Y19050000D01*
X21431250Y36036250D02*
X21431250Y36036250D01*
X21431250Y35401250D01*
X21441250Y35401250D01*
X21441250Y36036250D01*
X21431250Y36036250D01*
X36830000Y47625000D02*
X36830000Y47625000D01*
X34290000Y47625000D01*
X34290000Y47635000D01*
X36830000Y47635000D01*
X36830000Y47625000D01*
X60325000Y32861250D02*
X60325000Y32861250D01*
X60325000Y32226250D01*
X60335000Y32226250D01*
X60335000Y32861250D01*
X60325000Y32861250D01*
X24447500Y36036250D02*
X24447500Y36036250D01*
X24447500Y35401250D01*
X24457500Y35401250D01*
X24457500Y36036250D01*
X24447500Y36036250D01*
X57785000Y20478750D02*
X57785000Y20478750D01*
X57785000Y19843750D01*
X57795000Y19843750D01*
X57795000Y20478750D01*
X57785000Y20478750D01*
X37465000Y5715000D02*
X37465000Y5715000D01*
X37465000Y4445000D01*
X37475000Y4445000D01*
X37475000Y5715000D01*
X37465000Y5715000D01*
X0Y0D02*
X0Y0D01*
X73500000Y0D01*
X73500000Y50800000D01*
X0Y50800000D01*
X0Y0D01*
X33655000Y4445000D02*
X33655000Y4445000D01*
X33665000Y4445000D01*
X33665000Y5715000D01*
X33655000Y5715000D01*
X33655000Y4445000D01*
X36195000Y43815000D02*
X36195000Y43815000D01*
X36195000Y43825000D01*
X34925000Y43825000D01*
X34925000Y43815000D01*
X36195000Y43815000D01*
X22542500Y36830000D02*
X22542500Y36830000D01*
X22542500Y36840000D01*
X23177500Y36840000D01*
X23177500Y36830000D01*
X22542500Y36830000D01*
X62547500Y20320000D02*
X62547500Y20320000D01*
X61277500Y20320000D01*
X61277500Y20330000D01*
X62547500Y20330000D01*
X62547500Y20320000D01*
X62547500Y33178750D02*
X62547500Y33178750D01*
X62547500Y33188750D01*
X61277500Y33188750D01*
X61277500Y33178750D01*
X62547500Y33178750D01*
X41910000Y47783750D02*
X41910000Y47783750D01*
X41900000Y47783750D01*
X41900000Y48418750D01*
X41910000Y48418750D01*
X41910000Y47783750D01*
X34925000Y3175000D02*
X34925000Y3175000D01*
X36195000Y3175000D01*
X36195000Y3185000D01*
X34925000Y3185000D01*
X34925000Y3175000D01*
X34925000Y6985000D02*
X34925000Y6985000D01*
X36195000Y6985000D01*
X36195000Y6995000D01*
X34925000Y6995000D01*
X34925000Y6985000D01*
G04 --- BOARD END --- *
%TF.MD5,5a0d098147a108b35eaa47c26278b58e*%
M02*
