G04 --- HEADER BEGIN --- *
%TF.GenerationSoftware,LibrePCB,LibrePCB,0.1.3*%
%TF.CreationDate,2020-04-15T18:42:34*%
%TF.ProjectId,Apple 2c VGA - default,6ee0dbe1-6aad-4263-9a0f-7c091fb3c0df,v1.1*%
%TF.Part,Single*%
%FSLAX66Y66*%
%MOMM*%
G01*
G74*
G04 --- HEADER END --- *
G04 --- APERTURE LIST BEGIN --- *
%ADD10C,2.7*%
%ADD11O,2.2X1.7*%
%ADD12C,1.7*%
%ADD13R,1.7X1.7*%
%ADD14R,2.2X1.7*%
%ADD15R,3.2X1.7*%
G04 --- APERTURE LIST END --- *
G04 --- BOARD BEGIN --- *
D10*
X17780000Y45720000D03*
X35560000Y45720000D03*
X35560000Y5080000D03*
X17780000Y5080000D03*
D11*
X22860000Y12700000D03*
X33020000Y20320000D03*
X22860000Y35560000D03*
X33020000Y33020000D03*
X33020000Y25400000D03*
X22860000Y33020000D03*
X22860000Y25400000D03*
X33020000Y35560000D03*
X33020000Y30480000D03*
X22860000Y30480000D03*
X33020000Y27940000D03*
X33020000Y15240000D03*
X22860000Y17780000D03*
X33020000Y12700000D03*
X22860000Y22860000D03*
X22860000Y20320000D03*
X22860000Y27940000D03*
X22860000Y15240000D03*
X33020000Y22860000D03*
X33020000Y17780000D03*
D12*
X64452500Y30145000D03*
X64452500Y27855000D03*
X64452500Y20985000D03*
X61912500Y26710000D03*
X64452500Y23275000D03*
D13*
X59372500Y30145000D03*
D12*
X59372500Y23275000D03*
X59372500Y25565000D03*
X59372500Y20985000D03*
X61912500Y22130000D03*
X61912500Y24420000D03*
X61912500Y29000000D03*
X61912500Y31290000D03*
X59372500Y27855000D03*
X64452500Y25565000D03*
D14*
X13017500Y34737500D03*
D11*
X13017500Y18297500D03*
X10477500Y16927500D03*
X13017500Y23777500D03*
X10477500Y22407500D03*
X13017500Y26517500D03*
X13017500Y15557500D03*
X10477500Y33367500D03*
X10477500Y27887500D03*
X13017500Y31997500D03*
X10477500Y19667500D03*
X10477500Y25147500D03*
X13017500Y21037500D03*
X13017500Y29257500D03*
X10477500Y30627500D03*
D10*
X41910000Y8890000D03*
X54610000Y3810000D03*
X41910000Y3810000D03*
X54610000Y8890000D03*
D15*
X50950600Y26617600D03*
X44797000Y24077600D03*
D11*
X55245000Y35560000D03*
X40005000Y43180000D03*
D14*
X40005000Y48260000D03*
D11*
X40005000Y27940000D03*
D15*
X50950600Y44397600D03*
X44797000Y31697600D03*
X50950600Y31697600D03*
X44797000Y44397600D03*
D11*
X40005000Y30480000D03*
X55245000Y22860000D03*
X55245000Y30480000D03*
D15*
X44797000Y21537600D03*
D12*
X50950600Y36777600D03*
D11*
X40005000Y40640000D03*
D12*
X42257000Y18997600D03*
D15*
X44797000Y16457600D03*
D11*
X55245000Y38100000D03*
D15*
X50950600Y41857600D03*
X44797000Y26617600D03*
D11*
X40005000Y20320000D03*
X55245000Y20320000D03*
D15*
X50950600Y21537600D03*
D11*
X40005000Y38100000D03*
D15*
X50950600Y34237600D03*
D11*
X40005000Y25400000D03*
X40005000Y22860000D03*
D15*
X50950600Y18997600D03*
D11*
X55245000Y40640000D03*
X40005000Y33020000D03*
D15*
X44797000Y41857600D03*
D11*
X55245000Y43180000D03*
X55245000Y15240000D03*
D15*
X44797000Y46937600D03*
D12*
X42257000Y21537600D03*
D15*
X44797000Y29157600D03*
D11*
X55245000Y33020000D03*
X40005000Y45720000D03*
X40005000Y17780000D03*
D15*
X50950600Y29157600D03*
X44797000Y34237600D03*
X50950600Y24077600D03*
X44797000Y18997600D03*
D11*
X55245000Y48260000D03*
X55245000Y27940000D03*
D15*
X50950600Y16457600D03*
D11*
X55245000Y25400000D03*
X55245000Y45720000D03*
X40005000Y35560000D03*
D15*
X50950600Y46937600D03*
D11*
X40005000Y15240000D03*
X55245000Y17780000D03*
G04 --- BOARD END --- *
%TF.MD5,f45d8d49ace1e2bbed949079d674d05c*%
M02*
